EncodeSansSemiCondensed-ExtraBold.ufo
<glyph name="exclam" format="2">
  <advance width="594.8636363636364"/>
  <unicode hex="0021"/>
  <outline>
    <contour>
      <point x="189.6590909090909" y="502.54545454545456" type="line"/>
      <point x="409.0909090909091" y="502.54545454545456" type="line"/>
      <point x="489.75" y="981.5454545454545" type="line"/>
      <point x="489.75" y="1480.0" type="line"/>
      <point x="105.11363636363636" y="1480.0" type="line"/>
      <point x="105.11363636363636" y="981.5454545454545" type="line"/>
    </contour>
    <contour>
      <point x="297.4318181818182" y="-18.636363636363637" type="curve" smooth="yes"/>
      <point x="434.9090909090909" y="-18.636363636363637"/>
      <point x="527.8409090909091" y="67.11363636363637"/>
      <point x="527.8409090909091" y="193.63636363636363" type="curve" smooth="yes"/>
      <point x="527.8409090909091" y="320.1590909090909"/>
      <point x="438.3636363636364" y="406.1818181818182"/>
      <point x="297.4318181818182" y="406.1818181818182" type="curve" smooth="yes"/>
      <point x="156.5" y="406.1818181818182"/>
      <point x="67.02272727272728" y="323.6136363636364"/>
      <point x="67.02272727272728" y="193.63636363636363" type="curve" smooth="yes"/>
      <point x="67.02272727272728" y="63.659090909090914"/>
      <point x="159.95454545454547" y="-18.636363636363637"/>
    </contour>
  </outline>
</glyph>
<glyph name="quotedbl" format="2">
  <advance width="911.5454545454545"/>
  <unicode hex="0022"/>
  <outline>
    <contour>
      <point x="121.9090909090909" y="825.5909090909091" type="line"/>
      <point x="343.27272727272725" y="825.5909090909091" type="line"/>
      <point x="411.20454545454544" y="1616.0" type="line"/>
      <point x="53.97727272727272" y="1616.0" type="line"/>
    </contour>
    <contour>
      <point x="568.2727272727273" y="825.5909090909091" type="line"/>
      <point x="789.6363636363636" y="825.5909090909091" type="line"/>
      <point x="857.5681818181818" y="1616.0" type="line"/>
      <point x="500.3409090909091" y="1616.0" type="line"/>
    </contour>
  </outline>
</glyph>
<glyph name="dollar" format="2">
  <advance width="1105.5454545454545"/>
  <unicode hex="0024"/>
  <outline>
    <contour>
      <point x="467.5" y="-19.727272727272727" type="curve" smooth="yes"/>
      <point x="849.7272727272727" y="-19.727272727272727"/>
      <point x="1068.340909090909" y="160.0681818181818"/>
      <point x="1068.340909090909" y="447.52272727272725" type="curve" smooth="yes"/>
      <point x="1068.340909090909" y="682.0909090909091"/>
      <point x="932.0454545454545" y="813.6818181818182"/>
      <point x="677.3636363636364" y="885.5454545454545" type="curve" smooth="yes"/>
      <point x="560.7727272727273" y="919.8181818181818" type="line" smooth="yes"/>
      <point x="435.02272727272725" y="958.1136363636364"/>
      <point x="402.84090909090907" y="992.5909090909091"/>
      <point x="402.84090909090907" y="1059.1136363636363" type="curve" smooth="yes"/>
      <point x="402.84090909090907" y="1139.1363636363635"/>
      <point x="466.02272727272725" y="1200.1136363636363"/>
      <point x="695.6363636363636" y="1200.1136363636363" type="curve" smooth="yes"/>
      <point x="788.7727272727273" y="1200.1136363636363"/>
      <point x="902.5909090909091" y="1186.3863636363635"/>
      <point x="989.0227272727273" y="1163.2272727272727" type="curve"/>
      <point x="989.0227272727273" y="1463.1136363636363" type="line"/>
      <point x="900.8863636363636" y="1484.9318181818182"/>
      <point x="784.0227272727273" y="1499.7272727272727"/>
      <point x="666.3863636363636" y="1499.7272727272727" type="curve" smooth="yes"/>
      <point x="239.8409090909091" y="1499.7272727272727"/>
      <point x="37.20454545454545" y="1324.9318181818182"/>
      <point x="37.20454545454545" y="1035.6818181818182" type="curve" smooth="yes"/>
      <point x="37.20454545454545" y="804.9090909090909"/>
      <point x="175.95454545454547" y="669.6363636363636"/>
      <point x="403.75" y="604.6590909090909" type="curve" smooth="yes"/>
      <point x="520.3409090909091" y="570.3863636363636" type="line" smooth="yes"/>
      <point x="664.75" y="527.0681818181818"/>
      <point x="702.7045454545455" y="489.8409090909091"/>
      <point x="702.7045454545455" y="418.54545454545456" type="curve" smooth="yes"/>
      <point x="702.7045454545455" y="333.3181818181818"/>
      <point x="640.7272727272727" y="279.8863636363636"/>
      <point x="459.54545454545456" y="279.8863636363636" type="curve" smooth="yes"/>
      <point x="344.04545454545456" y="279.8863636363636"/>
      <point x="195.13636363636363" y="303.29545454545456"/>
      <point x="78.11363636363636" y="338.8409090909091" type="curve"/>
      <point x="78.11363636363636" y="38.95454545454545" type="line"/>
      <point x="192.70454545454547" y="1.1590909090909092"/>
      <point x="342.47727272727275" y="-19.727272727272727"/>
    </contour>
    <contour>
      <point x="384.8863636363636" y="-240.0" type="line"/>
      <point x="721.7954545454545" y="-240.0" type="line"/>
      <point x="721.7954545454545" y="79.77272727272728" type="line"/>
      <point x="384.8863636363636" y="77.72727272727272" type="line"/>
    </contour>
    <contour>
      <point x="384.8863636363636" y="1428.1818181818182" type="line"/>
      <point x="721.7954545454545" y="1428.1818181818182" type="line"/>
      <point x="721.7954545454545" y="1720.0" type="line"/>
      <point x="384.8863636363636" y="1720.0" type="line"/>
    </contour>
  </outline>
</glyph>
<glyph name="ampersand" format="2">
  <advance width="1554.3181818181818"/>
  <unicode hex="0026"/>
  <outline>
    <contour>
      <point x="1376.090909090909" y="-20.0" type="line"/>
      <point x="1554.3181818181818" y="252.52272727272728" type="line"/>
      <point x="693.0909090909091" y="846.8636363636364" type="line" smooth="yes"/>
      <point x="605.2045454545455" y="910.7727272727273"/>
      <point x="572.0" y="959.8409090909091"/>
      <point x="572.0" y="1030.5681818181818" type="curve" smooth="yes"/>
      <point x="572.0" y="1135.5681818181818"/>
      <point x="643.5681818181819" y="1200.1136363636363"/>
      <point x="859.3409090909091" y="1200.1136363636363" type="curve" smooth="yes"/>
      <point x="931.5" y="1200.1136363636363"/>
      <point x="1017.0909090909091" y="1190.159090909091"/>
      <point x="1083.5227272727273" y="1176.5" type="curve"/>
      <point x="1083.5227272727273" y="1476.3863636363637" type="line"/>
      <point x="1007.7045454545455" y="1490.2272727272727"/>
      <point x="925.5454545454545" y="1499.7272727272727"/>
      <point x="828.2954545454545" y="1499.7272727272727" type="curve" smooth="yes"/>
      <point x="407.02272727272725" y="1499.7272727272727"/>
      <point x="206.36363636363637" y="1323.0454545454545"/>
      <point x="206.36363636363637" y="1033.8181818181818" type="curve" smooth="yes"/>
      <point x="206.36363636363637" y="877.25"/>
      <point x="272.25" y="740.7954545454545"/>
      <point x="514.8636363636364" y="574.3409090909091" type="curve" smooth="yes"/>
    </contour>
    <contour>
      <point x="656.4545454545455" y="-18.0" type="curve" smooth="yes"/>
      <point x="1066.3636363636365" y="-18.0"/>
      <point x="1322.090909090909" y="203.75"/>
      <point x="1322.090909090909" y="641.1136363636364" type="curve" smooth="yes"/>
      <point x="1322.090909090909" y="715.2272727272727"/>
      <point x="1311.4545454545455" y="804.7272727272727"/>
      <point x="1291.8636363636365" y="886.0909090909091" type="curve"/>
      <point x="1001.6363636363636" y="886.0909090909091" type="line"/>
      <point x="1021.4318181818182" y="804.7272727272727"/>
      <point x="1032.840909090909" y="713.3636363636364"/>
      <point x="1032.840909090909" y="637.5227272727273" type="curve" smooth="yes"/>
      <point x="1032.840909090909" y="341.4318181818182"/>
      <point x="888.3181818181818" y="244.04545454545453"/>
      <point x="698.6136363636364" y="244.04545454545453" type="curve" smooth="yes"/>
      <point x="537.7954545454545" y="244.04545454545453"/>
      <point x="445.04545454545456" y="318.8863636363636"/>
      <point x="445.04545454545456" y="447.8636363636364" type="curve" smooth="yes"/>
      <point x="445.04545454545456" y="536.9772727272727"/>
      <point x="481.8409090909091" y="599.9772727272727"/>
      <point x="542.1818181818182" y="649.7954545454545" type="curve"/>
      <point x="355.47727272727275" y="790.5" type="line"/>
      <point x="203.5909090909091" y="739.1136363636364"/>
      <point x="82.0" y="600.2272727272727"/>
      <point x="82.0" y="405.59090909090907" type="curve" smooth="yes"/>
      <point x="82.0" y="148.4090909090909"/>
      <point x="278.04545454545456" y="-18.0"/>
    </contour>
  </outline>
</glyph>
<glyph name="quotesingle" format="2">
  <advance width="465.1818181818182"/>
  <unicode hex="0027"/>
  <outline>
    <contour>
      <point x="121.9090909090909" y="825.5909090909091" type="line"/>
      <point x="343.27272727272725" y="825.5909090909091" type="line"/>
      <point x="411.20454545454544" y="1616.0" type="line"/>
      <point x="53.97727272727272" y="1616.0" type="line"/>
    </contour>
  </outline>
</glyph>
<glyph name="parenleft" format="2">
  <advance width="696.5454545454545"/>
  <unicode hex="0028"/>
  <outline>
    <contour>
      <point x="395.3863636363636" y="-440.0" type="curve"/>
      <point x="761.7954545454545" y="-440.0" type="line"/>
      <point x="552.7727272727273" y="-141.52272727272728"/>
      <point x="459.09090909090907" y="195.11363636363637"/>
      <point x="459.09090909090907" y="588.0" type="curve" smooth="yes"/>
      <point x="459.09090909090907" y="980.8863636363636"/>
      <point x="552.7727272727273" y="1317.5227272727273"/>
      <point x="761.7954545454545" y="1616.0" type="curve"/>
      <point x="395.3863636363636" y="1616.0" type="line"/>
      <point x="178.9318181818182" y="1337.4772727272727"/>
      <point x="87.8409090909091" y="987.75"/>
      <point x="87.8409090909091" y="588.0" type="curve" smooth="yes"/>
      <point x="87.8409090909091" y="188.25"/>
      <point x="178.9318181818182" y="-161.47727272727272"/>
    </contour>
  </outline>
</glyph>
<glyph name="parenright" format="2">
  <advance width="696.5454545454545"/>
  <unicode hex="0029"/>
  <outline>
    <contour>
      <point x="-65.25" y="-440.0" type="curve"/>
      <point x="301.1590909090909" y="-440.0" type="line"/>
      <point x="517.6136363636364" y="-161.47727272727272"/>
      <point x="608.7045454545455" y="188.25"/>
      <point x="608.7045454545455" y="588.0" type="curve" smooth="yes"/>
      <point x="608.7045454545455" y="987.75"/>
      <point x="517.6136363636364" y="1337.4772727272727"/>
      <point x="301.1590909090909" y="1616.0" type="curve"/>
      <point x="-65.25" y="1616.0" type="line"/>
      <point x="143.77272727272728" y="1317.5227272727273"/>
      <point x="237.45454545454544" y="980.8863636363636"/>
      <point x="237.45454545454544" y="588.0" type="curve" smooth="yes"/>
      <point x="237.45454545454544" y="195.11363636363637"/>
      <point x="143.77272727272728" y="-141.52272727272728"/>
    </contour>
  </outline>
</glyph>
<glyph name="asterisk" format="2">
  <advance width="1012.0909090909091"/>
  <unicode hex="002A"/>
  <outline>
    <contour>
      <point x="638.2727272727273" y="1124.2045454545455" type="line"/>
      <point x="830.6590909090909" y="1145.4318181818182" type="line"/>
      <point x="982.0909090909091" y="1194.3863636363637" type="line"/>
      <point x="907.25" y="1424.090909090909" type="line"/>
      <point x="756.0909090909091" y="1373.840909090909" type="line"/>
      <point x="585.5227272727273" y="1275.1136363636363" type="line"/>
      <point x="626.5681818181818" y="1468.3181818181818" type="line"/>
      <point x="626.5681818181818" y="1616.0" type="line"/>
      <point x="385.52272727272725" y="1616.0" type="line"/>
      <point x="385.52272727272725" y="1468.3181818181818" type="line"/>
      <point x="426.5681818181818" y="1275.1136363636363" type="line"/>
      <point x="256.0" y="1373.840909090909" type="line"/>
      <point x="104.8409090909091" y="1424.090909090909" type="line"/>
      <point x="30.0" y="1194.3863636363637" type="line"/>
      <point x="181.4318181818182" y="1145.4318181818182" type="line"/>
      <point x="373.8181818181818" y="1124.2045454545455" type="line"/>
      <point x="228.86363636363637" y="994.1136363636364" type="line"/>
      <point x="141.3409090909091" y="873.0454545454545" type="line"/>
      <point x="336.70454545454544" y="730.9772727272727" type="line"/>
      <point x="424.22727272727275" y="851.6136363636364" type="line"/>
      <point x="506.04545454545456" y="1037.7045454545455" type="line"/>
      <point x="587.8636363636364" y="851.6136363636364" type="line"/>
      <point x="675.3863636363636" y="730.9772727272727" type="line"/>
      <point x="870.75" y="873.0454545454545" type="line"/>
      <point x="783.2272727272727" y="994.1136363636364" type="line"/>
    </contour>
  </outline>
</glyph>
<glyph name="plus" format="2">
  <advance width="1070.9545454545455"/>
  <unicode hex="002B"/>
  <outline>
    <contour>
      <point x="391.3636363636364" y="315.8181818181818" type="line"/>
      <point x="679.5909090909091" y="315.8181818181818" type="line"/>
      <point x="679.5909090909091" y="621.7727272727273" type="line"/>
      <point x="974.6136363636364" y="621.7727272727273" type="line"/>
      <point x="974.6136363636364" y="898.2272727272727" type="line"/>
      <point x="679.5909090909091" y="898.2272727272727" type="line"/>
      <point x="679.5909090909091" y="1204.1818181818182" type="line"/>
      <point x="391.3636363636364" y="1204.1818181818182" type="line"/>
      <point x="391.3636363636364" y="898.2272727272727" type="line"/>
      <point x="96.3409090909091" y="898.2272727272727" type="line"/>
      <point x="96.3409090909091" y="621.7727272727273" type="line"/>
      <point x="391.3636363636364" y="621.7727272727273" type="line"/>
    </contour>
  </outline>
</glyph>
<glyph name="comma" format="2">
  <advance width="554.8636363636364"/>
  <unicode hex="002C"/>
  <outline>
    <contour>
      <point x="130.70454545454547" y="-351.8181818181818" type="curve"/>
      <point x="336.20454545454544" y="-351.8181818181818" type="line"/>
      <point x="438.97727272727275" y="-216.36363636363637"/>
      <point x="506.97727272727275" y="-33.27272727272727"/>
      <point x="506.97727272727275" y="136.0681818181818" type="curve" smooth="yes"/>
      <point x="506.97727272727275" y="326.47727272727275"/>
      <point x="424.8409090909091" y="422.5909090909091"/>
      <point x="271.97727272727275" y="422.5909090909091" type="curve" smooth="yes"/>
      <point x="136.22727272727272" y="422.5909090909091"/>
      <point x="47.02272727272728" y="342.1818181818182"/>
      <point x="47.02272727272728" y="202.11363636363637" type="curve" smooth="yes"/>
      <point x="47.02272727272728" y="65.6590909090909"/>
      <point x="142.54545454545453" y="-18.636363636363637"/>
      <point x="277.4318181818182" y="-18.636363636363637" type="curve" smooth="yes"/>
      <point x="322.25" y="-18.636363636363637" type="line"/>
      <point x="240.95454545454544" y="46.54545454545455" type="line"/>
      <point x="240.95454545454544" y="-83.0909090909091"/>
      <point x="200.38636363636363" y="-203.27272727272728"/>
    </contour>
  </outline>
</glyph>
<glyph name="hyphen" format="2">
  <advance width="842.3636363636364"/>
  <unicode hex="002D"/>
  <outline>
    <contour>
      <point x="96.3409090909091" y="423.0681818181818" type="line"/>
      <point x="746.0227272727273" y="423.0681818181818" type="line"/>
      <point x="746.0227272727273" y="714.2045454545455" type="line"/>
      <point x="96.3409090909091" y="714.2045454545455" type="line"/>
    </contour>
  </outline>
</glyph>
<glyph name="period" format="2">
  <advance width="554.8636363636364"/>
  <unicode hex="002E"/>
  <outline>
    <contour>
      <point x="277.4318181818182" y="-18.636363636363637" type="curve" smooth="yes"/>
      <point x="414.9090909090909" y="-18.636363636363637"/>
      <point x="507.8409090909091" y="68.8409090909091"/>
      <point x="507.8409090909091" y="201.8409090909091" type="curve" smooth="yes"/>
      <point x="507.8409090909091" y="334.8409090909091"/>
      <point x="418.3636363636364" y="422.5909090909091"/>
      <point x="277.4318181818182" y="422.5909090909091" type="curve" smooth="yes"/>
      <point x="136.5" y="422.5909090909091"/>
      <point x="47.02272727272728" y="338.29545454545456"/>
      <point x="47.02272727272728" y="201.8409090909091" type="curve" smooth="yes"/>
      <point x="47.02272727272728" y="65.38636363636364"/>
      <point x="139.95454545454547" y="-18.636363636363637"/>
    </contour>
  </outline>
</glyph>
<glyph name="slash" format="2">
  <advance width="776.6818181818182"/>
  <unicode hex="002F"/>
  <outline>
    <contour>
      <point x="0.0" y="-240.0" type="line"/>
      <point x="349.75000000000006" y="-240.0" type="line"/>
      <point x="776.6818181818182" y="1616.0" type="line"/>
      <point x="426.9318181818182" y="1616.0" type="line"/>
    </contour>
  </outline>
</glyph>
<glyph name="zero" format="2">
  <advance width="1282.3863636363635"/>
  <unicode hex="0030"/>
  <note>
600
</note>
  <outline>
    <contour>
      <point x="640.9772727272727" y="-19.727272727272727" type="curve" smooth="yes"/>
      <point x="997.8636363636364" y="-19.727272727272727"/>
      <point x="1204.5454545454545" y="211.4090909090909"/>
      <point x="1204.5454545454545" y="740.0" type="curve" smooth="yes"/>
      <point x="1204.5454545454545" y="1268.590909090909"/>
      <point x="998.2727272727273" y="1499.7272727272727"/>
      <point x="640.9772727272727" y="1499.7272727272727" type="curve" smooth="yes"/>
      <point x="283.6818181818182" y="1499.7272727272727"/>
      <point x="77.8409090909091" y="1268.590909090909"/>
      <point x="77.8409090909091" y="740.0" type="curve" smooth="yes"/>
      <point x="77.8409090909091" y="211.4090909090909"/>
      <point x="284.09090909090907" y="-19.727272727272727"/>
    </contour>
    <contour>
      <point x="641.4090909090909" y="280.75" type="curve" smooth="yes"/>
      <point x="506.6363636363636" y="280.75"/>
      <point x="437.4318181818182" y="388.22727272727275"/>
      <point x="437.4318181818182" y="740.5454545454545" type="curve" smooth="yes"/>
      <point x="437.4318181818182" y="1091.7727272727273"/>
      <point x="507.5" y="1199.25"/>
      <point x="641.4090909090909" y="1199.25" type="curve" smooth="yes"/>
      <point x="774.8863636363636" y="1199.25"/>
      <point x="844.9545454545455" y="1091.7727272727273"/>
      <point x="844.9545454545455" y="739.4545454545455" type="curve" smooth="yes"/>
      <point x="844.9545454545455" y="388.22727272727275"/>
      <point x="774.8863636363636" y="280.75"/>
    </contour>
  </outline>
</glyph>
<glyph name="one" format="2">
  <advance width="783.9318181818182"/>
  <unicode hex="0031"/>
  <outline>
    <contour>
      <point x="298.77272727272725" y="0.0" type="line"/>
      <point x="664.7272727272727" y="0.0" type="line"/>
      <point x="664.7272727272727" y="1485.7272727272727" type="line"/>
      <point x="434.72727272727275" y="1485.7272727272727" type="line"/>
      <point x="18.90909090909091" y="1210.7954545454545" type="line"/>
      <point x="18.90909090909091" y="871.4545454545455" type="line"/>
      <point x="434.72727272727275" y="1146.25" type="line"/>
      <point x="298.77272727272725" y="1265.0" type="line"/>
    </contour>
  </outline>
</glyph>
<glyph name="two" format="2">
  <advance width="1031.5"/>
  <unicode hex="0032"/>
  <outline>
    <contour>
      <point x="39.20454545454545" y="0.0" type="line"/>
      <point x="986.3636363636364" y="0.0" type="line"/>
      <point x="986.3636363636364" y="309.7045454545455" type="line"/>
      <point x="435.95454545454544" y="309.7045454545455" type="line"/>
      <point x="445.6136363636364" y="219.63636363636363" type="line"/>
      <point x="731.3863636363636" y="586.7727272727273" type="line" smooth="yes"/>
      <point x="876.2272727272727" y="772.0"/>
      <point x="922.75" y="918.2954545454545"/>
      <point x="922.9545454545455" y="1059.6818181818182" type="curve" smooth="yes"/>
      <point x="923.3636363636364" y="1370.0"/>
      <point x="724.3636363636364" y="1499.7272727272727"/>
      <point x="368.25" y="1499.7272727272727" type="curve" smooth="yes"/>
      <point x="253.25" y="1499.7272727272727"/>
      <point x="106.47727272727272" y="1477.5"/>
      <point x="20.113636363636363" y="1446.8181818181818" type="curve"/>
      <point x="20.113636363636363" y="1146.9318181818182" type="line"/>
      <point x="105.3409090909091" y="1180.3181818181818"/>
      <point x="215.1818181818182" y="1200.1136363636363"/>
      <point x="320.3181818181818" y="1200.1136363636363" type="curve" smooth="yes"/>
      <point x="492.1136363636364" y="1200.1136363636363"/>
      <point x="561.4772727272727" y="1142.4318181818182"/>
      <point x="561.4772727272727" y="1025.8636363636363" type="curve" smooth="yes"/>
      <point x="561.4772727272727" y="935.0909090909091"/>
      <point x="518.3409090909091" y="836.0681818181819"/>
      <point x="405.1818181818182" y="684.9090909090909" type="curve" smooth="yes"/>
      <point x="39.20454545454545" y="200.20454545454547" type="line"/>
    </contour>
  </outline>
</glyph>
<glyph name="three" format="2">
  <advance width="1040.4545454545455"/>
  <unicode hex="0033"/>
  <outline>
    <contour>
      <point x="393.4318181818182" y="-19.727272727272727" type="curve" smooth="yes"/>
      <point x="784.6590909090909" y="-19.727272727272727"/>
      <point x="991.5227272727273" y="139.29545454545453"/>
      <point x="991.5227272727273" y="412.54545454545456" type="curve" smooth="yes"/>
      <point x="991.5227272727273" y="611.3181818181819"/>
      <point x="881.0454545454545" y="736.2727272727273"/>
      <point x="674.590909090909" y="769.7727272727273" type="curve"/>
      <point x="674.3863636363636" y="756.1363636363636" type="line"/>
      <point x="844.7045454545455" y="793.5909090909091"/>
      <point x="946.1818181818182" y="922.2045454545455"/>
      <point x="946.1818181818182" y="1101.090909090909" type="curve" smooth="yes"/>
      <point x="946.1818181818182" y="1356.2727272727273"/>
      <point x="765.4090909090909" y="1499.7272727272727"/>
      <point x="408.20454545454544" y="1499.7272727272727" type="curve" smooth="yes"/>
      <point x="287.29545454545456" y="1499.7272727272727"/>
      <point x="142.3181818181818" y="1478.5"/>
      <point x="51.09090909090909" y="1447.0227272727273" type="curve"/>
      <point x="51.09090909090909" y="1169.590909090909" type="line"/>
      <point x="141.9090909090909" y="1202.4772727272727"/>
      <point x="258.72727272727275" y="1221.7045454545455"/>
      <point x="362.5681818181818" y="1221.7045454545455" type="curve" smooth="yes"/>
      <point x="527.7954545454545" y="1221.7045454545455"/>
      <point x="596.7954545454545" y="1168.7727272727273"/>
      <point x="596.7954545454545" y="1063.659090909091" type="curve" smooth="yes"/>
      <point x="596.7954545454545" y="960.5"/>
      <point x="527.0" y="897.6363636363636"/>
      <point x="343.47727272727275" y="897.6363636363636" type="curve" smooth="yes"/>
      <point x="169.0" y="897.6363636363636" type="line"/>
      <point x="169.0" y="614.0" type="line"/>
      <point x="370.97727272727275" y="614.0" type="line" smooth="yes"/>
      <point x="570.7727272727273" y="614.0"/>
      <point x="645.1590909090909" y="552.0909090909091"/>
      <point x="645.1590909090909" y="436.5909090909091" type="curve" smooth="yes"/>
      <point x="645.1590909090909" y="318.02272727272725"/>
      <point x="566.8636363636364" y="258.29545454545456"/>
      <point x="380.8409090909091" y="258.29545454545456" type="curve" smooth="yes"/>
      <point x="273.65909090909093" y="258.29545454545456"/>
      <point x="138.4090909090909" y="275.5681818181818"/>
      <point x="31.909090909090907" y="304.27272727272725" type="curve"/>
      <point x="31.909090909090907" y="26.84090909090909" type="line"/>
      <point x="143.36363636363637" y="-3.318181818181818"/>
      <point x="265.45454545454544" y="-19.727272727272727"/>
    </contour>
  </outline>
</glyph>
<glyph name="four" format="2">
  <advance width="1228.5454545454545"/>
  <unicode hex="0034"/>
  <outline>
    <contour>
      <point x="31.272727272727273" y="292.8863636363636" type="line"/>
      <point x="1201.3863636363637" y="292.8863636363636" type="line"/>
      <point x="1201.3863636363637" y="573.6590909090909" type="line"/>
      <point x="345.3409090909091" y="573.6590909090909" type="line"/>
      <point x="388.84090909090907" y="494.54545454545456" type="line"/>
      <point x="848.8863636363636" y="1480.0" type="line"/>
      <point x="500.97727272727275" y="1480.0" type="line"/>
      <point x="31.272727272727273" y="494.8181818181818" type="line"/>
    </contour>
    <contour>
      <point x="701.0" y="0.0" type="line"/>
      <point x="1026.3636363636365" y="0.0" type="line"/>
      <point x="1026.3636363636365" y="980.0" type="line"/>
      <point x="737.4545454545455" y="980.0" type="line"/>
      <point x="701.0" y="573.6590909090909" type="line"/>
    </contour>
  </outline>
</glyph>
<glyph name="five" format="2">
  <advance width="1054.0227272727273"/>
  <unicode hex="0035"/>
  <outline>
    <contour>
      <point x="421.6590909090909" y="-19.727272727272727" type="curve" smooth="yes"/>
      <point x="806.2272727272727" y="-19.727272727272727"/>
      <point x="1015.6590909090909" y="139.36363636363637"/>
      <point x="1016.0909090909091" y="449.0" type="curve" smooth="yes"/>
      <point x="1016.5227272727273" y="738.0227272727273"/>
      <point x="839.9772727272727" y="883.8181818181818"/>
      <point x="414.8863636363636" y="910.1363636363636" type="curve" smooth="yes"/>
      <point x="258.3863636363636" y="919.3409090909091" type="line"/>
      <point x="449.8636363636364" y="793.3181818181819" type="line"/>
      <point x="485.29545454545456" y="1353.909090909091" type="line"/>
      <point x="325.27272727272725" y="1190.159090909091" type="line"/>
      <point x="959.7045454545455" y="1190.159090909091" type="line"/>
      <point x="959.7045454545455" y="1480.0" type="line"/>
      <point x="149.47727272727272" y="1480.0" type="line"/>
      <point x="100.68181818181819" y="646.0681818181819" type="line"/>
      <point x="257.1818181818182" y="636.8636363636364" type="line" smooth="yes"/>
      <point x="594.0" y="616.0"/>
      <point x="669.2954545454545" y="557.2954545454545"/>
      <point x="669.2954545454545" y="437.5681818181818" type="curve" smooth="yes"/>
      <point x="669.2954545454545" y="320.22727272727275"/>
      <point x="592.4318181818181" y="260.02272727272725"/>
      <point x="409.27272727272725" y="260.02272727272725" type="curve" smooth="yes"/>
      <point x="301.34090909090907" y="260.02272727272725"/>
      <point x="166.0909090909091" y="278.79545454545456"/>
      <point x="59.93181818181819" y="308.5909090909091" type="curve"/>
      <point x="59.93181818181819" y="31.159090909090907" type="line"/>
      <point x="170.9090909090909" y="-1.0909090909090908"/>
      <point x="293.4090909090909" y="-19.727272727272727"/>
    </contour>
  </outline>
</glyph>
<glyph name="six" format="2">
  <advance width="1209.909090909091"/>
  <unicode hex="0036"/>
  <outline>
    <contour>
      <point x="653.2727272727273" y="-19.727272727272727" type="curve" smooth="yes"/>
      <point x="962.4772727272727" y="-19.727272727272727"/>
      <point x="1165.4318181818182" y="156.79545454545456"/>
      <point x="1165.4318181818182" y="454.8636363636364" type="curve" smooth="yes"/>
      <point x="1165.4318181818182" y="767.0681818181818"/>
      <point x="960.7954545454545" y="902.2727272727273"/>
      <point x="712.0909090909091" y="902.2727272727273" type="curve" smooth="yes"/>
      <point x="581.4545454545455" y="902.2727272727273"/>
      <point x="452.1363636363636" y="855.7954545454545"/>
      <point x="383.77272727272725" y="773.4772727272727" type="curve"/>
      <point x="383.77272727272725" y="516.7045454545455" type="line"/>
      <point x="449.43181818181813" y="601.0909090909091"/>
      <point x="545.7045454545455" y="635.9090909090909"/>
      <point x="638.5681818181818" y="635.9090909090909" type="curve" smooth="yes"/>
      <point x="755.4090909090909" y="635.9090909090909"/>
      <point x="835.0454545454545" y="577.6136363636364"/>
      <point x="835.0454545454545" y="443.1590909090909" type="curve" smooth="yes"/>
      <point x="835.0454545454545" y="308.54545454545456"/>
      <point x="758.0227272727273" y="249.22727272727272"/>
      <point x="656.0681818181818" y="249.22727272727272" type="curve" smooth="yes"/>
      <point x="526.9772727272727" y="249.22727272727272"/>
      <point x="443.75" y="326.1590909090909"/>
      <point x="443.75" y="634.1363636363636" type="curve" smooth="yes"/>
      <point x="443.75" y="787.7727272727273" type="line" smooth="yes"/>
      <point x="443.75" y="1084.7954545454545"/>
      <point x="565.6363636363636" y="1214.7954545454545"/>
      <point x="817.75" y="1214.7954545454545" type="curve" smooth="yes"/>
      <point x="918.0454545454545" y="1214.7954545454545"/>
      <point x="1003.8409090909091" y="1202.159090909091"/>
      <point x="1090.0454545454545" y="1174.3181818181818" type="curve"/>
      <point x="1090.0454545454545" y="1458.659090909091" type="line"/>
      <point x="1010.3863636363636" y="1488.590909090909"/>
      <point x="908.6818181818182" y="1499.7272727272727"/>
      <point x="802.9772727272727" y="1499.7272727272727" type="curve" smooth="yes"/>
      <point x="355.0909090909091" y="1499.7272727272727"/>
      <point x="87.02272727272728" y="1245.8181818181818"/>
      <point x="87.02272727272728" y="696.1818181818181" type="curve" smooth="yes"/>
      <point x="87.02272727272728" y="183.22727272727272"/>
      <point x="317.70454545454544" y="-19.727272727272727"/>
    </contour>
  </outline>
</glyph>
<glyph name="seven" format="2">
  <advance width="982.2272727272727"/>
  <unicode hex="0037"/>
  <outline>
    <contour>
      <point x="121.06818181818181" y="0.0" type="line"/>
      <point x="497.8636363636364" y="0.0" type="line"/>
      <point x="925.5909090909091" y="1279.7954545454545" type="line"/>
      <point x="925.5909090909091" y="1480.0" type="line"/>
      <point x="10.431818181818182" y="1480.0" type="line"/>
      <point x="10.431818181818182" y="1170.2954545454545" type="line"/>
      <point x="702.6363636363636" y="1170.2954545454545" type="line"/>
      <point x="576.2727272727273" y="1280.0681818181818" type="line"/>
    </contour>
  </outline>
</glyph>
<glyph name="eight" format="2">
  <advance width="1282.3863636363635"/>
  <unicode hex="0038"/>
  <outline>
    <contour>
      <point x="644.2727272727273" y="-19.727272727272727" type="curve" smooth="yes"/>
      <point x="1014.3863636363636" y="-19.727272727272727"/>
      <point x="1213.4772727272727" y="160.5"/>
      <point x="1213.4772727272727" y="409.5681818181818" type="curve" smooth="yes"/>
      <point x="1213.4772727272727" y="627.25"/>
      <point x="1106.340909090909" y="759.5909090909091"/>
      <point x="749.7272727272727" y="871.4318181818182" type="curve" smooth="yes"/>
      <point x="496.06818181818187" y="950.3863636363636"/>
      <point x="447.5" y="998.7272727272727"/>
      <point x="447.5" y="1095.659090909091" type="curve" smooth="yes"/>
      <point x="447.5" y="1182.340909090909"/>
      <point x="516.2045454545455" y="1245.0227272727273"/>
      <point x="658.8636363636364" y="1245.0227272727273" type="curve" smooth="yes"/>
      <point x="791.7272727272727" y="1245.0227272727273"/>
      <point x="863.8636363636364" y="1190.2045454545455"/>
      <point x="863.8636363636364" y="1089.7954545454545" type="curve" smooth="yes"/>
      <point x="863.8636363636364" y="992.3409090909091"/>
      <point x="814.2045454545455" y="919.6363636363636"/>
      <point x="691.1818181818182" y="851.5454545454545" type="curve"/>
      <point x="907.0" y="755.1136363636364" type="line"/>
      <point x="1106.590909090909" y="843.7045454545455"/>
      <point x="1176.2727272727273" y="977.4772727272727"/>
      <point x="1176.2727272727273" y="1121.8181818181818" type="curve" smooth="yes"/>
      <point x="1176.2727272727273" y="1355.8636363636363"/>
      <point x="981.0681818181818" y="1499.7272727272727"/>
      <point x="659.3636363636364" y="1499.7272727272727" type="curve" smooth="yes"/>
      <point x="296.22727272727275" y="1499.7272727272727"/>
      <point x="102.5909090909091" y="1332.1136363636363"/>
      <point x="102.5909090909091" y="1083.2954545454545" type="curve" smooth="yes"/>
      <point x="102.5909090909091" y="870.9545454545455"/>
      <point x="218.70454545454547" y="715.1363636363636"/>
      <point x="572.9772727272727" y="612.6363636363636" type="curve" smooth="yes"/>
      <point x="812.7045454545455" y="544.0454545454545"/>
      <point x="873.75" y="492.59090909090907"/>
      <point x="873.75" y="390.6818181818182" type="curve" smooth="yes"/>
      <point x="873.75" y="293.9318181818182"/>
      <point x="802.6136363636364" y="234.97727272727275"/>
      <point x="644.7727272727273" y="234.97727272727275" type="curve" smooth="yes"/>
      <point x="484.2045454545455" y="234.97727272727275"/>
      <point x="406.8409090909091" y="298.65909090909093"/>
      <point x="406.8409090909091" y="409.29545454545456" type="curve" smooth="yes"/>
      <point x="406.8409090909091" y="502.0909090909091"/>
      <point x="467.22727272727275" y="599.4318181818182"/>
      <point x="601.2272727272727" y="646.4318181818182" type="curve"/>
      <point x="370.3636363636364" y="741.9772727272727" type="line"/>
      <point x="170.63636363636363" y="670.5"/>
      <point x="66.31818181818181" y="536.5"/>
      <point x="66.31818181818181" y="372.45454545454544" type="curve" smooth="yes"/>
      <point x="66.31818181818181" y="144.52272727272728"/>
      <point x="251.0" y="-19.727272727272727"/>
    </contour>
  </outline>
</glyph>
<glyph name="nine" format="2">
  <advance width="1209.909090909091"/>
  <unicode hex="0039"/>
  <outline>
    <contour>
      <point x="556.6363636363636" y="1499.7272727272727" type="curve" smooth="yes"/>
      <point x="247.4318181818182" y="1499.7272727272727"/>
      <point x="44.47727272727273" y="1323.2045454545455"/>
      <point x="44.47727272727273" y="1025.1363636363637" type="curve" smooth="yes"/>
      <point x="44.47727272727273" y="712.9318181818182"/>
      <point x="249.11363636363637" y="577.7272727272727"/>
      <point x="497.8181818181818" y="577.7272727272727" type="curve" smooth="yes"/>
      <point x="628.4545454545455" y="577.7272727272727"/>
      <point x="757.7727272727273" y="624.2045454545455"/>
      <point x="826.1363636363636" y="706.5227272727273" type="curve"/>
      <point x="826.1363636363636" y="963.2954545454545" type="line"/>
      <point x="760.4772727272727" y="878.9090909090909"/>
      <point x="664.2045454545455" y="844.0909090909091"/>
      <point x="571.3409090909091" y="844.0909090909091" type="curve" smooth="yes"/>
      <point x="454.5" y="844.0909090909091"/>
      <point x="374.8636363636364" y="902.3863636363636"/>
      <point x="374.8636363636364" y="1036.840909090909" type="curve" smooth="yes"/>
      <point x="374.8636363636364" y="1171.4545454545455"/>
      <point x="451.8863636363636" y="1230.7727272727273"/>
      <point x="553.8409090909091" y="1230.7727272727273" type="curve" smooth="yes"/>
      <point x="682.9318181818181" y="1230.7727272727273"/>
      <point x="766.1590909090909" y="1153.840909090909"/>
      <point x="766.1590909090909" y="845.8636363636364" type="curve" smooth="yes"/>
      <point x="766.1590909090909" y="692.2272727272727" type="line" smooth="yes"/>
      <point x="766.1590909090909" y="395.2045454545455"/>
      <point x="644.2727272727273" y="265.2045454545455"/>
      <point x="392.15909090909093" y="265.2045454545455" type="curve" smooth="yes"/>
      <point x="291.8636363636364" y="265.2045454545455"/>
      <point x="206.0681818181818" y="277.8409090909091"/>
      <point x="119.86363636363636" y="305.6818181818182" type="curve"/>
      <point x="119.86363636363636" y="21.34090909090909" type="line"/>
      <point x="199.52272727272728" y="-8.59090909090909"/>
      <point x="301.22727272727275" y="-19.727272727272727"/>
      <point x="406.9318181818182" y="-19.727272727272727" type="curve" smooth="yes"/>
      <point x="854.8181818181819" y="-19.727272727272727"/>
      <point x="1122.8863636363635" y="234.1818181818182"/>
      <point x="1122.8863636363635" y="783.8181818181819" type="curve" smooth="yes"/>
      <point x="1122.8863636363635" y="1296.7727272727273"/>
      <point x="892.2045454545455" y="1499.7272727272727"/>
    </contour>
  </outline>
</glyph>
<glyph name="colon" format="2">
  <advance width="554.8636363636364"/>
  <unicode hex="003A"/>
  <outline>
    <contour>
      <point x="277.4318181818182" y="-18.636363636363637" type="curve" smooth="yes"/>
      <point x="414.9090909090909" y="-18.636363636363637"/>
      <point x="507.8409090909091" y="68.8409090909091"/>
      <point x="507.8409090909091" y="201.8409090909091" type="curve" smooth="yes"/>
      <point x="507.8409090909091" y="334.8409090909091"/>
      <point x="418.3636363636364" y="422.5909090909091"/>
      <point x="277.4318181818182" y="422.5909090909091" type="curve" smooth="yes"/>
      <point x="136.5" y="422.5909090909091"/>
      <point x="47.02272727272728" y="338.29545454545456"/>
      <point x="47.02272727272728" y="201.8409090909091" type="curve" smooth="yes"/>
      <point x="47.02272727272728" y="65.38636363636364"/>
      <point x="139.95454545454547" y="-18.636363636363637"/>
    </contour>
    <contour>
      <point x="277.4318181818182" y="674.6818181818182" type="curve" smooth="yes"/>
      <point x="414.9090909090909" y="674.6818181818182"/>
      <point x="507.8409090909091" y="762.1590909090909"/>
      <point x="507.8409090909091" y="895.1590909090909" type="curve" smooth="yes"/>
      <point x="507.8409090909091" y="1028.159090909091"/>
      <point x="418.3636363636364" y="1115.909090909091"/>
      <point x="277.4318181818182" y="1115.909090909091" type="curve" smooth="yes"/>
      <point x="136.5" y="1115.909090909091"/>
      <point x="47.02272727272728" y="1031.6136363636363"/>
      <point x="47.02272727272728" y="895.1590909090909" type="curve" smooth="yes"/>
      <point x="47.02272727272728" y="758.7045454545455"/>
      <point x="139.95454545454547" y="674.6818181818182"/>
    </contour>
  </outline>
</glyph>
<glyph name="semicolon" format="2">
  <advance width="554.8636363636364"/>
  <unicode hex="003B"/>
  <outline>
    <contour>
      <point x="130.70454545454547" y="-351.8181818181818" type="curve"/>
      <point x="336.20454545454544" y="-351.8181818181818" type="line"/>
      <point x="438.97727272727275" y="-216.36363636363637"/>
      <point x="506.97727272727275" y="-33.27272727272727"/>
      <point x="506.97727272727275" y="136.0681818181818" type="curve" smooth="yes"/>
      <point x="506.97727272727275" y="326.47727272727275"/>
      <point x="424.8409090909091" y="422.5909090909091"/>
      <point x="271.97727272727275" y="422.5909090909091" type="curve" smooth="yes"/>
      <point x="136.22727272727272" y="422.5909090909091"/>
      <point x="47.02272727272728" y="342.1818181818182"/>
      <point x="47.02272727272728" y="202.11363636363637" type="curve" smooth="yes"/>
      <point x="47.02272727272728" y="65.6590909090909"/>
      <point x="142.54545454545453" y="-18.636363636363637"/>
      <point x="277.4318181818182" y="-18.636363636363637" type="curve" smooth="yes"/>
      <point x="322.25" y="-18.636363636363637" type="line"/>
      <point x="240.95454545454544" y="46.54545454545455" type="line"/>
      <point x="240.95454545454544" y="-83.0909090909091"/>
      <point x="200.38636363636363" y="-203.27272727272728"/>
    </contour>
    <contour>
      <point x="277.4318181818182" y="674.6818181818182" type="curve" smooth="yes"/>
      <point x="414.9090909090909" y="674.6818181818182"/>
      <point x="507.8409090909091" y="762.1590909090909"/>
      <point x="507.8409090909091" y="895.1590909090909" type="curve" smooth="yes"/>
      <point x="507.8409090909091" y="1028.159090909091"/>
      <point x="418.3636363636364" y="1115.909090909091"/>
      <point x="277.4318181818182" y="1115.909090909091" type="curve" smooth="yes"/>
      <point x="136.5" y="1115.909090909091"/>
      <point x="47.02272727272728" y="1031.6136363636363"/>
      <point x="47.02272727272728" y="895.1590909090909" type="curve" smooth="yes"/>
      <point x="47.02272727272728" y="758.7045454545455"/>
      <point x="139.95454545454547" y="674.6818181818182"/>
    </contour>
  </outline>
</glyph>
<glyph name="less" format="2">
  <advance width="1070.9545454545455"/>
  <unicode hex="003C"/>
  <outline>
    <contour>
      <point x="974.6136363636364" y="253.13636363636363" type="line"/>
      <point x="974.6136363636364" y="530.6818181818182" type="line"/>
      <point x="296.3636363636364" y="776.75" type="line"/>
      <point x="296.3636363636364" y="745.4090909090909" type="line"/>
      <point x="974.6136363636364" y="989.3181818181818" type="line"/>
      <point x="974.6136363636364" y="1266.8636363636365" type="line"/>
      <point x="96.3409090909091" y="935.4090909090909" type="line"/>
      <point x="96.3409090909091" y="584.5909090909091" type="line"/>
    </contour>
  </outline>
</glyph>
<glyph name="equal" format="2">
  <advance width="1070.9545454545455"/>
  <unicode hex="003D"/>
  <outline>
    <contour>
      <point x="96.3409090909091" y="849.5454545454545" type="line"/>
      <point x="974.6136363636364" y="849.5454545454545" type="line"/>
      <point x="974.6136363636364" y="1126.0" type="line"/>
      <point x="96.3409090909091" y="1126.0" type="line"/>
    </contour>
    <contour>
      <point x="96.3409090909091" y="394.0" type="line"/>
      <point x="974.6136363636364" y="394.0" type="line"/>
      <point x="974.6136363636364" y="670.4545454545455" type="line"/>
      <point x="96.3409090909091" y="670.4545454545455" type="line"/>
    </contour>
  </outline>
</glyph>
<glyph name="greater" format="2">
  <advance width="1070.9545454545455"/>
  <unicode hex="003E"/>
  <outline>
    <contour>
      <point x="96.3409090909091" y="253.13636363636363" type="line"/>
      <point x="974.6136363636364" y="584.5909090909091" type="line"/>
      <point x="974.6136363636364" y="935.4090909090909" type="line"/>
      <point x="96.3409090909091" y="1266.8636363636365" type="line"/>
      <point x="96.3409090909091" y="989.3181818181818" type="line"/>
      <point x="774.5909090909091" y="745.4090909090909" type="line"/>
      <point x="774.5909090909091" y="776.75" type="line"/>
      <point x="96.3409090909091" y="530.6818181818182" type="line"/>
    </contour>
  </outline>
</glyph>
<glyph name="question" format="2">
  <advance width="957.2045454545455"/>
  <unicode hex="003F"/>
  <outline>
    <contour>
      <point x="310.54545454545456" y="500.3636363636364" type="line"/>
      <point x="529.9772727272727" y="500.3636363636364" type="line"/>
      <point x="556.8181818181818" y="684.3181818181819" type="line"/>
      <point x="782.0" y="751.7272727272727"/>
      <point x="916.3636363636364" y="887.0227272727273"/>
      <point x="916.3636363636364" y="1098.9318181818182" type="curve" smooth="yes"/>
      <point x="916.3636363636364" y="1356.2727272727273"/>
      <point x="735.5909090909091" y="1499.7272727272727"/>
      <point x="378.3863636363636" y="1499.7272727272727" type="curve" smooth="yes"/>
      <point x="257.47727272727275" y="1499.7272727272727"/>
      <point x="112.5" y="1478.5"/>
      <point x="21.272727272727273" y="1447.0227272727273" type="curve"/>
      <point x="21.272727272727273" y="1165.2727272727273" type="line"/>
      <point x="112.0909090909091" y="1198.159090909091"/>
      <point x="228.04545454545453" y="1217.3863636363635"/>
      <point x="331.6818181818182" y="1217.3863636363635" type="curve" smooth="yes"/>
      <point x="497.97727272727275" y="1217.3863636363635"/>
      <point x="566.9772727272727" y="1165.75"/>
      <point x="566.9772727272727" y="1062.7954545454545" type="curve" smooth="yes"/>
      <point x="566.9772727272727" y="964.6818181818181"/>
      <point x="500.3636363636364" y="899.7045454545455"/>
      <point x="248.88636363636363" y="851.75" type="curve"/>
    </contour>
    <contour>
      <point x="420.47727272727275" y="-18.636363636363637" type="curve" smooth="yes"/>
      <point x="558.2272727272727" y="-18.636363636363637"/>
      <point x="650.8863636363636" y="67.38636363636364"/>
      <point x="650.8863636363636" y="193.63636363636363" type="curve" smooth="yes"/>
      <point x="650.8863636363636" y="320.1590909090909"/>
      <point x="561.4090909090909" y="406.1818181818182"/>
      <point x="420.47727272727275" y="406.1818181818182" type="curve" smooth="yes"/>
      <point x="279.54545454545456" y="406.1818181818182"/>
      <point x="190.0681818181818" y="323.6136363636364"/>
      <point x="190.0681818181818" y="193.63636363636363" type="curve" smooth="yes"/>
      <point x="190.0681818181818" y="63.93181818181819"/>
      <point x="283.0" y="-18.636363636363637"/>
    </contour>
  </outline>
</glyph>
<glyph name="at" format="2">
  <advance width="2039.340909090909"/>
  <unicode hex="0040"/>
  <outline>
    <contour>
      <point x="1063.7045454545455" y="-460.0" type="curve" smooth="yes"/>
      <point x="1216.2045454545455" y="-460.0"/>
      <point x="1364.0" y="-441.3181818181818"/>
      <point x="1506.8636363636365" y="-405.72727272727275" type="curve"/>
      <point x="1506.8636363636365" y="-171.04545454545456" type="line"/>
      <point x="1359.4772727272727" y="-207.38636363636363"/>
      <point x="1215.318181818182" y="-225.5909090909091"/>
      <point x="1063.7045454545455" y="-225.5909090909091" type="curve" smooth="yes"/>
      <point x="558.75" y="-225.5909090909091"/>
      <point x="342.7954545454545" y="-28.068181818181813"/>
      <point x="342.7954545454545" y="520.5454545454545" type="curve" smooth="yes"/>
      <point x="342.7954545454545" y="1067.5227272727273"/>
      <point x="558.6136363636364" y="1263.590909090909"/>
      <point x="1028.590909090909" y="1263.590909090909" type="curve" smooth="yes"/>
      <point x="1498.9318181818182" y="1263.590909090909"/>
      <point x="1715.2272727272727" y="1074.7045454545455"/>
      <point x="1717.8181818181818" y="576.4545454545455" type="curve" smooth="yes"/>
      <point x="1719.9772727272727" y="282.8863636363636"/>
      <point x="1662.340909090909" y="219.0"/>
      <point x="1579.9318181818182" y="219.0" type="curve" smooth="yes"/>
      <point x="1527.5454545454545" y="219.0"/>
      <point x="1496.7954545454545" y="250.3409090909091"/>
      <point x="1496.7954545454545" y="326.54545454545456" type="curve" smooth="yes"/>
      <point x="1496.7954545454545" y="638.7727272727273" type="line" smooth="yes"/>
      <point x="1496.7954545454545" y="978.3181818181819"/>
      <point x="1346.6136363636363" y="1097.7272727272727"/>
      <point x="1005.9090909090909" y="1097.7272727272727" type="curve" smooth="yes"/>
      <point x="895.8636363636364" y="1097.7272727272727"/>
      <point x="765.909090909091" y="1079.0681818181818"/>
      <point x="663.7954545454545" y="1045.6136363636363" type="curve"/>
      <point x="661.2045454545455" y="769.9090909090909" type="line"/>
      <point x="749.5681818181819" y="802.6818181818182"/>
      <point x="854.1136363636364" y="819.7045454545455"/>
      <point x="938.4090909090909" y="819.7045454545455" type="curve" smooth="yes"/>
      <point x="1094.1818181818182" y="819.7045454545455"/>
      <point x="1147.25" y="775.5227272727273"/>
      <point x="1147.25" y="654.8863636363636" type="curve" smooth="yes"/>
      <point x="1147.25" y="282.3181818181818" type="line"/>
      <point x="1113.2727272727273" y="249.45454545454547"/>
      <point x="1063.4772727272727" y="237.4090909090909"/>
      <point x="1027.2045454545455" y="237.4090909090909" type="curve" smooth="yes"/>
      <point x="962.2727272727273" y="237.4090909090909"/>
      <point x="916.0227272727273" y="270.75"/>
      <point x="916.0227272727273" y="343.02272727272725" type="curve" smooth="yes"/>
      <point x="916.0227272727273" y="417.1818181818182"/>
      <point x="960.6818181818182" y="456.3409090909091"/>
      <point x="1052.5" y="463.15909090909093" type="curve" smooth="yes"/>
      <point x="1237.25" y="476.3409090909091" type="line"/>
      <point x="1193.3863636363637" y="668.4318181818181" type="line"/>
      <point x="1012.9772727272727" y="655.25" type="line" smooth="yes"/>
      <point x="694.75" y="633.7954545454545"/>
      <point x="564.7954545454545" y="514.1363636363636"/>
      <point x="564.7954545454545" y="301.90909090909093" type="curve" smooth="yes"/>
      <point x="564.7954545454545" y="107.54545454545455"/>
      <point x="694.590909090909" y="-21.18181818181818"/>
      <point x="901.7954545454545" y="-21.18181818181818" type="curve" smooth="yes"/>
      <point x="1013.6363636363636" y="-21.18181818181818"/>
      <point x="1119.4545454545455" y="16.727272727272727"/>
      <point x="1160.8636363636365" y="130.9090909090909" type="curve"/>
      <point x="1178.8636363636365" y="130.9090909090909" type="line"/>
      <point x="1242.4318181818182" y="27.977272727272727"/>
      <point x="1350.2954545454545" y="-21.18181818181818"/>
      <point x="1502.9545454545455" y="-21.18181818181818" type="curve" smooth="yes"/>
      <point x="1777.3636363636365" y="-21.18181818181818"/>
      <point x="1971.431818181818" y="140.95454545454547"/>
      <point x="1971.5" y="584.1818181818181" type="curve" smooth="yes"/>
      <point x="1971.5681818181818" y="1197.8863636363637"/>
      <point x="1631.0681818181818" y="1498.0"/>
      <point x="1028.590909090909" y="1498.0" type="curve" smooth="yes"/>
      <point x="426.4090909090909" y="1498.0"/>
      <point x="67.8409090909091" y="1197.8863636363637"/>
      <point x="67.8409090909091" y="520.0" type="curve" smooth="yes"/>
      <point x="67.8409090909091" y="-158.8409090909091"/>
      <point x="426.8863636363636" y="-459.9318181818182"/>
    </contour>
  </outline>
</glyph>
<glyph name="B" format="2">
  <advance width="1290.3181818181818"/>
  <unicode hex="0042"/>
  <anchor x="651.4318181818182" y="0.0" name="bottom"/>
  <anchor x="651.4318181818182" y="1480.0" name="top"/>
  <outline>
    <contour>
      <point x="524.5" y="-18.636363636363637" type="curve" smooth="yes"/>
      <point x="1046.7045454545455" y="-18.636363636363637"/>
      <point x="1250.909090909091" y="135.27272727272728"/>
      <point x="1250.909090909091" y="417.1136363636364" type="curve" smooth="yes"/>
      <point x="1250.909090909091" y="628.0227272727273"/>
      <point x="1129.5227272727273" y="739.6818181818181"/>
      <point x="957.3863636363636" y="768.4772727272727" type="curve"/>
      <point x="957.1818181818182" y="756.1363636363636" type="line"/>
      <point x="1113.5681818181818" y="790.9318181818181"/>
      <point x="1209.7045454545455" y="920.9090909090909"/>
      <point x="1209.7045454545455" y="1083.5" type="curve" smooth="yes"/>
      <point x="1209.7045454545455" y="1367.1818181818182"/>
      <point x="1014.8181818181819" y="1499.1818181818182"/>
      <point x="579.5454545454545" y="1499.1818181818182" type="curve" smooth="yes"/>
      <point x="424.20454545454544" y="1499.1818181818182"/>
      <point x="244.97727272727272" y="1478.1136363636363"/>
      <point x="109.20454545454545" y="1447.8863636363637" type="curve"/>
      <point x="109.20454545454545" y="12.613636363636363" type="line"/>
      <point x="232.88636363636363" y="-5.931818181818182"/>
      <point x="404.54545454545456" y="-18.636363636363637"/>
    </contour>
    <contour>
      <point x="625.8181818181818" y="253.77272727272728" type="curve" smooth="yes"/>
      <point x="574.7272727272727" y="253.77272727272728"/>
      <point x="527.5454545454545" y="255.47727272727275"/>
      <point x="466.0909090909091" y="260.72727272727275" type="curve"/>
      <point x="466.0909090909091" y="1212.3181818181818" type="line"/>
      <point x="519.7045454545455" y="1221.5"/>
      <point x="572.4318181818182" y="1226.7727272727273"/>
      <point x="633.6136363636364" y="1226.7727272727273" type="curve" smooth="yes"/>
      <point x="804.3181818181819" y="1226.7727272727273"/>
      <point x="866.4318181818182" y="1177.7272727272727"/>
      <point x="866.4318181818182" y="1061.0454545454545" type="curve" smooth="yes"/>
      <point x="866.4318181818182" y="948.6818181818182"/>
      <point x="808.0227272727273" y="895.9090909090909"/>
      <point x="633.2045454545455" y="895.9090909090909" type="curve" smooth="yes"/>
      <point x="431.95454545454544" y="895.9090909090909" type="line"/>
      <point x="431.95454545454544" y="614.4318181818181" type="line"/>
      <point x="663.25" y="614.4318181818181" type="line" smooth="yes"/>
      <point x="838.7727272727273" y="614.4318181818181"/>
      <point x="910.5909090909091" y="559.5"/>
      <point x="910.5909090909091" y="435.40909090909093" type="curve" smooth="yes"/>
      <point x="910.5909090909091" y="309.4545454545455"/>
      <point x="839.7045454545455" y="253.77272727272728"/>
    </contour>
  </outline>
</glyph>
<glyph name="F" format="2">
  <advance width="1146.590909090909"/>
  <unicode hex="0046"/>
  <outline>
    <contour>
      <point x="109.20454545454545" y="0.0" type="line"/>
      <point x="475.1590909090909" y="0.0" type="line"/>
      <point x="475.1590909090909" y="1174.340909090909" type="line"/>
      <point x="1119.9318181818182" y="1174.340909090909" type="line"/>
      <point x="1119.9318181818182" y="1480.0" type="line"/>
      <point x="109.20454545454545" y="1480.0" type="line"/>
    </contour>
    <contour>
      <point x="353.5909090909091" y="561.3181818181818" type="line"/>
      <point x="1019.6590909090909" y="561.3181818181818" type="line"/>
      <point x="1019.6590909090909" y="866.9772727272727" type="line"/>
      <point x="353.5909090909091" y="866.9772727272727" type="line"/>
    </contour>
  </outline>
</glyph>
<glyph name="H" format="2">
  <advance width="1450.6363636363635"/>
  <unicode hex="0048"/>
  <anchor x="726.1818181818181" y="0.0" name="bottom"/>
  <anchor x="726.1818181818181" y="1196.5681818181818" name="center"/>
  <anchor x="726.1818181818181" y="1520.0" name="top"/>
  <anchor x="32.88636363636363" y="1480.0" name="topleft"/>
  <outline>
    <contour>
      <point x="109.20454545454545" y="0.0" type="line"/>
      <point x="475.1590909090909" y="0.0" type="line"/>
      <point x="475.1590909090909" y="591.9772727272727" type="line"/>
      <point x="975.4772727272727" y="591.9772727272727" type="line"/>
      <point x="975.4772727272727" y="0.0" type="line"/>
      <point x="1341.4318181818182" y="0.0" type="line"/>
      <point x="1341.4318181818182" y="1480.0" type="line"/>
      <point x="975.4772727272727" y="1480.0" type="line"/>
      <point x="975.4772727272727" y="919.6590909090909" type="line"/>
      <point x="475.1590909090909" y="919.6590909090909" type="line"/>
      <point x="475.1590909090909" y="1480.0" type="line"/>
      <point x="109.20454545454545" y="1480.0" type="line"/>
    </contour>
  </outline>
</glyph>
<glyph name="I" format="2">
  <advance width="584.3636363636364"/>
  <unicode hex="0049"/>
  <anchor x="291.75" y="0.0" name="bottom"/>
  <anchor x="475.1590909090909" y="0.0" name="ogonek"/>
  <anchor x="292.1818181818182" y="1520.0" name="top"/>
  <outline>
    <contour>
      <point x="109.20454545454545" y="0.0" type="line"/>
      <point x="475.1590909090909" y="0.0" type="line"/>
      <point x="475.1590909090909" y="1480.0" type="line"/>
      <point x="109.20454545454545" y="1480.0" type="line"/>
    </contour>
  </outline>
</glyph>
<glyph name="J" format="2">
  <advance width="584.3636363636364"/>
  <unicode hex="004A"/>
  <anchor x="481.43181818181813" y="0.0" name="bottom"/>
  <anchor x="292.6136363636364" y="1520.0" name="top"/>
  <outline>
    <contour>
      <point x="200.1590909090909" y="-350.3636363636364" type="line"/>
      <point x="403.72727272727275" y="-134.6818181818182"/>
      <point x="473.8636363636364" y="64.31818181818181"/>
      <point x="475.1590909090909" y="311.9318181818182" type="curve"/>
      <point x="475.1590909090909" y="1480.0" type="line"/>
      <point x="110.06818181818181" y="1480.0" type="line"/>
      <point x="110.06818181818181" y="302.40909090909093" type="line" smooth="yes"/>
      <point x="110.06818181818181" y="91.0909090909091"/>
      <point x="75.5" y="-39.54545454545453"/>
      <point x="-35.45454545454545" y="-194.52272727272725" type="curve"/>
    </contour>
  </outline>
</glyph>
<glyph name="K" format="2">
  <advance width="1287.25"/>
  <unicode hex="004B"/>
  <anchor x="674.5227272727273" y="0.0" name="bottom"/>
  <anchor x="665.4545454545455" y="1480.0" name="top"/>
  <outline>
    <contour>
      <point x="953.5454545454545" y="0.0" type="line"/>
      <point x="1347.090909090909" y="0.0" type="line"/>
      <point x="843.8181818181818" y="809.4090909090909" type="line"/>
      <point x="838.6363636363636" y="711.1363636363636" type="line"/>
      <point x="1307.25" y="1480.0" type="line"/>
      <point x="925.6363636363636" y="1480.0" type="line"/>
      <point x="482.5681818181818" y="751.9545454545455" type="line"/>
    </contour>
    <contour>
      <point x="109.20454545454545" y="0.0" type="line"/>
      <point x="475.1590909090909" y="0.0" type="line"/>
      <point x="475.1590909090909" y="1480.0" type="line"/>
      <point x="109.20454545454545" y="1480.0" type="line"/>
    </contour>
    <contour>
      <point x="425.47727272727275" y="591.9772727272727" type="line"/>
      <point x="618.8409090909091" y="591.9772727272727" type="line"/>
      <point x="618.8409090909091" y="919.4545454545455" type="line"/>
      <point x="425.47727272727275" y="919.4545454545455" type="line"/>
    </contour>
  </outline>
</glyph>
<glyph name="M" format="2">
  <advance width="1813.0"/>
  <unicode hex="004D"/>
  <anchor x="930.25" y="0.0" name="bottom"/>
  <anchor x="930.25" y="1480.0" name="top"/>
  <outline>
    <contour>
      <point x="113.20454545454545" y="0.0" type="line"/>
      <point x="453.8409090909091" y="0.0" type="line"/>
      <point x="453.8409090909091" y="1144.6363636363635" type="line"/>
      <point x="374.9545454545455" y="1144.6363636363635" type="line"/>
      <point x="760.5454545454545" y="217.27272727272728" type="line"/>
      <point x="1052.4545454545455" y="217.27272727272728" type="line"/>
      <point x="1423.5227272727273" y="1144.6363636363635" type="line"/>
      <point x="1359.159090909091" y="1144.6363636363635" type="line"/>
      <point x="1359.159090909091" y="0.0" type="line"/>
      <point x="1699.7954545454545" y="0.0" type="line"/>
      <point x="1699.7954545454545" y="1480.0" type="line"/>
      <point x="1251.2045454545455" y="1480.0" type="line"/>
      <point x="895.0909090909091" y="564.5" type="line"/>
      <point x="930.5454545454545" y="564.5" type="line"/>
      <point x="561.7954545454545" y="1480.0" type="line"/>
      <point x="113.20454545454545" y="1480.0" type="line"/>
    </contour>
  </outline>
</glyph>
<glyph name="N" format="2">
  <advance width="1465.75"/>
  <unicode hex="004E"/>
  <anchor x="732.9090909090909" y="0.0" name="bottom"/>
  <anchor x="732.9090909090909" y="1520.0" name="top"/>
  <outline>
    <contour>
      <point x="109.20454545454545" y="0.0" type="line"/>
      <point x="452.0" y="0.0" type="line"/>
      <point x="452.0" y="997.6818181818182" type="line"/>
      <point x="394.1590909090909" y="997.6818181818182" type="line"/>
      <point x="990.8636363636364" y="0.0" type="line"/>
      <point x="1356.5454545454545" y="0.0" type="line"/>
      <point x="1356.5454545454545" y="1480.0" type="line"/>
      <point x="1013.75" y="1480.0" type="line"/>
      <point x="1013.75" y="482.3181818181818" type="line"/>
      <point x="1071.590909090909" y="482.3181818181818" type="line"/>
      <point x="474.8863636363636" y="1480.0" type="line"/>
      <point x="109.20454545454545" y="1480.0" type="line"/>
    </contour>
  </outline>
</glyph>
<glyph name="P" format="2">
  <advance width="1271.4318181818182"/>
  <unicode hex="0050"/>
  <outline>
    <contour>
      <point x="109.20454545454545" y="0.0" type="line"/>
      <point x="475.1590909090909" y="0.0" type="line"/>
      <point x="475.1590909090909" y="412.6363636363636" type="line"/>
      <point x="514.7272727272727" y="411.6818181818182"/>
      <point x="546.7954545454545" y="409.6136363636364"/>
      <point x="590.0909090909091" y="409.6136363636364" type="curve" smooth="yes"/>
      <point x="994.25" y="409.6136363636364"/>
      <point x="1211.7727272727273" y="596.0909090909091"/>
      <point x="1211.7727272727273" y="953.6818181818181" type="curve" smooth="yes"/>
      <point x="1211.7727272727273" y="1331.5681818181818"/>
      <point x="992.1363636363636" y="1499.1818181818182"/>
      <point x="556.0681818181819" y="1499.1818181818182" type="curve" smooth="yes"/>
      <point x="393.1136363636364" y="1499.1818181818182"/>
      <point x="246.27272727272728" y="1480.2727272727273"/>
      <point x="109.20454545454545" y="1451.9772727272727" type="curve"/>
    </contour>
    <contour>
      <point x="594.1590909090909" y="692.3863636363636" type="curve" smooth="yes"/>
      <point x="548.0" y="692.3863636363636"/>
      <point x="513.5909090909091" y="694.5227272727273"/>
      <point x="475.1590909090909" y="699.6363636363636" type="curve"/>
      <point x="475.1590909090909" y="1206.909090909091" type="line"/>
      <point x="510.6363636363636" y="1213.7272727272727"/>
      <point x="543.0681818181818" y="1216.409090909091"/>
      <point x="590.6136363636364" y="1216.409090909091" type="curve" smooth="yes"/>
      <point x="772.2045454545455" y="1216.409090909091"/>
      <point x="856.9318181818181" y="1137.6363636363637"/>
      <point x="856.9318181818181" y="950.6136363636364" type="curve" smooth="yes"/>
      <point x="856.9318181818181" y="763.75"/>
      <point x="771.7954545454545" y="692.3863636363636"/>
    </contour>
  </outline>
</glyph>
<glyph name="Q" format="2">
  <advance width="1485.3636363636365"/>
  <unicode hex="0051"/>
  <outline>
    <contour>
      <point x="1332.3636363636365" y="-338.9090909090909" type="curve"/>
      <point x="1396.909090909091" y="-48.363636363636374" type="line"/>
      <point x="1193.8863636363635" y="-22.22727272727272"/>
      <point x="994.4772727272727" y="23.545454545454547"/>
      <point x="754.2272727272727" y="117.02272727272728" type="curve"/>
      <point x="638.0454545454545" y="26.977272727272727" type="line"/>
      <point x="1147.9545454545455" y="-43.02272727272727"/>
      <point x="1417.5227272727273" y="231.5909090909091"/>
      <point x="1417.5227272727273" y="740.0" type="curve" smooth="yes"/>
      <point x="1417.5227272727273" y="1263.409090909091"/>
      <point x="1147.6363636363635" y="1499.7272727272727"/>
      <point x="742.6818181818182" y="1499.7272727272727" type="curve" smooth="yes"/>
      <point x="337.72727272727275" y="1499.7272727272727"/>
      <point x="67.8409090909091" y="1263.8636363636363"/>
      <point x="67.8409090909091" y="735.6818181818181" type="curve" smooth="yes"/>
      <point x="67.8409090909091" y="183.5681818181818"/>
      <point x="360.0681818181818" y="-173.1818181818182"/>
    </contour>
    <contour>
      <point x="742.6818181818182" y="278.6590909090909" type="curve" smooth="yes"/>
      <point x="552.0" y="278.6590909090909"/>
      <point x="443.8409090909091" y="400.25"/>
      <point x="443.8409090909091" y="747.4545454545455" type="curve" smooth="yes"/>
      <point x="443.8409090909091" y="1078.8863636363637"/>
      <point x="554.1590909090909" y="1201.340909090909"/>
      <point x="742.6818181818182" y="1201.340909090909" type="curve" smooth="yes"/>
      <point x="931.2045454545455" y="1201.340909090909"/>
      <point x="1041.5227272727273" y="1077.590909090909"/>
      <point x="1041.5227272727273" y="732.5454545454545" type="curve" smooth="yes"/>
      <point x="1041.5227272727273" y="402.4090909090909"/>
      <point x="932.5" y="278.6590909090909"/>
    </contour>
  </outline>
</glyph>
<glyph name="T" format="2">
  <advance width="1241.6136363636365"/>
  <unicode hex="0054"/>
  <anchor x="621.4545454545455" y="0.0" name="bottom"/>
  <anchor x="621.4545454545455" y="713.6363636363636" name="center"/>
  <anchor x="621.4545454545455" y="1520.0" name="top"/>
  <outline>
    <contour>
      <point x="437.1818181818182" y="0.0" type="line"/>
      <point x="804.4318181818182" y="0.0" type="line"/>
      <point x="804.4318181818182" y="1167.4318181818182" type="line"/>
      <point x="1232.7727272727273" y="1167.4318181818182" type="line"/>
      <point x="1232.7727272727273" y="1480.0" type="line"/>
      <point x="8.84090909090909" y="1480.0" type="line"/>
      <point x="8.84090909090909" y="1167.4318181818182" type="line"/>
      <point x="437.1818181818182" y="1167.4318181818182" type="line"/>
    </contour>
  </outline>
</glyph>
<glyph name="V" format="2">
  <advance width="1364.590909090909"/>
  <unicode hex="0056"/>
  <outline>
    <contour>
      <point x="407.29545454545456" y="0.0" type="line"/>
      <point x="957.2954545454545" y="0.0" type="line"/>
      <point x="1373.1136363636365" y="1480.0" type="line"/>
      <point x="1020.2045454545455" y="1480.0" type="line"/>
      <point x="653.7727272727273" y="144.9318181818182" type="line"/>
      <point x="729.3636363636364" y="144.9318181818182" type="line"/>
      <point x="370.40909090909093" y="1480.0" type="line"/>
      <point x="-8.522727272727273" y="1480.0" type="line"/>
    </contour>
  </outline>
</glyph>
<glyph name="X" format="2">
  <advance width="1335.9772727272727"/>
  <unicode hex="0058"/>
  <outline>
    <contour>
      <point x="974.8636363636364" y="0.0" type="line"/>
      <point x="1373.659090909091" y="0.0" type="line"/>
      <point x="880.1363636363636" y="774.7727272727273" type="line"/>
      <point x="667.7727272727273" y="1054.5681818181818" type="line"/>
      <point x="399.7727272727273" y="1480.0" type="line"/>
      <point x="-2.7045454545454533" y="1480.0" type="line"/>
      <point x="453.1818181818182" y="771.6818181818181" type="line"/>
      <point x="665.5454545454545" y="495.5681818181818" type="line"/>
    </contour>
    <contour>
      <point x="-43.79545454545455" y="0.0" type="line"/>
      <point x="355.1590909090909" y="0.0" type="line"/>
      <point x="665.5454545454545" y="495.5681818181818" type="line"/>
      <point x="880.1363636363636" y="774.7727272727273" type="line"/>
      <point x="1328.6818181818182" y="1480.0" type="line"/>
      <point x="935.4090909090909" y="1480.0" type="line"/>
      <point x="667.7727272727273" y="1054.5681818181818" type="line"/>
      <point x="453.1818181818182" y="771.6818181818181" type="line"/>
    </contour>
  </outline>
</glyph>
<glyph name="Y" format="2">
  <advance width="1241.6136363636365"/>
  <unicode hex="0059"/>
  <anchor x="621.0227272727273" y="0.0" name="bottom"/>
  <anchor x="622.3181818181818" y="1520.0" name="top"/>
  <anchor x="-25.431818181818187" y="1480.0" name="topleft"/>
  <outline>
    <contour>
      <point x="439.34090909090907" y="0.0" type="line"/>
      <point x="805.2954545454545" y="0.0" type="line"/>
      <point x="805.2954545454545" y="762.7727272727273" type="line"/>
      <point x="731.2954545454545" y="487.47727272727275" type="line"/>
      <point x="1294.7045454545455" y="1480.0" type="line"/>
      <point x="939.4772727272727" y="1480.0" type="line"/>
      <point x="583.1363636363636" y="850.25" type="line"/>
      <point x="680.6363636363636" y="850.25" type="line"/>
      <point x="322.54545454545456" y="1480.0" type="line"/>
      <point x="-62.38636363636363" y="1480.0" type="line"/>
      <point x="513.3409090909091" y="487.47727272727275" type="line"/>
      <point x="439.34090909090907" y="767.9545454545455" type="line"/>
    </contour>
  </outline>
</glyph>
<glyph name="Z" format="2">
  <advance width="1180.2272727272727"/>
  <unicode hex="005A"/>
  <anchor x="586.5454545454545" y="0.0" name="bottom"/>
  <anchor x="591.7272727272727" y="1520.0" name="top"/>
  <outline>
    <contour>
      <point x="46.97727272727273" y="0.0" type="line"/>
      <point x="1133.25" y="0.0" type="line"/>
      <point x="1133.25" y="312.29545454545456" type="line"/>
      <point x="477.1818181818182" y="312.29545454545456" type="line"/>
      <point x="479.2272727272727" y="247.0681818181818" type="line"/>
      <point x="1123.1136363636363" y="1277.2045454545455" type="line"/>
      <point x="1123.1136363636363" y="1480.0" type="line"/>
      <point x="57.11363636363636" y="1480.0" type="line"/>
      <point x="57.11363636363636" y="1167.7045454545455" type="line"/>
      <point x="692.9090909090909" y="1167.7045454545455" type="line"/>
      <point x="690.8636363636364" y="1232.9318181818182" type="line"/>
      <point x="46.97727272727273" y="202.79545454545456" type="line"/>
    </contour>
  </outline>
</glyph>
<glyph name="bracketleft" format="2">
  <advance width="696.5454545454545"/>
  <unicode hex="005B"/>
  <outline>
    <contour>
      <point x="129.20454545454544" y="-440.0" type="line"/>
      <point x="721.8636363636364" y="-440.0" type="line"/>
      <point x="721.8636363636364" y="-159.22727272727272" type="line"/>
      <point x="488.6818181818182" y="-159.22727272727272" type="line"/>
      <point x="488.6818181818182" y="1335.2272727272727" type="line"/>
      <point x="726.1818181818182" y="1335.2272727272727" type="line"/>
      <point x="726.1818181818182" y="1616.0" type="line"/>
      <point x="129.20454545454544" y="1616.0" type="line"/>
    </contour>
  </outline>
</glyph>
<glyph name="backslash" format="2">
  <advance width="776.9545454545455"/>
  <unicode hex="005C"/>
  <outline>
    <contour>
      <point x="427.0681818181818" y="-240.0" type="line"/>
      <point x="776.9545454545455" y="-240.0" type="line"/>
      <point x="349.8863636363637" y="1616.0" type="line"/>
      <point x="0.0" y="1616.0" type="line"/>
    </contour>
  </outline>
</glyph>
<glyph name="bracketright" format="2">
  <advance width="696.5454545454545"/>
  <unicode hex="005D"/>
  <outline>
    <contour>
      <point x="-25.318181818181817" y="-440.0" type="line"/>
      <point x="567.3409090909091" y="-440.0" type="line"/>
      <point x="567.3409090909091" y="1616.0" type="line"/>
      <point x="-29.636363636363637" y="1616.0" type="line"/>
      <point x="-29.636363636363637" y="1335.2272727272727" type="line"/>
      <point x="207.86363636363637" y="1335.2272727272727" type="line"/>
      <point x="207.86363636363637" y="-159.22727272727272" type="line"/>
      <point x="-25.318181818181817" y="-159.22727272727272" type="line"/>
    </contour>
  </outline>
</glyph>
<glyph name="underscore" format="2">
  <advance width="1153.3181818181818"/>
  <unicode hex="005F"/>
  <outline>
    <contour>
      <point x="83.86363636363636" y="-281.20454545454544" type="line"/>
      <point x="1069.4545454545455" y="-281.20454545454544" type="line"/>
      <point x="1069.4545454545455" y="-0.4318181818181818" type="line"/>
      <point x="83.86363636363636" y="-0.4318181818181818" type="line"/>
    </contour>
  </outline>
</glyph>
<glyph name="grave" format="2">
  <advance width="1159.090909090909"/>
  <unicode hex="0060"/>
  <anchor x="579.5454545454545" y="1200.0" name="_top"/>
  <anchor x="579.5454545454545" y="1642.3636363636363" name="top"/>
  <outline>
    <contour>
      <point x="419.1363636363636" y="1226.0" type="line"/>
      <point x="739.9545454545455" y="1226.0" type="line"/>
      <point x="525.25" y="1616.0" type="line"/>
      <point x="154.02272727272725" y="1616.0" type="line"/>
    </contour>
  </outline>
</glyph>
<glyph name="b" format="2">
  <advance width="1172.1363636363635"/>
  <unicode hex="0062"/>
  <anchor x="593.1363636363636" y="0.0" name="bottom"/>
  <anchor x="277.3636363636364" y="1616.0" name="top"/>
  <outline>
    <contour>
      <point x="512.75" y="-20.15909090909091" type="curve" smooth="yes"/>
      <point x="928.4318181818182" y="-21.454545454545453"/>
      <point x="1118.6136363636365" y="186.5681818181818"/>
      <point x="1118.6136363636365" y="568.2045454545455" type="curve" smooth="yes"/>
      <point x="1118.6136363636365" y="949.1363636363636"/>
      <point x="934.9772727272727" y="1115.0"/>
      <point x="723.2954545454545" y="1115.0" type="curve" smooth="yes"/>
      <point x="611.8409090909091" y="1115.0"/>
      <point x="526.0" y="1069.159090909091"/>
      <point x="473.25" y="989.6363636363636" type="curve"/>
      <point x="456.45454545454544" y="989.6363636363636" type="line"/>
      <point x="456.45454545454544" y="1616.0" type="line"/>
      <point x="96.97727272727272" y="1616.0" type="line"/>
      <point x="96.97727272727272" y="43.45454545454545" type="line"/>
      <point x="220.0681818181818" y="0.3863636363636367"/>
      <point x="374.4318181818182" y="-20.15909090909091"/>
    </contour>
    <contour>
      <point x="542.8181818181818" y="251.38636363636365" type="curve" smooth="yes"/>
      <point x="511.8863636363636" y="251.38636363636365"/>
      <point x="481.1363636363636" y="255.54545454545456"/>
      <point x="456.45454545454544" y="261.8409090909091" type="curve"/>
      <point x="456.45454545454544" y="779.9545454545455" type="line"/>
      <point x="487.9318181818182" y="805.2045454545455"/>
      <point x="532.5" y="817.5454545454545"/>
      <point x="574.6363636363636" y="817.5454545454545" type="curve" smooth="yes"/>
      <point x="686.1590909090909" y="817.5454545454545"/>
      <point x="754.7045454545455" y="762.0681818181818"/>
      <point x="754.7045454545455" y="538.1818181818181" type="curve" smooth="yes"/>
      <point x="754.7045454545455" y="322.27272727272725"/>
      <point x="682.75" y="251.38636363636365"/>
    </contour>
  </outline>
</glyph>
<glyph name="f" format="2">
  <advance width="774.7045454545455"/>
  <unicode hex="0066"/>
  <outline>
    <contour>
      <point x="175.72727272727272" y="0.0" type="line"/>
      <point x="531.3181818181818" y="0.0" type="line"/>
      <point x="531.3181818181818" y="1177.4772727272727" type="line" smooth="yes"/>
      <point x="531.3181818181818" y="1295.159090909091"/>
      <point x="589.0681818181818" y="1349.7727272727273"/>
      <point x="733.4772727272727" y="1349.7727272727273" type="curve" smooth="yes"/>
      <point x="765.1363636363636" y="1349.7727272727273"/>
      <point x="794.4090909090909" y="1347.4318181818182"/>
      <point x="829.9090909090909" y="1342.8181818181818" type="curve"/>
      <point x="829.9090909090909" y="1624.1363636363637" type="line"/>
      <point x="781.3636363636364" y="1632.1363636363637"/>
      <point x="729.7727272727273" y="1636.0"/>
      <point x="676.5909090909091" y="1636.0" type="curve" smooth="yes"/>
      <point x="346.72727272727275" y="1636.0"/>
      <point x="175.72727272727272" y="1458.159090909091"/>
      <point x="175.72727272727272" y="1157.5454545454545" type="curve" smooth="yes"/>
    </contour>
    <contour>
      <point x="17.545454545454547" y="816.5" type="line"/>
      <point x="785.6363636363636" y="816.5" type="line"/>
      <point x="785.6363636363636" y="1097.2727272727273" type="line"/>
      <point x="17.545454545454547" y="1097.2727272727273" type="line"/>
    </contour>
  </outline>
</glyph>
<glyph name="i" format="2">
  <advance width="554.7272727272727"/>
  <unicode hex="0069"/>
  <anchor x="277.3636363636364" y="1200.0" name="_top"/>
  <anchor x="277.3636363636364" y="0.0" name="bottom"/>
  <anchor x="457.75" y="0.0" name="ogonek"/>
  <anchor x="277.3636363636364" y="1200.0" name="top"/>
  <outline>
    <contour>
      <point x="96.97727272727272" y="0.0" type="line"/>
      <point x="457.75" y="0.0" type="line"/>
      <point x="457.75" y="1097.2727272727273" type="line"/>
      <point x="96.97727272727272" y="1097.2727272727273" type="line"/>
    </contour>
    <contour>
      <point x="277.3636363636364" y="1229.590909090909" type="curve" smooth="yes"/>
      <point x="428.22727272727275" y="1229.590909090909"/>
      <point x="496.54545454545456" y="1299.3636363636363"/>
      <point x="496.54545454545456" y="1418.5454545454545" type="curve" smooth="yes"/>
      <point x="496.54545454545456" y="1537.7272727272727"/>
      <point x="428.22727272727275" y="1607.7727272727273"/>
      <point x="277.3636363636364" y="1607.7727272727273" type="curve" smooth="yes"/>
      <point x="126.5" y="1607.7727272727273"/>
      <point x="58.18181818181819" y="1537.7272727272727"/>
      <point x="58.18181818181819" y="1418.5454545454545" type="curve" smooth="yes"/>
      <point x="58.18181818181819" y="1299.3636363636363"/>
      <point x="126.5" y="1229.590909090909"/>
    </contour>
  </outline>
</glyph>
<glyph name="j" format="2">
  <advance width="554.7272727272727"/>
  <unicode hex="006A"/>
  <anchor x="275.20454545454544" y="1200.409090909091" name="_top"/>
  <anchor x="275.20454545454544" y="1200.409090909091" name="top"/>
  <outline>
    <contour>
      <point x="186.20454545454547" y="-473.8181818181818" type="line"/>
      <point x="387.6136363636364" y="-258.1363636363636"/>
      <point x="457.75" y="-59.31818181818182"/>
      <point x="457.75" y="193.0681818181818" type="curve" smooth="yes"/>
      <point x="457.75" y="1097.2727272727273" type="line"/>
      <point x="96.97727272727272" y="1097.2727272727273" type="line"/>
      <point x="96.97727272727272" y="178.0909090909091" type="line" smooth="yes"/>
      <point x="96.97727272727272" y="-33.22727272727273"/>
      <point x="62.40909090909091" y="-163.86363636363637"/>
      <point x="-48.54545454545455" y="-318.8409090909091" type="curve"/>
    </contour>
    <contour>
      <point x="275.20454545454544" y="1230.0" type="curve" smooth="yes"/>
      <point x="426.0681818181818" y="1230.0"/>
      <point x="494.3863636363636" y="1299.7727272727273"/>
      <point x="494.3863636363636" y="1418.9545454545455" type="curve" smooth="yes"/>
      <point x="494.3863636363636" y="1538.1363636363637"/>
      <point x="426.0681818181818" y="1608.1818181818182"/>
      <point x="275.20454545454544" y="1608.1818181818182" type="curve" smooth="yes"/>
      <point x="124.3409090909091" y="1608.1818181818182"/>
      <point x="56.02272727272728" y="1538.1363636363637"/>
      <point x="56.02272727272728" y="1418.9545454545455" type="curve" smooth="yes"/>
      <point x="56.02272727272728" y="1299.7727272727273"/>
      <point x="124.3409090909091" y="1230.0"/>
    </contour>
  </outline>
</glyph>
<glyph name="l" format="2">
  <advance width="553.4318181818181"/>
  <unicode hex="006C"/>
  <anchor x="276.9318181818182" y="0.0" name="bottom"/>
  <anchor x="544.8636363636364" y="1616.0" name="caronalt"/>
  <anchor x="701.25" y="794.0" name="periodcentered"/>
  <anchor x="277.3636363636364" y="714.0" name="slash"/>
  <anchor x="277.3636363636364" y="1616.0" name="top"/>
  <outline>
    <contour>
      <point x="96.97727272727272" y="0.0" type="line"/>
      <point x="456.45454545454544" y="0.0" type="line"/>
      <point x="456.45454545454544" y="1616.0" type="line"/>
      <point x="96.97727272727272" y="1616.0" type="line"/>
    </contour>
  </outline>
</glyph>
<glyph name="m" format="2">
  <advance width="1723.659090909091"/>
  <unicode hex="006D"/>
  <anchor x="868.3863636363636" y="0.0" name="bottom"/>
  <anchor x="868.3863636363636" y="1200.0" name="top"/>
  <outline>
    <contour>
      <point x="96.97727272727272" y="0.0" type="line"/>
      <point x="456.45454545454544" y="0.0" type="line"/>
      <point x="456.45454545454544" y="736.6818181818181" type="line"/>
      <point x="487.02272727272725" y="779.25"/>
      <point x="540.6818181818182" y="801.5681818181818"/>
      <point x="588.8409090909091" y="801.5681818181818" type="curve" smooth="yes"/>
      <point x="651.3409090909091" y="801.5681818181818"/>
      <point x="691.4545454545455" y="770.3409090909091"/>
      <point x="691.4545454545455" y="670.2272727272727" type="curve" smooth="yes"/>
      <point x="691.4545454545455" y="0.0" type="line"/>
      <point x="1043.590909090909" y="0.0" type="line"/>
      <point x="1043.590909090909" y="707.0" type="line" smooth="yes"/>
      <point x="1043.590909090909" y="1003.7954545454545"/>
      <point x="901.9318181818182" y="1115.0"/>
      <point x="722.0" y="1115.0" type="curve" smooth="yes"/>
      <point x="600.2045454545455" y="1115.0"/>
      <point x="506.02272727272725" y="1071.159090909091"/>
      <point x="434.81818181818187" y="986.5454545454545" type="curve"/>
      <point x="419.04545454545456" y="986.5454545454545" type="line"/>
      <point x="394.04545454545456" y="1097.2727272727273" type="line"/>
      <point x="96.97727272727272" y="1097.2727272727273" type="line"/>
    </contour>
    <contour>
      <point x="1273.590909090909" y="0.0" type="line"/>
      <point x="1632.6363636363635" y="0.0" type="line"/>
      <point x="1632.6363636363635" y="690.1590909090909" type="line" smooth="yes"/>
      <point x="1632.6363636363635" y="1001.2045454545455"/>
      <point x="1483.75" y="1115.0"/>
      <point x="1285.4772727272727" y="1115.0" type="curve" smooth="yes"/>
      <point x="1163.8181818181818" y="1115.0"/>
      <point x="1043.7727272727273" y="1062.590909090909"/>
      <point x="961.2727272727273" y="951.2954545454545" type="curve"/>
      <point x="1026.2727272727273" y="733.0" type="line"/>
      <point x="1059.5" y="779.25"/>
      <point x="1115.2954545454545" y="801.5681818181818"/>
      <point x="1166.0454545454545" y="801.5681818181818" type="curve" smooth="yes"/>
      <point x="1228.1818181818182" y="801.5681818181818"/>
      <point x="1273.590909090909" y="770.3409090909091"/>
      <point x="1273.590909090909" y="670.2272727272727" type="curve" smooth="yes"/>
    </contour>
  </outline>
</glyph>
<glyph name="p" format="2">
  <advance width="1172.1363636363635"/>
  <unicode hex="0070"/>
  <outline>
    <contour>
      <point x="96.97727272727272" y="-440.0" type="line"/>
      <point x="456.45454545454544" y="-440.0" type="line"/>
      <point x="456.45454545454544" y="-16.59090909090909" type="line"/>
      <point x="478.5" y="-18.477272727272727"/>
      <point x="503.1136363636364" y="-20.15909090909091"/>
      <point x="528.0681818181818" y="-20.15909090909091" type="curve" smooth="yes"/>
      <point x="927.3409090909091" y="-20.15909090909091"/>
      <point x="1118.6136363636365" y="189.1590909090909"/>
      <point x="1118.6136363636365" y="568.2045454545455" type="curve" smooth="yes"/>
      <point x="1118.6136363636365" y="954.3181818181819"/>
      <point x="921.0909090909091" y="1115.0"/>
      <point x="697.5681818181818" y="1115.0" type="curve" smooth="yes"/>
      <point x="576.8636363636364" y="1115.0"/>
      <point x="489.6590909090909" y="1061.3863636363637"/>
      <point x="438.27272727272725" y="978.4545454545455" type="curve"/>
      <point x="422.5681818181818" y="978.4545454545455" type="line"/>
      <point x="399.6590909090909" y="1097.2727272727273" type="line"/>
      <point x="96.97727272727272" y="1097.2727272727273" type="line"/>
    </contour>
    <contour>
      <point x="541.7954545454545" y="251.81818181818184" type="curve" smooth="yes"/>
      <point x="515.7727272727273" y="251.81818181818184"/>
      <point x="481.1363636363636" y="255.4318181818182"/>
      <point x="456.45454545454544" y="259.52272727272725" type="curve"/>
      <point x="456.45454545454544" y="773.0909090909091" type="line"/>
      <point x="488.3636363636364" y="803.4772727272727"/>
      <point x="536.3181818181819" y="818.8409090909091"/>
      <point x="582.3636363636364" y="818.8409090909091" type="curve" smooth="yes"/>
      <point x="685.7272727272727" y="818.8409090909091"/>
      <point x="754.7045454545455" y="763.3636363636364"/>
      <point x="754.7045454545455" y="538.6136363636364" type="curve" smooth="yes"/>
      <point x="754.7045454545455" y="322.70454545454544"/>
      <point x="682.75" y="251.81818181818184"/>
    </contour>
  </outline>
</glyph>
<glyph name="q" format="2">
  <advance width="1172.1363636363635"/>
  <unicode hex="0071"/>
  <outline>
    <contour>
      <point x="715.6818181818181" y="-440.0" type="line"/>
      <point x="1075.159090909091" y="-440.0" type="line"/>
      <point x="1075.159090909091" y="1051.3863636363637" type="line"/>
      <point x="956.3636363636364" y="1092.9545454545455"/>
      <point x="797.7045454545455" y="1115.0"/>
      <point x="659.3863636363636" y="1115.0" type="curve" smooth="yes"/>
      <point x="243.70454545454547" y="1115.0"/>
      <point x="53.52272727272727" y="908.2727272727273"/>
      <point x="53.52272727272727" y="526.6363636363636" type="curve" smooth="yes"/>
      <point x="53.52272727272727" y="145.70454545454544"/>
      <point x="237.1590909090909" y="-20.15909090909091"/>
      <point x="448.84090909090907" y="-20.15909090909091" type="curve" smooth="yes"/>
      <point x="560.2954545454545" y="-20.15909090909091"/>
      <point x="646.1363636363636" y="25.68181818181818"/>
      <point x="698.8863636363636" y="105.20454545454545" type="curve"/>
      <point x="715.6818181818181" y="105.20454545454545" type="line"/>
    </contour>
    <contour>
      <point x="597.5" y="277.29545454545456" type="curve" smooth="yes"/>
      <point x="485.97727272727275" y="277.29545454545456"/>
      <point x="417.4318181818182" y="332.77272727272725"/>
      <point x="417.4318181818182" y="556.6590909090909" type="curve" smooth="yes"/>
      <point x="417.4318181818182" y="772.5681818181818"/>
      <point x="493.7045454545455" y="843.4545454545455"/>
      <point x="628.0227272727273" y="843.4545454545455" type="curve" smooth="yes"/>
      <point x="659.3863636363636" y="843.4545454545455"/>
      <point x="691.0" y="839.3636363636364"/>
      <point x="715.6818181818181" y="834.6363636363636" type="curve"/>
      <point x="715.6818181818181" y="314.8863636363636" type="line"/>
      <point x="684.2045454545455" y="289.6363636363636"/>
      <point x="639.5" y="277.29545454545456"/>
    </contour>
  </outline>
</glyph>
<glyph name="s" format="2">
  <advance width="920.409090909091"/>
  <unicode hex="0073"/>
  <anchor x="460.29545454545456" y="0.0" name="bottom"/>
  <anchor x="460.29545454545456" y="1200.0" name="top"/>
  <outline>
    <contour>
      <point x="408.25" y="-21.454545454545453" type="curve" smooth="yes"/>
      <point x="706.8636363636364" y="-21.454545454545453"/>
      <point x="887.2727272727273" y="116.45454545454545"/>
      <point x="887.2727272727273" y="341.6136363636364" type="curve" smooth="yes"/>
      <point x="887.2727272727273" y="534.7045454545455"/>
      <point x="789.0" y="623.2272727272727"/>
      <point x="611.3636363636364" y="660.7045454545455" type="curve" smooth="yes"/>
      <point x="441.70454545454544" y="695.4772727272727" type="line" smooth="yes"/>
      <point x="391.9090909090909" y="706.5227272727273"/>
      <point x="371.6590909090909" y="724.4318181818181"/>
      <point x="371.6590909090909" y="759.2045454545455" type="curve" smooth="yes"/>
      <point x="371.6590909090909" y="802.9545454545455"/>
      <point x="409.0" y="844.75"/>
      <point x="564.5" y="844.75" type="curve" smooth="yes"/>
      <point x="659.2954545454545" y="844.75"/>
      <point x="747.7272727272727" y="833.0"/>
      <point x="826.5" y="811.5681818181818" type="curve"/>
      <point x="826.5" y="1082.5227272727273" type="line"/>
      <point x="749.4318181818182" y="1102.1136363636363"/>
      <point x="652.2045454545455" y="1115.0"/>
      <point x="549.3863636363636" y="1115.0" type="curve" smooth="yes"/>
      <point x="210.27272727272728" y="1115.0"/>
      <point x="42.5" y="972.7272727272727"/>
      <point x="42.5" y="755.7045454545455" type="curve" smooth="yes"/>
      <point x="42.5" y="573.6818181818182"/>
      <point x="135.20454545454547" y="471.6136363636364"/>
      <point x="319.1818181818182" y="434.3409090909091" type="curve" smooth="yes"/>
      <point x="488.8409090909091" y="399.5681818181818" type="line" smooth="yes"/>
      <point x="538.5" y="388.52272727272725"/>
      <point x="558.1136363636364" y="370.54545454545456"/>
      <point x="558.1136363636364" y="331.4318181818182" type="curve" smooth="yes"/>
      <point x="558.1136363636364" y="281.0"/>
      <point x="519.3409090909091" y="248.79545454545456"/>
      <point x="401.54545454545456" y="248.79545454545456" type="curve" smooth="yes"/>
      <point x="285.77272727272725" y="248.79545454545456"/>
      <point x="172.04545454545453" y="266.77272727272725"/>
      <point x="75.9090909090909" y="297.6363636363636" type="curve"/>
      <point x="75.9090909090909" y="26.68181818181818" type="line"/>
      <point x="175.9318181818182" y="-6.2272727272727275"/>
      <point x="289.3863636363636" y="-21.454545454545453"/>
    </contour>
  </outline>
</glyph>
<glyph name="v" format="2">
  <advance width="1115.2045454545455"/>
  <unicode hex="0076"/>
  <anchor x="557.7727272727273" y="0.0" name="bottom"/>
  <anchor x="557.7727272727273" y="1200.0" name="top"/>
  <outline>
    <contour>
      <point x="328.84090909090907" y="0.0" type="line"/>
      <point x="785.9318181818182" y="0.0" type="line"/>
      <point x="1122.1818181818182" y="1097.2727272727273" type="line"/>
      <point x="768.2954545454545" y="1097.2727272727273" type="line"/>
      <point x="553.75" y="290.6363636363636" type="line"/>
      <point x="579.7954545454545" y="290.6363636363636" type="line"/>
      <point x="365.25" y="1097.2727272727273" type="line"/>
      <point x="-6.977272727272727" y="1097.2727272727273" type="line"/>
    </contour>
  </outline>
</glyph>
<glyph name="x" format="2">
  <advance width="1091.9318181818182"/>
  <unicode hex="0078"/>
  <anchor x="546.1363636363636" y="0.0" name="bottom"/>
  <anchor x="547.4318181818182" y="1200.0" name="top"/>
  <outline>
    <contour>
      <point x="725.0909090909091" y="0.0" type="line"/>
      <point x="1115.9772727272727" y="0.0" type="line"/>
      <point x="757.5" y="556.7954545454545" type="line"/>
      <point x="550.0227272727273" y="813.7954545454545" type="line"/>
      <point x="375.7045454545455" y="1097.2727272727273" type="line"/>
      <point x="-15.18181818181818" y="1097.2727272727273" type="line"/>
      <point x="332.34090909090907" y="552.6363636363636" type="line"/>
      <point x="543.7045454545455" y="298.4318181818182" type="line"/>
    </contour>
    <contour>
      <point x="-21.545454545454547" y="0.0" type="line"/>
      <point x="358.3409090909091" y="0.0" type="line"/>
      <point x="543.7045454545455" y="298.4318181818182" type="line"/>
      <point x="757.5" y="556.7954545454545" type="line"/>
      <point x="1102.8636363636365" y="1097.2727272727273" type="line"/>
      <point x="723.1136363636364" y="1097.2727272727273" type="line"/>
      <point x="550.0227272727273" y="813.7954545454545" type="line"/>
      <point x="332.34090909090907" y="552.6363636363636" type="line"/>
    </contour>
  </outline>
</glyph>
<glyph name="y" format="2">
  <advance width="1115.2045454545455"/>
  <unicode hex="0079"/>
  <anchor x="970.9772727272727" y="0.0" name="bottom"/>
  <anchor x="557.7727272727273" y="1200.0" name="top"/>
  <outline>
    <contour>
      <point x="298.95454545454544" y="-440.0" type="line"/>
      <point x="649.9090909090909" y="-440.0" type="line"/>
      <point x="1122.1818181818182" y="1097.2727272727273" type="line"/>
      <point x="768.2954545454545" y="1097.2727272727273" type="line"/>
      <point x="553.75" y="290.6363636363636" type="line"/>
      <point x="435.6136363636364" y="0.0" type="line"/>
    </contour>
    <contour>
      <point x="328.84090909090907" y="0.0" type="line"/>
      <point x="653.6136363636364" y="0.0" type="line"/>
      <point x="365.25" y="1097.2727272727273" type="line"/>
      <point x="-6.977272727272727" y="1097.2727272727273" type="line"/>
    </contour>
  </outline>
</glyph>
<glyph name="braceleft" format="2">
  <advance width="736.5454545454545"/>
  <unicode hex="007B"/>
  <outline>
    <contour>
      <point x="587.0227272727273" y="-460.0" type="curve" smooth="yes"/>
      <point x="656.5" y="-460.0"/>
      <point x="715.0227272727273" y="-454.27272727272725"/>
      <point x="766.1818181818182" y="-446.54545454545456" type="curve"/>
      <point x="766.1818181818182" y="-173.77272727272725" type="line"/>
      <point x="649.5227272727273" y="-173.77272727272725" type="line" smooth="yes"/>
      <point x="569.9090909090909" y="-173.77272727272725"/>
      <point x="528.6818181818182" y="-141.5681818181818"/>
      <point x="528.6818181818182" y="-65.3409090909091" type="curve" smooth="yes"/>
      <point x="528.6818181818182" y="359.0909090909091" type="line" smooth="yes"/>
      <point x="528.6818181818182" y="545.5454545454545"/>
      <point x="434.3181818181818" y="648.6363636363636"/>
      <point x="176.8181818181818" y="652.1818181818181" type="curve"/>
      <point x="176.8181818181818" y="609.0909090909091" type="line"/>
      <point x="434.3181818181818" y="612.6363636363636"/>
      <point x="528.6818181818182" y="715.7272727272727"/>
      <point x="528.6818181818182" y="902.1818181818181" type="curve" smooth="yes"/>
      <point x="528.6818181818182" y="1241.340909090909" type="line" smooth="yes"/>
      <point x="528.6818181818182" y="1317.5681818181818"/>
      <point x="569.9090909090909" y="1349.7727272727273"/>
      <point x="649.5227272727273" y="1349.7727272727273" type="curve" smooth="yes"/>
      <point x="766.1818181818182" y="1349.7727272727273" type="line"/>
      <point x="766.1818181818182" y="1622.5454545454545" type="line"/>
      <point x="715.0227272727273" y="1630.2727272727273"/>
      <point x="656.5" y="1636.0"/>
      <point x="587.0227272727273" y="1636.0" type="curve" smooth="yes"/>
      <point x="310.04545454545456" y="1636.0"/>
      <point x="169.20454545454544" y="1500.3863636363637"/>
      <point x="169.20454545454544" y="1245.5" type="curve" smooth="yes"/>
      <point x="169.20454545454544" y="885.9545454545455" type="line" smooth="yes"/>
      <point x="169.20454545454544" y="814.6590909090909"/>
      <point x="124.47727272727272" y="771.0227272727273"/>
      <point x="54.54545454545455" y="771.0227272727273" type="curve" smooth="yes"/>
      <point x="-2.8863636363636402" y="771.0227272727273" type="line"/>
      <point x="-2.8863636363636402" y="490.25" type="line"/>
      <point x="54.54545454545455" y="490.25" type="line" smooth="yes"/>
      <point x="124.47727272727272" y="490.25"/>
      <point x="169.20454545454544" y="446.6136363636364"/>
      <point x="169.20454545454544" y="375.3181818181818" type="curve" smooth="yes"/>
      <point x="169.20454545454544" y="-69.5" type="line" smooth="yes"/>
      <point x="169.20454545454544" y="-324.3863636363636"/>
      <point x="310.04545454545456" y="-460.0"/>
    </contour>
  </outline>
</glyph>
<glyph name="bar" format="2">
  <advance width="538.5909090909091"/>
  <unicode hex="007C"/>
  <outline>
    <contour>
      <point x="109.20454545454545" y="-440.0" type="line"/>
      <point x="429.3863636363636" y="-440.0" type="line"/>
      <point x="429.3863636363636" y="1616.0" type="line"/>
      <point x="109.20454545454545" y="1616.0" type="line"/>
    </contour>
  </outline>
</glyph>
<glyph name="braceright" format="2">
  <advance width="736.5454545454545"/>
  <unicode hex="007D"/>
  <outline>
    <contour>
      <point x="149.52272727272725" y="-460.0" type="curve" smooth="yes"/>
      <point x="426.5" y="-460.0"/>
      <point x="567.3409090909091" y="-324.3863636363636"/>
      <point x="567.3409090909091" y="-69.5" type="curve" smooth="yes"/>
      <point x="567.3409090909091" y="375.3181818181818" type="line" smooth="yes"/>
      <point x="567.3409090909091" y="446.6136363636364"/>
      <point x="612.0681818181818" y="490.25"/>
      <point x="682.0" y="490.25" type="curve" smooth="yes"/>
      <point x="739.4318181818182" y="490.25" type="line"/>
      <point x="739.4318181818182" y="771.0227272727273" type="line"/>
      <point x="682.0" y="771.0227272727273" type="line" smooth="yes"/>
      <point x="612.0681818181818" y="771.0227272727273"/>
      <point x="567.3409090909091" y="814.6590909090909"/>
      <point x="567.3409090909091" y="885.9545454545455" type="curve" smooth="yes"/>
      <point x="567.3409090909091" y="1245.5" type="line" smooth="yes"/>
      <point x="567.3409090909091" y="1500.3863636363637"/>
      <point x="426.5" y="1636.0"/>
      <point x="149.52272727272725" y="1636.0" type="curve" smooth="yes"/>
      <point x="80.04545454545455" y="1636.0"/>
      <point x="21.522727272727273" y="1630.2727272727273"/>
      <point x="-29.636363636363637" y="1622.5454545454545" type="curve"/>
      <point x="-29.636363636363637" y="1349.7727272727273" type="line"/>
      <point x="87.02272727272727" y="1349.7727272727273" type="line" smooth="yes"/>
      <point x="166.63636363636363" y="1349.7727272727273"/>
      <point x="207.86363636363637" y="1317.5681818181818"/>
      <point x="207.86363636363637" y="1241.340909090909" type="curve" smooth="yes"/>
      <point x="207.86363636363637" y="902.1818181818181" type="line" smooth="yes"/>
      <point x="207.86363636363637" y="715.7272727272727"/>
      <point x="306.1136363636364" y="612.6363636363636"/>
      <point x="559.7272727272727" y="609.0909090909091" type="curve"/>
      <point x="559.7272727272727" y="652.1818181818181" type="line"/>
      <point x="306.1136363636364" y="648.6363636363636"/>
      <point x="207.86363636363637" y="545.5454545454545"/>
      <point x="207.86363636363637" y="359.0909090909091" type="curve" smooth="yes"/>
      <point x="207.86363636363637" y="-65.3409090909091" type="line" smooth="yes"/>
      <point x="207.86363636363637" y="-141.5681818181818"/>
      <point x="166.63636363636363" y="-173.77272727272725"/>
      <point x="87.02272727272727" y="-173.77272727272725" type="curve" smooth="yes"/>
      <point x="-29.636363636363637" y="-173.77272727272725" type="line"/>
      <point x="-29.636363636363637" y="-446.54545454545456" type="line"/>
      <point x="21.522727272727273" y="-454.27272727272725"/>
      <point x="80.04545454545455" y="-460.0"/>
    </contour>
  </outline>
</glyph>
<glyph name="asciitilde" format="2">
  <advance width="1070.9545454545455"/>
  <unicode hex="007E"/>
  <outline>
    <contour>
      <point x="732.5227272727273" y="564.6818181818182" type="curve" smooth="yes"/>
      <point x="836.8636363636364" y="564.6818181818182"/>
      <point x="910.3181818181819" y="594.9545454545455"/>
      <point x="974.6136363636364" y="665.0454545454545" type="curve"/>
      <point x="974.6136363636364" y="945.6818181818181" type="line"/>
      <point x="898.1590909090909" y="868.5"/>
      <point x="827.6818181818182" y="835.9545454545455"/>
      <point x="735.7045454545455" y="835.9545454545455" type="curve" smooth="yes"/>
      <point x="610.1136363636364" y="835.9545454545455"/>
      <point x="494.6136363636364" y="953.6818181818181"/>
      <point x="338.4318181818182" y="953.6818181818181" type="curve" smooth="yes"/>
      <point x="234.0909090909091" y="953.6818181818181"/>
      <point x="160.63636363636363" y="923.4090909090909"/>
      <point x="96.3409090909091" y="853.3181818181818" type="curve"/>
      <point x="96.3409090909091" y="572.6818181818182" type="line"/>
      <point x="172.79545454545453" y="649.8636363636364"/>
      <point x="243.27272727272728" y="682.4090909090909"/>
      <point x="335.25" y="682.4090909090909" type="curve" smooth="yes"/>
      <point x="460.84090909090907" y="682.4090909090909"/>
      <point x="576.3409090909091" y="564.6818181818182"/>
    </contour>
  </outline>
</glyph>
<glyph name="exclamdown" format="2">
  <advance width="594.8636363636364"/>
  <unicode hex="00A1"/>
  <outline>
    <contour>
      <point x="189.6590909090909" y="578.3181818181819" type="line"/>
      <point x="105.11363636363636" y="107.52272727272728" type="line"/>
      <point x="105.11363636363636" y="-380.0" type="line"/>
      <point x="489.75" y="-380.0" type="line"/>
      <point x="489.75" y="107.52272727272728" type="line"/>
      <point x="409.0909090909091" y="578.3181818181819" type="line"/>
    </contour>
    <contour>
      <point x="297.4318181818182" y="1115.909090909091" type="curve" smooth="yes"/>
      <point x="159.95454545454547" y="1115.909090909091"/>
      <point x="67.02272727272728" y="1031.8863636363637"/>
      <point x="67.02272727272728" y="895.4318181818181" type="curve" smooth="yes"/>
      <point x="67.02272727272728" y="758.9772727272727"/>
      <point x="156.5" y="674.6818181818182"/>
      <point x="297.4318181818182" y="674.6818181818182" type="curve" smooth="yes"/>
      <point x="438.3636363636364" y="674.6818181818182"/>
      <point x="527.8409090909091" y="762.4318181818182"/>
      <point x="527.8409090909091" y="895.4318181818181" type="curve" smooth="yes"/>
      <point x="527.8409090909091" y="1028.4318181818182"/>
      <point x="434.9090909090909" y="1115.909090909091"/>
    </contour>
  </outline>
</glyph>
<glyph name="cent" format="2">
  <advance width="911.6136363636364"/>
  <unicode hex="00A2"/>
  <outline>
    <contour>
      <point x="606.2045454545455" y="-21.454545454545453" type="curve" smooth="yes"/>
      <point x="696.0909090909091" y="-21.454545454545453"/>
      <point x="789.1363636363636" y="-7.954545454545455"/>
      <point x="866.0227272727273" y="16.863636363636363" type="curve"/>
      <point x="866.0227272727273" y="303.3636363636364" type="line"/>
      <point x="790.5681818181818" y="282.0909090909091"/>
      <point x="732.5454545454545" y="271.6818181818182"/>
      <point x="674.5909090909091" y="271.6818181818182" type="curve" smooth="yes"/>
      <point x="509.02272727272725" y="271.6818181818182"/>
      <point x="425.6363636363636" y="343.52272727272725"/>
      <point x="425.6363636363636" y="550.9090909090909" type="curve" smooth="yes"/>
      <point x="425.6363636363636" y="745.0909090909091"/>
      <point x="507.8863636363636" y="821.8636363636364"/>
      <point x="699.3636363636364" y="821.8636363636364" type="curve" smooth="yes"/>
      <point x="754.0681818181818" y="821.8636363636364"/>
      <point x="809.4090909090909" y="816.4545454545455"/>
      <point x="866.0227272727273" y="806.8863636363636" type="curve"/>
      <point x="866.0227272727273" y="1093.3863636363637" type="line"/>
      <point x="795.9772727272727" y="1107.9318181818182"/>
      <point x="722.2045454545455" y="1115.0"/>
      <point x="640.25" y="1115.0" type="curve" smooth="yes"/>
      <point x="274.4318181818182" y="1115.0"/>
      <point x="53.52272727272727" y="941.25"/>
      <point x="53.52272727272727" y="546.4772727272727" type="curve" smooth="yes"/>
      <point x="53.52272727272727" y="160.70454545454547"/>
      <point x="250.8409090909091" y="-21.454545454545453"/>
    </contour>
    <contour>
      <point x="422.20454545454544" y="-240.0" type="line"/>
      <point x="724.5681818181819" y="-240.0" type="line"/>
      <point x="724.5681818181819" y="51.81818181818182" type="line"/>
      <point x="422.20454545454544" y="51.81818181818182" type="line"/>
    </contour>
    <contour>
      <point x="422.20454545454544" y="1045.4545454545455" type="line"/>
      <point x="724.5681818181819" y="1045.4545454545455" type="line"/>
      <point x="724.5681818181819" y="1337.2727272727273" type="line"/>
      <point x="422.20454545454544" y="1337.2727272727273" type="line"/>
    </contour>
  </outline>
</glyph>
<glyph name="sterling" format="2">
  <advance width="1277.9318181818182"/>
  <unicode hex="00A3"/>
  <outline>
    <contour>
      <point x="239.6818181818182" y="111.45454545454545" type="line"/>
      <point x="597.0" y="111.45454545454545" type="line"/>
      <point x="597.0" y="1015.3636363636364" type="line" smooth="yes"/>
      <point x="597.0" y="1144.5227272727273"/>
      <point x="668.4545454545455" y="1200.1136363636363"/>
      <point x="898.9318181818182" y="1200.1136363636363" type="curve" smooth="yes"/>
      <point x="992.0681818181818" y="1200.1136363636363"/>
      <point x="1105.8863636363635" y="1186.3863636363635"/>
      <point x="1192.3181818181818" y="1163.2272727272727" type="curve"/>
      <point x="1192.3181818181818" y="1463.1136363636363" type="line"/>
      <point x="1104.1818181818182" y="1484.9318181818182"/>
      <point x="987.3181818181819" y="1499.7272727272727"/>
      <point x="869.4772727272727" y="1499.7272727272727" type="curve" smooth="yes"/>
      <point x="443.1363636363636" y="1499.7272727272727"/>
      <point x="239.6818181818182" y="1322.1136363636363"/>
      <point x="239.6818181818182" y="1003.2727272727273" type="curve" smooth="yes"/>
    </contour>
    <contour>
      <point x="62.72727272727273" y="0.0" type="line"/>
      <point x="1231.9318181818182" y="0.0" type="line"/>
      <point x="1231.9318181818182" y="300.6363636363636" type="line"/>
      <point x="62.72727272727273" y="300.6363636363636" type="line"/>
    </contour>
    <contour>
      <point x="62.72727272727273" y="613.9318181818182" type="line"/>
      <point x="1015.7272727272727" y="613.9318181818182" type="line"/>
      <point x="1015.7272727272727" y="886.0681818181818" type="line"/>
      <point x="62.72727272727273" y="886.0681818181818" type="line"/>
    </contour>
  </outline>
</glyph>
<glyph name="yen" format="2">
  <advance width="1248.1136363636365"/>
  <unicode hex="00A5"/>
  <outline>
    <contour>
      <point x="442.59090909090907" y="0.0" type="line"/>
      <point x="808.5454545454545" y="0.0" type="line"/>
      <point x="808.5454545454545" y="762.7727272727273" type="line"/>
      <point x="734.5454545454545" y="487.47727272727275" type="line"/>
      <point x="1298.5" y="1480.0" type="line"/>
      <point x="943.2727272727273" y="1480.0" type="line"/>
      <point x="586.3863636363636" y="850.25" type="line"/>
      <point x="683.8863636363636" y="850.25" type="line"/>
      <point x="326.3409090909091" y="1480.0" type="line"/>
      <point x="-58.59090909090908" y="1480.0" type="line"/>
      <point x="516.5909090909091" y="487.47727272727275" type="line"/>
      <point x="442.59090909090907" y="767.9545454545455" type="line"/>
    </contour>
    <contour>
      <point x="141.22727272727272" y="254.79545454545456" type="line"/>
      <point x="1109.909090909091" y="254.79545454545456" type="line"/>
      <point x="1109.909090909091" y="469.0681818181818" type="line"/>
      <point x="141.22727272727272" y="469.0681818181818" type="line"/>
    </contour>
    <contour>
      <point x="141.22727272727272" y="578.9318181818181" type="line"/>
      <point x="1109.909090909091" y="578.9318181818181" type="line"/>
      <point x="1109.909090909091" y="793.2045454545455" type="line"/>
      <point x="141.22727272727272" y="793.2045454545455" type="line"/>
    </contour>
  </outline>
</glyph>
<glyph name="brokenbar" format="2">
  <advance width="538.5909090909091"/>
  <unicode hex="00A6"/>
  <outline>
    <contour>
      <point x="109.20454545454545" y="836.0" type="line"/>
      <point x="429.3863636363636" y="836.0" type="line"/>
      <point x="429.3863636363636" y="1616.0" type="line"/>
      <point x="109.20454545454545" y="1616.0" type="line"/>
    </contour>
    <contour>
      <point x="109.20454545454545" y="-440.0" type="line"/>
      <point x="429.3863636363636" y="-440.0" type="line"/>
      <point x="429.3863636363636" y="340.0" type="line"/>
      <point x="109.20454545454545" y="340.0" type="line"/>
    </contour>
  </outline>
</glyph>
<glyph name="section" format="2">
  <advance width="1050.3636363636363"/>
  <unicode hex="00A7"/>
  <outline>
    <contour>
      <point x="440.8409090909091" y="-21.454545454545453" type="curve" smooth="yes"/>
      <point x="757.1590909090909" y="-21.454545454545453"/>
      <point x="933.25" y="116.45454545454545"/>
      <point x="933.25" y="333.8409090909091" type="curve" smooth="yes"/>
      <point x="933.25" y="492.8181818181818"/>
      <point x="836.2727272727273" y="575.8863636363636"/>
      <point x="665.1136363636364" y="614.2272727272727" type="curve" smooth="yes"/>
      <point x="456.5909090909091" y="658.5" type="line" smooth="yes"/>
      <point x="386.0681818181818" y="674.7272727272727"/>
      <point x="363.1136363636364" y="707.1590909090909"/>
      <point x="363.1136363636364" y="758.3409090909091" type="curve" smooth="yes"/>
      <point x="363.1136363636364" y="805.0"/>
      <point x="382.8636363636364" y="839.6363636363636"/>
      <point x="426.1136363636364" y="887.4772727272727" type="curve"/>
      <point x="236.13636363636363" y="1010.8636363636364" type="line"/>
      <point x="137.5909090909091" y="950.1590909090909"/>
      <point x="72.5" y="863.25"/>
      <point x="72.5" y="741.8863636363636" type="curve" smooth="yes"/>
      <point x="72.5" y="558.5681818181819"/>
      <point x="175.5681818181818" y="465.3636363636364"/>
      <point x="331.04545454545456" y="430.45454545454544" type="curve" smooth="yes"/>
      <point x="539.1363636363636" y="385.3181818181818" type="line" smooth="yes"/>
      <point x="587.5" y="374.27272727272725"/>
      <point x="608.8409090909091" y="355.4318181818182"/>
      <point x="608.8409090909091" y="315.45454545454544" type="curve" smooth="yes"/>
      <point x="608.8409090909091" y="266.31818181818187"/>
      <point x="571.3636363636364" y="232.8181818181818"/>
      <point x="436.72727272727275" y="232.8181818181818" type="curve" smooth="yes"/>
      <point x="331.75" y="232.8181818181818"/>
      <point x="223.63636363636363" y="246.47727272727272"/>
      <point x="126.20454545454545" y="273.02272727272725" type="curve"/>
      <point x="126.20454545454545" y="18.477272727272727" type="line"/>
      <point x="226.22727272727272" y="-8.386363636363637"/>
      <point x="339.6818181818182" y="-21.454545454545453"/>
    </contour>
    <contour>
      <point x="799.659090909091" y="458.70454545454544" type="line"/>
      <point x="905.6363636363636" y="520.9318181818181"/>
      <point x="977.8636363636364" y="610.9545454545455"/>
      <point x="977.8636363636364" y="740.3181818181818" type="curve" smooth="yes"/>
      <point x="977.8636363636364" y="925.6363636363636"/>
      <point x="880.8863636363636" y="1014.1590909090909"/>
      <point x="720.5227272727273" y="1049.0454545454545" type="curve" smooth="yes"/>
      <point x="508.1136363636364" y="1092.4545454545455" type="line" smooth="yes"/>
      <point x="459.6136363636364" y="1103.5"/>
      <point x="437.2045454545455" y="1121.840909090909"/>
      <point x="437.2045454545455" y="1157.909090909091" type="curve" smooth="yes"/>
      <point x="437.2045454545455" y="1200.7954545454545"/>
      <point x="477.1363636363636" y="1243.4545454545455"/>
      <point x="655.5227272727273" y="1243.4545454545455" type="curve" smooth="yes"/>
      <point x="735.2045454545455" y="1243.4545454545455"/>
      <point x="812.8409090909091" y="1236.4545454545455"/>
      <point x="892.4772727272727" y="1218.909090909091" type="curve"/>
      <point x="892.4772727272727" y="1473.4545454545455" type="line"/>
      <point x="815.4090909090909" y="1488.7272727272727"/>
      <point x="722.5" y="1497.7272727272727"/>
      <point x="629.1818181818182" y="1497.7272727272727" type="curve" smooth="yes"/>
      <point x="272.3636363636364" y="1497.7272727272727"/>
      <point x="112.79545454545455" y="1355.4545454545455"/>
      <point x="112.79545454545455" y="1139.7272727272727" type="curve" smooth="yes"/>
      <point x="112.79545454545455" y="991.3863636363636"/>
      <point x="214.13636363636363" y="900.6136363636364"/>
      <point x="386.45454545454544" y="863.5454545454545" type="curve" smooth="yes"/>
      <point x="594.5454545454545" y="819.2727272727273" type="line" smooth="yes"/>
      <point x="664.9318181818182" y="803.0454545454545"/>
      <point x="687.25" y="770.1136363636364"/>
      <point x="687.25" y="721.5" type="curve" smooth="yes"/>
      <point x="687.25" y="678.8636363636364"/>
      <point x="668.3636363636364" y="647.2954545454545"/>
      <point x="604.2045454545455" y="595.4772727272727" type="curve"/>
    </contour>
  </outline>
</glyph>
<glyph name="copyright" format="2">
  <advance width="1634.0454545454545"/>
  <unicode hex="00A9"/>
  <outline>
    <contour>
      <point x="817.0227272727273" y="-22.0" type="curve" smooth="yes"/>
      <point x="1268.2045454545455" y="-22.0"/>
      <point x="1566.2045454545455" y="282.0"/>
      <point x="1566.2045454545455" y="740.0" type="curve" smooth="yes"/>
      <point x="1566.2045454545455" y="1198.0"/>
      <point x="1268.2045454545455" y="1502.0"/>
      <point x="817.0227272727273" y="1502.0" type="curve" smooth="yes"/>
      <point x="365.84090909090907" y="1502.0"/>
      <point x="67.8409090909091" y="1198.0"/>
      <point x="67.8409090909091" y="740.0" type="curve" smooth="yes"/>
      <point x="67.8409090909091" y="282.0"/>
      <point x="365.84090909090907" y="-22.0"/>
    </contour>
    <contour>
      <point x="882.1136363636364" y="324.0" type="curve" smooth="yes"/>
      <point x="963.5681818181819" y="324.0"/>
      <point x="1035.5681818181818" y="336.0"/>
      <point x="1088.0227272727273" y="355.6363636363636" type="curve"/>
      <point x="1088.0227272727273" y="580.5454545454545" type="line"/>
      <point x="1009.4772727272727" y="560.6363636363636"/>
      <point x="963.3863636363636" y="554.0909090909091"/>
      <point x="907.1136363636364" y="554.0909090909091" type="curve" smooth="yes"/>
      <point x="783.6590909090909" y="554.0909090909091"/>
      <point x="713.4772727272727" y="615.7272727272727"/>
      <point x="713.4772727272727" y="732.8181818181819" type="curve" smooth="yes"/>
      <point x="713.4772727272727" y="850.8181818181818"/>
      <point x="778.4772727272727" y="913.9090909090909"/>
      <point x="920.4772727272727" y="913.9090909090909" type="curve" smooth="yes"/>
      <point x="978.3863636363636" y="913.9090909090909"/>
      <point x="1027.75" y="907.3636363636364"/>
      <point x="1088.0227272727273" y="896.2727272727273" type="curve"/>
      <point x="1088.0227272727273" y="1121.1818181818182" type="line"/>
      <point x="1030.9318181818182" y="1136.0"/>
      <point x="969.2045454545455" y="1144.0"/>
      <point x="896.0227272727273" y="1144.0" type="curve" smooth="yes"/>
      <point x="618.2045454545455" y="1144.0"/>
      <point x="444.5681818181818" y="992.5454545454545"/>
      <point x="444.5681818181818" y="732.2727272727273" type="curve" smooth="yes"/>
      <point x="444.5681818181818" y="472.3636363636364"/>
      <point x="615.8409090909091" y="324.0"/>
    </contour>
    <contour>
      <point x="817.0227272727273" y="170.36363636363637" type="curve" smooth="yes"/>
      <point x="469.75" y="170.36363636363637"/>
      <point x="268.8409090909091" y="389.3636363636364"/>
      <point x="268.8409090909091" y="740.0" type="curve" smooth="yes"/>
      <point x="268.8409090909091" y="1090.6363636363637"/>
      <point x="469.75" y="1309.6363636363637"/>
      <point x="817.0227272727273" y="1309.6363636363637" type="curve" smooth="yes"/>
      <point x="1164.2954545454545" y="1309.6363636363637"/>
      <point x="1365.2045454545455" y="1090.6363636363637"/>
      <point x="1365.2045454545455" y="740.0" type="curve" smooth="yes"/>
      <point x="1365.2045454545455" y="389.3636363636364"/>
      <point x="1164.2954545454545" y="170.36363636363637"/>
    </contour>
  </outline>
</glyph>
<glyph name="ordfeminine" format="2">
  <advance width="891.1818181818182"/>
  <unicode hex="00AA"/>
  <outline>
    <contour>
      <point x="301.65909090909093" y="592.5454545454545" type="curve" smooth="yes"/>
      <point x="389.6136363636364" y="592.5454545454545"/>
      <point x="469.72727272727275" y="621.0227272727273"/>
      <point x="514.1818181818181" y="696.6136363636364" type="curve"/>
      <point x="529.25" y="696.6136363636364" type="line"/>
      <point x="553.3863636363636" y="610.0" type="line"/>
      <point x="826.5909090909091" y="610.0" type="line"/>
      <point x="826.5909090909091" y="1110.6363636363635" type="line" smooth="yes"/>
      <point x="826.5909090909091" y="1398.6818181818182"/>
      <point x="695.6818181818182" y="1500.6363636363637"/>
      <point x="393.3636363636364" y="1500.6363636363637" type="curve" smooth="yes"/>
      <point x="297.70454545454544" y="1500.6363636363637"/>
      <point x="187.1818181818182" y="1488.3636363636363"/>
      <point x="96.0" y="1465.4545454545455" type="curve"/>
      <point x="96.0" y="1217.9318181818182" type="line"/>
      <point x="168.9318181818182" y="1238.159090909091"/>
      <point x="251.95454545454544" y="1249.5"/>
      <point x="324.22727272727275" y="1249.5" type="curve" smooth="yes"/>
      <point x="463.9090909090909" y="1249.5"/>
      <point x="497.02272727272725" y="1216.1818181818182"/>
      <point x="497.02272727272725" y="1147.3181818181818" type="curve" smooth="yes"/>
      <point x="497.02272727272725" y="839.3636363636364" type="line"/>
      <point x="477.54545454545456" y="823.6136363636364"/>
      <point x="451.0681818181818" y="818.2045454545455"/>
      <point x="430.6363636363636" y="818.2045454545455" type="curve" smooth="yes"/>
      <point x="378.4090909090909" y="818.2045454545455"/>
      <point x="345.52272727272725" y="843.2272727272727"/>
      <point x="345.52272727272725" y="898.2727272727273" type="curve" smooth="yes"/>
      <point x="345.52272727272725" y="947.6136363636364"/>
      <point x="376.31818181818187" y="973.4318181818181"/>
      <point x="444.8636363636364" y="977.3409090909091" type="curve" smooth="yes"/>
      <point x="583.0227272727273" y="983.6136363636364" type="line"/>
      <point x="538.6590909090909" y="1147.1818181818182" type="line"/>
      <point x="397.72727272727275" y="1139.1818181818182" type="line" smooth="yes"/>
      <point x="128.52272727272728" y="1126.3181818181818"/>
      <point x="21.886363636363633" y="1032.8181818181818"/>
      <point x="21.886363636363633" y="854.1363636363636" type="curve" smooth="yes"/>
      <point x="21.886363636363633" y="701.9318181818181"/>
      <point x="126.70454545454545" y="592.5454545454545"/>
    </contour>
  </outline>
</glyph>
<glyph name="guillemetleft" format="2">
  <advance width="1210.2045454545455"/>
  <unicode hex="00AB"/>
  <outline>
    <contour>
      <point x="293.5" y="131.36363636363637" type="line"/>
      <point x="652.9545454545455" y="131.36363636363637" type="line"/>
      <point x="430.0909090909091" y="568.6363636363636" type="line"/>
      <point x="652.9545454545455" y="1005.9090909090909" type="line"/>
      <point x="293.5" y="1005.9090909090909" type="line"/>
      <point x="70.63636363636364" y="568.6363636363636" type="line"/>
    </contour>
    <contour>
      <point x="820.1136363636364" y="131.36363636363637" type="line"/>
      <point x="1179.5681818181818" y="131.36363636363637" type="line"/>
      <point x="956.7045454545455" y="568.6363636363636" type="line"/>
      <point x="1179.5681818181818" y="1005.9090909090909" type="line"/>
      <point x="820.1136363636364" y="1005.9090909090909" type="line"/>
      <point x="597.25" y="568.6363636363636" type="line"/>
    </contour>
  </outline>
</glyph>
<glyph name="logicalnot" format="2">
  <advance width="1286.1363636363637"/>
  <unicode hex="00AC"/>
  <outline>
    <contour>
      <point x="906.8863636363636" y="194.5909090909091" type="line"/>
      <point x="1195.1136363636363" y="194.5909090909091" type="line"/>
      <point x="1195.1136363636363" y="898.2272727272727" type="line"/>
      <point x="96.3409090909091" y="898.2272727272727" type="line"/>
      <point x="96.3409090909091" y="621.7727272727273" type="line"/>
      <point x="906.8863636363636" y="621.7727272727273" type="line"/>
    </contour>
  </outline>
</glyph>
<glyph name="softhyphen" format="2">
  <advance width="842.3636363636364"/>
  <unicode hex="00AD"/>
  <outline>
    <contour>
      <point x="96.3409090909091" y="423.0681818181818" type="line"/>
      <point x="746.0227272727273" y="423.0681818181818" type="line"/>
      <point x="746.0227272727273" y="714.2045454545455" type="line"/>
      <point x="96.3409090909091" y="714.2045454545455" type="line"/>
    </contour>
  </outline>
</glyph>
<glyph name="registered" format="2">
  <advance width="1393.9545454545455"/>
  <unicode hex="00AE"/>
  <outline>
    <contour>
      <point x="696.9772727272727" y="268.0" type="curve" smooth="yes"/>
      <point x="1058.9772727272727" y="268.0"/>
      <point x="1306.9772727272727" y="518.0"/>
      <point x="1306.9772727272727" y="882.0" type="curve" smooth="yes"/>
      <point x="1306.9772727272727" y="1246.0"/>
      <point x="1058.9772727272727" y="1498.0"/>
      <point x="696.9772727272727" y="1498.0" type="curve" smooth="yes"/>
      <point x="334.97727272727275" y="1498.0"/>
      <point x="86.97727272727272" y="1246.0"/>
      <point x="86.97727272727272" y="882.0" type="curve" smooth="yes"/>
      <point x="86.97727272727272" y="518.0"/>
      <point x="334.97727272727275" y="268.0"/>
    </contour>
    <contour>
      <point x="812.7954545454545" y="600.0" type="line"/>
      <point x="980.3409090909091" y="600.0" type="line"/>
      <point x="825.0681818181819" y="825.4545454545455" type="line"/>
      <point x="675.25" y="799.4545454545455" type="line"/>
    </contour>
    <contour>
      <point x="696.9772727272727" y="411.72727272727275" type="curve" smooth="yes"/>
      <point x="420.79545454545456" y="411.72727272727275"/>
      <point x="241.3409090909091" y="596.6363636363636"/>
      <point x="241.3409090909091" y="882.0" type="curve" smooth="yes"/>
      <point x="241.3409090909091" y="1169.090909090909"/>
      <point x="420.79545454545456" y="1354.2727272727273"/>
      <point x="696.9772727272727" y="1354.2727272727273" type="curve" smooth="yes"/>
      <point x="973.1590909090909" y="1354.2727272727273"/>
      <point x="1152.6136363636363" y="1169.090909090909"/>
      <point x="1152.6136363636363" y="882.0" type="curve" smooth="yes"/>
      <point x="1152.6136363636363" y="596.6363636363636"/>
      <point x="973.1590909090909" y="411.72727272727275"/>
    </contour>
    <contour>
      <point x="476.8863636363636" y="600.0" type="line"/>
      <point x="629.25" y="600.0" type="line"/>
      <point x="634.4318181818181" y="791.4545454545455" type="line"/>
      <point x="688.1590909090909" y="791.4545454545455" type="line" smooth="yes"/>
      <point x="865.7045454545455" y="791.4545454545455"/>
      <point x="949.4318181818181" y="855.7272727272727"/>
      <point x="949.4318181818181" y="990.7272727272727" type="curve" smooth="yes"/>
      <point x="949.4318181818181" y="1125.7272727272727"/>
      <point x="863.7045454545455" y="1192.0"/>
      <point x="688.1590909090909" y="1192.0" type="curve" smooth="yes"/>
      <point x="476.8863636363636" y="1192.0" type="line"/>
    </contour>
    <contour>
      <point x="634.4318181818181" y="913.9090909090909" type="line"/>
      <point x="634.4318181818181" y="1069.5454545454545" type="line"/>
      <point x="712.25" y="1069.5454545454545" type="line" smooth="yes"/>
      <point x="768.9772727272727" y="1069.5454545454545"/>
      <point x="800.5227272727273" y="1043.3636363636363"/>
      <point x="800.5227272727273" y="990.7272727272727" type="curve" smooth="yes"/>
      <point x="800.5227272727273" y="938.0909090909091"/>
      <point x="770.9772727272727" y="913.9090909090909"/>
      <point x="712.25" y="913.9090909090909" type="curve" smooth="yes"/>
    </contour>
  </outline>
</glyph>
<glyph name="macron" format="2">
  <advance width="1159.090909090909"/>
  <unicode hex="00AF"/>
  <anchor x="579.5454545454545" y="1200.0" name="_top"/>
  <anchor x="579.5454545454545" y="1607.8181818181818" name="top"/>
  <outline>
    <contour>
      <point x="222.79545454545456" y="1308.9318181818182" type="line"/>
      <point x="936.2954545454545" y="1308.9318181818182" type="line"/>
      <point x="936.2954545454545" y="1530.2272727272727" type="line"/>
      <point x="222.79545454545456" y="1530.2272727272727" type="line"/>
    </contour>
  </outline>
</glyph>
<glyph name="degree" format="2">
  <advance width="938.5"/>
  <unicode hex="00B0"/>
  <outline>
    <contour>
      <point x="469.25" y="747.0" type="curve" smooth="yes"/>
      <point x="689.6136363636364" y="747.0"/>
      <point x="851.5227272727273" y="905.7272727272727"/>
      <point x="851.5227272727273" y="1124.090909090909" type="curve" smooth="yes"/>
      <point x="851.5227272727273" y="1342.4545454545455"/>
      <point x="689.6136363636364" y="1499.4545454545455"/>
      <point x="469.25" y="1499.4545454545455" type="curve" smooth="yes"/>
      <point x="248.88636363636363" y="1499.4545454545455"/>
      <point x="86.97727272727272" y="1342.4545454545455"/>
      <point x="86.97727272727272" y="1124.090909090909" type="curve" smooth="yes"/>
      <point x="86.97727272727272" y="905.7272727272727"/>
      <point x="248.88636363636363" y="747.0"/>
    </contour>
    <contour>
      <point x="469.25" y="955.6590909090909" type="curve" smooth="yes"/>
      <point x="378.2045454545455" y="955.6590909090909"/>
      <point x="309.9318181818182" y="1019.6590909090909"/>
      <point x="309.9318181818182" y="1124.090909090909" type="curve" smooth="yes"/>
      <point x="309.9318181818182" y="1228.9545454545455"/>
      <point x="379.9318181818182" y="1290.7954545454545"/>
      <point x="469.25" y="1290.7954545454545" type="curve" smooth="yes"/>
      <point x="558.5681818181819" y="1290.7954545454545"/>
      <point x="628.5681818181818" y="1228.9545454545455"/>
      <point x="628.5681818181818" y="1124.090909090909" type="curve" smooth="yes"/>
      <point x="628.5681818181818" y="1019.6590909090909"/>
      <point x="560.2954545454545" y="955.6590909090909"/>
    </contour>
  </outline>
</glyph>
<glyph name="plusminus" format="2">
  <advance width="1070.9545454545455"/>
  <unicode hex="00B1"/>
  <outline>
    <contour>
      <point x="391.3636363636364" y="381.6363636363636" type="line"/>
      <point x="679.5909090909091" y="381.6363636363636" type="line"/>
      <point x="679.5909090909091" y="674.6363636363636" type="line"/>
      <point x="974.6136363636364" y="674.6363636363636" type="line"/>
      <point x="974.6136363636364" y="951.0909090909091" type="line"/>
      <point x="679.5909090909091" y="951.0909090909091" type="line"/>
      <point x="679.5909090909091" y="1244.090909090909" type="line"/>
      <point x="391.3636363636364" y="1244.090909090909" type="line"/>
      <point x="391.3636363636364" y="951.0909090909091" type="line"/>
      <point x="96.3409090909091" y="951.0909090909091" type="line"/>
      <point x="96.3409090909091" y="674.6363636363636" type="line"/>
      <point x="391.3636363636364" y="674.6363636363636" type="line"/>
    </contour>
    <contour>
      <point x="96.3409090909091" y="1.2954545454545454" type="line"/>
      <point x="974.6136363636364" y="1.2954545454545454" type="line"/>
      <point x="974.6136363636364" y="277.75" type="line"/>
      <point x="96.3409090909091" y="277.75" type="line"/>
    </contour>
  </outline>
</glyph>
<glyph name="micro" format="2">
  <advance width="1155.6818181818182"/>
  <unicode hex="00B5"/>
  <outline>
    <contour>
      <point x="525.1363636363636" y="-19.295454545454547" type="curve" smooth="yes"/>
      <point x="603.1363636363636" y="-19.295454545454547"/>
      <point x="668.5454545454545" y="24.477272727272727"/>
      <point x="721.7272727272727" y="109.9090909090909" type="curve"/>
      <point x="736.6363636363636" y="109.9090909090909" type="line"/>
      <point x="761.6363636363636" y="0.0" type="line"/>
      <point x="1058.7045454545455" y="0.0" type="line"/>
      <point x="1058.7045454545455" y="1097.2727272727273" type="line"/>
      <point x="699.2272727272727" y="1097.2727272727273" type="line"/>
      <point x="699.2272727272727" y="358.0681818181818" type="line"/>
      <point x="665.0909090909091" y="316.4545454545455"/>
      <point x="606.1136363636364" y="294.1363636363636"/>
      <point x="558.6590909090909" y="294.1363636363636" type="curve" smooth="yes"/>
      <point x="494.52272727272725" y="294.1363636363636"/>
      <point x="450.5" y="326.6590909090909"/>
      <point x="450.5" y="428.95454545454544" type="curve" smooth="yes"/>
      <point x="450.5" y="667.9545454545455" type="line"/>
      <point x="288.5" y="667.9545454545455" type="line"/>
      <point x="288.5" y="400.3636363636364" type="line" smooth="yes"/>
      <point x="288.5" y="94.5"/>
      <point x="387.7045454545455" y="-19.295454545454547"/>
    </contour>
    <contour>
      <point x="91.02272727272728" y="-440.0" type="line"/>
      <point x="450.5" y="-440.0" type="line"/>
      <point x="450.5" y="1096.840909090909" type="line"/>
      <point x="91.02272727272728" y="1096.840909090909" type="line"/>
    </contour>
  </outline>
</glyph>
<glyph name="paragraph" format="2">
  <advance width="1271.4318181818182"/>
  <unicode hex="00B6"/>
  <outline>
    <contour>
      <point x="537.8181818181818" y="0.0" type="line"/>
      <point x="789.3409090909091" y="0.0" type="line"/>
      <point x="789.3409090909091" y="1480.0" type="line"/>
      <point x="713.3863636363636" y="1491.8863636363637"/>
      <point x="617.2045454545455" y="1499.1818181818182"/>
      <point x="526.75" y="1499.1818181818182" type="curve" smooth="yes"/>
      <point x="201.02272727272728" y="1499.1818181818182"/>
      <point x="59.65909090909091" y="1331.5681818181818"/>
      <point x="59.65909090909091" y="953.6818181818181" type="curve" smooth="yes"/>
      <point x="59.65909090909091" y="596.0909090909091"/>
      <point x="199.47727272727272" y="409.6136363636364"/>
      <point x="465.02272727272725" y="409.6136363636364" type="curve" smooth="yes"/>
      <point x="492.6363636363636" y="409.6136363636364"/>
      <point x="512.2727272727273" y="410.3863636363636"/>
      <point x="537.8181818181818" y="411.1363636363636" type="curve"/>
    </contour>
    <contour>
      <point x="910.7045454545455" y="0.0" type="line"/>
      <point x="1162.2272727272727" y="0.0" type="line"/>
      <point x="1162.2272727272727" y="1480.0" type="line"/>
      <point x="910.7045454545455" y="1480.0" type="line"/>
    </contour>
  </outline>
</glyph>
<glyph name="cedilla" format="2">
  <advance width="1159.090909090909"/>
  <unicode hex="00B8"/>
  <anchor x="579.5454545454545" y="0.0" name="_bottom"/>
  <outline>
    <contour>
      <point x="570.5454545454545" y="-451.8181818181818" type="curve" smooth="yes"/>
      <point x="754.6136363636364" y="-451.8181818181818"/>
      <point x="836.9772727272727" y="-377.6818181818182"/>
      <point x="836.9772727272727" y="-262.25" type="curve" smooth="yes"/>
      <point x="836.9772727272727" y="-143.8181818181818"/>
      <point x="749.1818181818182" y="-76.36363636363636"/>
      <point x="595.5681818181818" y="-76.36363636363636" type="curve"/>
      <point x="676.909090909091" y="-124.72727272727272" type="line"/>
      <point x="676.909090909091" y="20.0" type="line"/>
      <point x="505.1818181818182" y="20.0" type="line"/>
      <point x="505.1818181818182" y="-177.38636363636363" type="line"/>
      <point x="549.7272727272727" y="-177.38636363636363" type="line" smooth="yes"/>
      <point x="613.0" y="-177.38636363636363"/>
      <point x="647.75" y="-199.11363636363637"/>
      <point x="647.75" y="-247.13636363636363" type="curve" smooth="yes"/>
      <point x="647.75" y="-295.84090909090907"/>
      <point x="616.0" y="-313.8863636363636"/>
      <point x="552.1590909090909" y="-313.8863636363636" type="curve" smooth="yes"/>
      <point x="509.6363636363636" y="-313.8863636363636"/>
      <point x="447.20454545454544" y="-305.3181818181818"/>
      <point x="394.5909090909091" y="-285.1818181818182" type="curve"/>
      <point x="394.5909090909091" y="-423.22727272727275" type="line"/>
      <point x="446.25" y="-441.04545454545456"/>
      <point x="503.9318181818182" y="-451.8181818181818"/>
    </contour>
  </outline>
</glyph>
<glyph name="onesuperior" format="2">
  <advance width="840.1590909090909"/>
  <unicode hex="00B9"/>
  <outline>
    <contour>
      <point x="315.1136363636364" y="-111.68181818181819" type="line"/>
      <point x="598.909090909091" y="-111.68181818181819" type="line"/>
      <point x="598.909090909091" y="868.0" type="line"/>
      <point x="419.5" y="868.0" type="line"/>
      <point x="135.13636363636363" y="690.6136363636364" type="line"/>
      <point x="135.13636363636363" y="441.27272727272725" type="line"/>
      <point x="419.5" y="618.6590909090909" type="line"/>
      <point x="315.1136363636364" y="706.3181818181818" type="line"/>
    </contour>
    <contour>
      <point x="127.0909090909091" y="-136.0" type="line"/>
      <point x="777.2272727272727" y="-136.0" type="line"/>
      <point x="777.2272727272727" y="97.43181818181819" type="line"/>
      <point x="127.0909090909091" y="97.43181818181819" type="line"/>
    </contour>
  </outline>
</glyph>
<glyph name="ordmasculine" format="2">
  <advance width="951.4545454545455"/>
  <unicode hex="00BA"/>
  <outline>
    <contour>
      <point x="476.1590909090909" y="592.5454545454545" type="curve" smooth="yes"/>
      <point x="761.2954545454545" y="592.5454545454545"/>
      <point x="920.6818181818182" y="758.9772727272727"/>
      <point x="920.6818181818182" y="1045.5681818181818" type="curve" smooth="yes"/>
      <point x="920.6818181818182" y="1332.159090909091"/>
      <point x="761.2954545454545" y="1500.6363636363637"/>
      <point x="476.1590909090909" y="1500.6363636363637" type="curve" smooth="yes"/>
      <point x="191.02272727272728" y="1500.6363636363637"/>
      <point x="30.772727272727273" y="1338.6363636363637"/>
      <point x="30.772727272727273" y="1045.5681818181818" type="curve" smooth="yes"/>
      <point x="30.772727272727273" y="752.5"/>
      <point x="191.02272727272728" y="592.5454545454545"/>
    </contour>
    <contour>
      <point x="476.1590909090909" y="833.3863636363636" type="curve" smooth="yes"/>
      <point x="410.25" y="833.3863636363636"/>
      <point x="363.9090909090909" y="870.75"/>
      <point x="363.9090909090909" y="1045.5681818181818" type="curve" smooth="yes"/>
      <point x="363.9090909090909" y="1221.6818181818182"/>
      <point x="410.25" y="1259.7954545454545"/>
      <point x="476.1590909090909" y="1259.7954545454545" type="curve" smooth="yes"/>
      <point x="542.9318181818181" y="1259.7954545454545"/>
      <point x="587.5454545454545" y="1221.6818181818182"/>
      <point x="587.5454545454545" y="1045.5681818181818" type="curve" smooth="yes"/>
      <point x="587.5454545454545" y="870.75"/>
      <point x="542.9318181818181" y="833.3863636363636"/>
    </contour>
  </outline>
</glyph>
<glyph name="guillemetright" format="2">
  <advance width="1210.2045454545455"/>
  <unicode hex="00BB"/>
  <outline>
    <contour>
      <point x="30.63636363636364" y="131.36363636363637" type="line"/>
      <point x="390.0909090909091" y="131.36363636363637" type="line"/>
      <point x="612.9545454545455" y="568.6363636363636" type="line"/>
      <point x="390.0909090909091" y="1005.9090909090909" type="line"/>
      <point x="30.63636363636364" y="1005.9090909090909" type="line"/>
      <point x="253.5" y="568.6363636363636" type="line"/>
    </contour>
    <contour>
      <point x="557.25" y="131.36363636363637" type="line"/>
      <point x="916.7045454545455" y="131.36363636363637" type="line"/>
      <point x="1139.5681818181818" y="568.6363636363636" type="line"/>
      <point x="916.7045454545455" y="1005.9090909090909" type="line"/>
      <point x="557.25" y="1005.9090909090909" type="line"/>
      <point x="780.1136363636364" y="568.6363636363636" type="line"/>
    </contour>
  </outline>
</glyph>
<glyph name="onequarter" format="2">
  <advance width="2043.590909090909"/>
  <unicode hex="00BC"/>
  <outline>
    <contour>
      <point x="315.1136363636364" y="640.3181818181819" type="line"/>
      <point x="598.909090909091" y="640.3181818181819" type="line"/>
      <point x="598.909090909091" y="1620.0" type="line"/>
      <point x="419.5" y="1620.0" type="line"/>
      <point x="135.13636363636363" y="1442.6136363636363" type="line"/>
      <point x="135.13636363636363" y="1193.2727272727273" type="line"/>
      <point x="419.5" y="1370.659090909091" type="line"/>
      <point x="315.1136363636364" y="1458.3181818181818" type="line"/>
    </contour>
    <contour>
      <point x="127.0909090909091" y="616.0" type="line"/>
      <point x="777.2272727272727" y="616.0" type="line"/>
      <point x="777.2272727272727" y="849.4318181818182" type="line"/>
      <point x="127.0909090909091" y="849.4318181818182" type="line"/>
    </contour>
    <contour>
      <point x="489.47727272727275" y="-136.0" type="line"/>
      <point x="785.6363636363636" y="-136.0" type="line"/>
      <point x="1554.1136363636365" y="1616.0" type="line"/>
      <point x="1257.9545454545455" y="1616.0" type="line"/>
    </contour>
    <contour>
      <point x="1227.8636363636365" y="52.52272727272727" type="line"/>
      <point x="2021.1363636363635" y="52.52272727272727" type="line"/>
      <point x="2021.1363636363635" y="263.6590909090909" type="line"/>
      <point x="1468.409090909091" y="263.6590909090909" type="line"/>
      <point x="1496.2272727272727" y="205.5909090909091" type="line"/>
      <point x="1779.3181818181818" y="864.0" type="line"/>
      <point x="1516.1363636363635" y="864.0" type="line"/>
      <point x="1227.8636363636365" y="205.6590909090909" type="line"/>
    </contour>
    <contour>
      <point x="1663.3863636363635" y="-136.0" type="line"/>
      <point x="1909.340909090909" y="-136.0" type="line"/>
      <point x="1909.340909090909" y="526.0" type="line"/>
      <point x="1719.8636363636365" y="526.0" type="line"/>
      <point x="1663.3863636363635" y="263.6590909090909" type="line"/>
    </contour>
  </outline>
</glyph>
<glyph name="onehalf" format="2">
  <advance width="2043.590909090909"/>
  <unicode hex="00BD"/>
  <outline>
    <contour>
      <point x="315.1136363636364" y="640.3181818181819" type="line"/>
      <point x="598.909090909091" y="640.3181818181819" type="line"/>
      <point x="598.909090909091" y="1620.0" type="line"/>
      <point x="419.5" y="1620.0" type="line"/>
      <point x="135.13636363636363" y="1442.6136363636363" type="line"/>
      <point x="135.13636363636363" y="1193.2727272727273" type="line"/>
      <point x="419.5" y="1370.659090909091" type="line"/>
      <point x="315.1136363636364" y="1458.3181818181818" type="line"/>
    </contour>
    <contour>
      <point x="127.0909090909091" y="616.0" type="line"/>
      <point x="777.2272727272727" y="616.0" type="line"/>
      <point x="777.2272727272727" y="849.4318181818182" type="line"/>
      <point x="127.0909090909091" y="849.4318181818182" type="line"/>
    </contour>
    <contour>
      <point x="489.47727272727275" y="-136.0" type="line"/>
      <point x="785.6363636363636" y="-136.0" type="line"/>
      <point x="1554.1136363636365" y="1616.0" type="line"/>
      <point x="1257.9545454545455" y="1616.0" type="line"/>
    </contour>
    <contour>
      <point x="1285.2045454545455" y="-136.0" type="line"/>
      <point x="1967.931818181818" y="-136.0" type="line"/>
      <point x="1967.931818181818" y="97.43181818181819" type="line"/>
      <point x="1601.4772727272727" y="97.43181818181819" type="line"/>
      <point x="1606.1363636363635" y="29.86363636363636" type="line"/>
      <point x="1790.3636363636365" y="258.25" type="line" smooth="yes"/>
      <point x="1887.5" y="378.29545454545456"/>
      <point x="1925.9772727272727" y="474.3181818181818"/>
      <point x="1926.181818181818" y="573.2045454545455" type="curve" smooth="yes"/>
      <point x="1926.3863636363635" y="788.4772727272727"/>
      <point x="1781.1136363636365" y="877.7272727272727"/>
      <point x="1524.659090909091" y="877.7272727272727" type="curve" smooth="yes"/>
      <point x="1436.9545454545455" y="877.7272727272727"/>
      <point x="1336.840909090909" y="863.9318181818181"/>
      <point x="1271.909090909091" y="842.0227272727273" type="curve"/>
      <point x="1271.909090909091" y="617.3863636363636" type="line"/>
      <point x="1329.3636363636365" y="638.7045454545455"/>
      <point x="1409.909090909091" y="653.3636363636364"/>
      <point x="1479.7045454545455" y="653.3636363636364" type="curve" smooth="yes"/>
      <point x="1602.7727272727273" y="653.3636363636364"/>
      <point x="1645.1363636363635" y="616.6363636363636"/>
      <point x="1645.1363636363635" y="546.8863636363636" type="curve" smooth="yes"/>
      <point x="1645.1363636363635" y="490.8636363636364"/>
      <point x="1613.7045454545455" y="427.3181818181818"/>
      <point x="1537.2727272727273" y="330.3863636363636" type="curve" smooth="yes"/>
      <point x="1285.2045454545455" y="14.477272727272734" type="line"/>
    </contour>
  </outline>
</glyph>
<glyph name="questiondown" format="2">
  <advance width="957.2045454545455"/>
  <unicode hex="00BF"/>
  <outline>
    <contour>
      <point x="646.6590909090909" y="596.9090909090909" type="line"/>
      <point x="427.22727272727275" y="596.9090909090909" type="line"/>
      <point x="400.3863636363636" y="412.95454545454544" type="line"/>
      <point x="175.20454545454544" y="345.54545454545456"/>
      <point x="40.84090909090909" y="210.25"/>
      <point x="40.84090909090909" y="-0.5681818181818201" type="curve" smooth="yes"/>
      <point x="40.84090909090909" y="-256.54545454545456"/>
      <point x="221.61363636363637" y="-400.0"/>
      <point x="578.8181818181818" y="-400.0" type="curve" smooth="yes"/>
      <point x="699.7272727272727" y="-400.0"/>
      <point x="844.7045454545455" y="-378.77272727272725"/>
      <point x="935.9318181818182" y="-347.29545454545456" type="curve"/>
      <point x="935.9318181818182" y="-65.54545454545453" type="line"/>
      <point x="845.1136363636364" y="-98.43181818181819"/>
      <point x="729.1590909090909" y="-117.6590909090909"/>
      <point x="625.5227272727273" y="-117.6590909090909" type="curve" smooth="yes"/>
      <point x="459.22727272727275" y="-117.6590909090909"/>
      <point x="390.2272727272727" y="-66.02272727272725"/>
      <point x="390.2272727272727" y="35.56818181818181" type="curve" smooth="yes"/>
      <point x="390.2272727272727" y="132.5909090909091"/>
      <point x="456.8409090909091" y="197.5681818181818"/>
      <point x="708.3181818181819" y="245.52272727272725" type="curve"/>
    </contour>
    <contour>
      <point x="536.7272727272727" y="1115.909090909091" type="curve" smooth="yes"/>
      <point x="398.97727272727275" y="1115.909090909091"/>
      <point x="306.3181818181818" y="1029.8863636363637"/>
      <point x="306.3181818181818" y="903.6363636363636" type="curve" smooth="yes"/>
      <point x="306.3181818181818" y="777.1136363636364"/>
      <point x="395.79545454545456" y="691.090909090909"/>
      <point x="536.7272727272727" y="691.090909090909" type="curve" smooth="yes"/>
      <point x="677.659090909091" y="691.090909090909"/>
      <point x="767.1363636363636" y="773.6590909090909"/>
      <point x="767.1363636363636" y="903.6363636363636" type="curve" smooth="yes"/>
      <point x="767.1363636363636" y="1033.340909090909"/>
      <point x="674.2045454545455" y="1115.909090909091"/>
    </contour>
  </outline>
</glyph>
<glyph name="Aacute" format="2">
  <advance width="1386.7727272727273"/>
  <unicode hex="00C1"/>
  <anchor x="693.0909090909091" y="1520.0" name="_top"/>
  <anchor x="693.5227272727273" y="0.0" name="bottom"/>
  <anchor x="1384.2045454545455" y="0.0" name="ogonek"/>
  <anchor x="693.0909090909091" y="1520.0" name="top"/>
  <outline>
    <contour>
      <point x="2.56818181818182" y="0.0" type="line"/>
      <point x="357.9090909090909" y="0.0" type="line"/>
      <point x="707.8409090909091" y="1319.5227272727273" type="line"/>
      <point x="672.6136363636364" y="1319.5227272727273" type="line"/>
      <point x="1025.1363636363637" y="0.0" type="line"/>
      <point x="1384.2045454545455" y="0.0" type="line"/>
      <point x="963.9545454545455" y="1480.0" type="line"/>
      <point x="422.8181818181818" y="1480.0" type="line"/>
    </contour>
    <contour>
      <point x="303.4318181818182" y="366.9318181818182" type="line"/>
      <point x="1081.1818181818182" y="366.9318181818182" type="line"/>
      <point x="1008.5" y="665.25" type="line"/>
      <point x="376.54545454545456" y="665.25" type="line"/>
    </contour>
    <contour>
      <point x="531.3863636363636" y="1590.090909090909" type="line"/>
      <point x="853.0681818181818" y="1590.090909090909" type="line"/>
      <point x="1075.7727272727273" y="1900.090909090909" type="line"/>
      <point x="701.0227272727273" y="1900.090909090909" type="line"/>
    </contour>
  </outline>
</glyph>
<glyph name="Atilde" format="2">
  <advance width="1386.7727272727273"/>
  <unicode hex="00C3"/>
  <anchor x="693.0909090909091" y="1520.0" name="_top"/>
  <anchor x="693.5227272727273" y="0.0" name="bottom"/>
  <anchor x="1384.2045454545455" y="0.0" name="ogonek"/>
  <anchor x="693.0909090909091" y="1520.0" name="top"/>
  <outline>
    <contour>
      <point x="2.56818181818182" y="0.0" type="line"/>
      <point x="357.9090909090909" y="0.0" type="line"/>
      <point x="707.8409090909091" y="1319.5227272727273" type="line"/>
      <point x="672.6136363636364" y="1319.5227272727273" type="line"/>
      <point x="1025.1363636363637" y="0.0" type="line"/>
      <point x="1384.2045454545455" y="0.0" type="line"/>
      <point x="963.9545454545455" y="1480.0" type="line"/>
      <point x="422.8181818181818" y="1480.0" type="line"/>
    </contour>
    <contour>
      <point x="303.4318181818182" y="366.9318181818182" type="line"/>
      <point x="1081.1818181818182" y="366.9318181818182" type="line"/>
      <point x="1008.5" y="665.25" type="line"/>
      <point x="376.54545454545456" y="665.25" type="line"/>
    </contour>
    <contour>
      <point x="864.5" y="1601.0681818181818" type="curve" smooth="yes"/>
      <point x="956.0681818181818" y="1601.0681818181818"/>
      <point x="1017.0909090909091" y="1623.2045454545455"/>
      <point x="1070.75" y="1674.659090909091" type="curve"/>
      <point x="1070.75" y="1885.3863636363637" type="line"/>
      <point x="1008.6590909090909" y="1836.9545454545455"/>
      <point x="952.7045454545455" y="1812.590909090909"/>
      <point x="869.6818181818182" y="1812.590909090909" type="curve" smooth="yes"/>
      <point x="752.8863636363636" y="1812.590909090909"/>
      <point x="660.0681818181818" y="1892.1818181818182"/>
      <point x="521.6818181818182" y="1892.1818181818182" type="curve" smooth="yes"/>
      <point x="430.1136363636364" y="1892.1818181818182"/>
      <point x="369.0909090909091" y="1868.3181818181818"/>
      <point x="315.4318181818182" y="1816.8636363636363" type="curve"/>
      <point x="315.4318181818182" y="1606.1363636363635" type="line"/>
      <point x="377.52272727272725" y="1654.5681818181818"/>
      <point x="433.47727272727275" y="1678.9318181818182"/>
      <point x="516.5" y="1678.9318181818182" type="curve" smooth="yes"/>
      <point x="633.2954545454545" y="1678.9318181818182"/>
      <point x="726.1136363636364" y="1601.0681818181818"/>
    </contour>
  </outline>
</glyph>
<glyph name="Adieresis" format="2">
  <advance width="1386.7727272727273"/>
  <unicode hex="00C4"/>
  <anchor x="693.0909090909091" y="1520.0" name="_top"/>
  <anchor x="693.5227272727273" y="0.0" name="bottom"/>
  <anchor x="1384.2045454545455" y="0.0" name="ogonek"/>
  <anchor x="693.0909090909091" y="1520.0" name="top"/>
  <outline>
    <contour>
      <point x="2.56818181818182" y="0.0" type="line"/>
      <point x="357.9090909090909" y="0.0" type="line"/>
      <point x="707.8409090909091" y="1319.5227272727273" type="line"/>
      <point x="672.6136363636364" y="1319.5227272727273" type="line"/>
      <point x="1025.1363636363637" y="0.0" type="line"/>
      <point x="1384.2045454545455" y="0.0" type="line"/>
      <point x="963.9545454545455" y="1480.0" type="line"/>
      <point x="422.8181818181818" y="1480.0" type="line"/>
    </contour>
    <contour>
      <point x="303.4318181818182" y="366.9318181818182" type="line"/>
      <point x="1081.1818181818182" y="366.9318181818182" type="line"/>
      <point x="1008.5" y="665.25" type="line"/>
      <point x="376.54545454545456" y="665.25" type="line"/>
    </contour>
    <contour>
      <point x="946.2045454545455" y="1586.3636363636363" type="curve" smooth="yes"/>
      <point x="1071.159090909091" y="1586.3636363636363"/>
      <point x="1138.6136363636365" y="1645.7727272727273"/>
      <point x="1138.6136363636365" y="1750.2727272727273" type="curve" smooth="yes"/>
      <point x="1138.6136363636365" y="1854.7727272727273"/>
      <point x="1071.159090909091" y="1914.4545454545455"/>
      <point x="946.2045454545455" y="1914.4545454545455" type="curve" smooth="yes"/>
      <point x="821.25" y="1914.4545454545455"/>
      <point x="753.7954545454545" y="1854.7727272727273"/>
      <point x="753.7954545454545" y="1750.2727272727273" type="curve" smooth="yes"/>
      <point x="753.7954545454545" y="1645.7727272727273"/>
      <point x="821.25" y="1586.3636363636363"/>
    </contour>
    <contour>
      <point x="439.97727272727275" y="1586.3636363636363" type="curve" smooth="yes"/>
      <point x="564.9318181818182" y="1586.3636363636363"/>
      <point x="632.3863636363636" y="1645.7727272727273"/>
      <point x="632.3863636363636" y="1750.2727272727273" type="curve" smooth="yes"/>
      <point x="632.3863636363636" y="1854.7727272727273"/>
      <point x="564.9318181818182" y="1914.4545454545455"/>
      <point x="439.97727272727275" y="1914.4545454545455" type="curve" smooth="yes"/>
      <point x="315.02272727272725" y="1914.4545454545455"/>
      <point x="247.5681818181818" y="1854.7727272727273"/>
      <point x="247.5681818181818" y="1750.2727272727273" type="curve" smooth="yes"/>
      <point x="247.5681818181818" y="1645.7727272727273"/>
      <point x="315.02272727272725" y="1586.3636363636363"/>
    </contour>
  </outline>
</glyph>
<glyph name="Aring" format="2">
  <advance width="1386.7727272727273"/>
  <unicode hex="00C5"/>
  <anchor x="693.5681818181818" y="1495.4545454545455" name="_top"/>
  <anchor x="693.5227272727273" y="0.0" name="bottom"/>
  <anchor x="1384.2045454545455" y="0.0" name="ogonek"/>
  <anchor x="693.0909090909091" y="1520.0" name="top"/>
  <outline>
    <contour>
      <point x="2.56818181818182" y="0.0" type="line"/>
      <point x="357.9090909090909" y="0.0" type="line"/>
      <point x="707.8409090909091" y="1319.5227272727273" type="line"/>
      <point x="672.6136363636364" y="1319.5227272727273" type="line"/>
      <point x="1025.1363636363637" y="0.0" type="line"/>
      <point x="1384.2045454545455" y="0.0" type="line"/>
      <point x="963.9545454545455" y="1480.0" type="line"/>
      <point x="422.8181818181818" y="1480.0" type="line"/>
    </contour>
    <contour>
      <point x="303.4318181818182" y="366.9318181818182" type="line"/>
      <point x="1081.1818181818182" y="366.9318181818182" type="line"/>
      <point x="1008.5" y="665.25" type="line"/>
      <point x="376.54545454545456" y="665.25" type="line"/>
    </contour>
    <contour>
      <point x="693.5681818181818" y="1550.9772727272727" type="curve" smooth="yes"/>
      <point x="822.0227272727273" y="1550.9772727272727"/>
      <point x="915.5681818181818" y="1641.0681818181818"/>
      <point x="915.5681818181818" y="1766.0681818181818" type="curve" smooth="yes"/>
      <point x="915.5681818181818" y="1891.0681818181818"/>
      <point x="822.0227272727273" y="1981.159090909091"/>
      <point x="693.5681818181818" y="1981.159090909091" type="curve" smooth="yes"/>
      <point x="565.1136363636364" y="1981.159090909091"/>
      <point x="471.5681818181818" y="1891.0681818181818"/>
      <point x="471.5681818181818" y="1766.0681818181818" type="curve" smooth="yes"/>
      <point x="471.5681818181818" y="1641.0681818181818"/>
      <point x="565.1136363636364" y="1550.9772727272727"/>
    </contour>
    <contour>
      <point x="693.5681818181818" y="1677.25" type="curve" smooth="yes"/>
      <point x="643.4772727272727" y="1677.25"/>
      <point x="608.4772727272727" y="1711.7045454545455"/>
      <point x="608.4772727272727" y="1766.0681818181818" type="curve" smooth="yes"/>
      <point x="608.4772727272727" y="1820.4318181818182"/>
      <point x="643.4772727272727" y="1854.8863636363635"/>
      <point x="693.5681818181818" y="1854.8863636363635" type="curve" smooth="yes"/>
      <point x="743.6590909090909" y="1854.8863636363635"/>
      <point x="778.6590909090909" y="1820.4318181818182"/>
      <point x="778.6590909090909" y="1766.0681818181818" type="curve" smooth="yes"/>
      <point x="778.6590909090909" y="1711.7045454545455"/>
      <point x="743.6590909090909" y="1677.25"/>
    </contour>
  </outline>
</glyph>
<glyph name="AE" format="2">
  <advance width="1932.4772727272727"/>
  <unicode hex="00C6"/>
  <anchor x="1007.7272727272727" y="0.0" name="bottom"/>
  <anchor x="997.2954545454545" y="1520.0" name="top"/>
  <outline>
    <contour>
      <point x="2.56818181818182" y="0.0" type="line"/>
      <point x="361.79545454545456" y="0.0" type="line"/>
      <point x="680.1136363636364" y="1179.090909090909" type="line"/>
      <point x="999.3636363636364" y="1179.090909090909" type="line"/>
      <point x="999.5" y="1480.0" type="line"/>
      <point x="424.3863636363636" y="1480.0" type="line"/>
    </contour>
    <contour>
      <point x="303.97727272727275" y="365.6363636363636" type="line"/>
      <point x="997.159090909091" y="365.6363636363636" type="line"/>
      <point x="997.159090909091" y="666.5454545454545" type="line"/>
      <point x="377.0909090909091" y="666.5454545454545" type="line"/>
    </contour>
    <contour>
      <point x="935.7954545454545" y="0.0" type="line"/>
      <point x="1869.181818181818" y="0.0" type="line"/>
      <point x="1869.181818181818" y="300.90909090909093" type="line"/>
      <point x="1270.318181818182" y="300.90909090909093" type="line"/>
      <point x="1198.0454545454545" y="1179.090909090909" type="line"/>
      <point x="1859.181818181818" y="1179.090909090909" type="line"/>
      <point x="1859.181818181818" y="1480.0" type="line"/>
      <point x="827.4318181818182" y="1480.0" type="line"/>
    </contour>
    <contour>
      <point x="1086.2045454545455" y="605.3636363636364" type="line"/>
      <point x="1756.3181818181818" y="605.3636363636364" type="line"/>
      <point x="1756.3181818181818" y="906.2727272727273" type="line"/>
      <point x="1086.2045454545455" y="906.2727272727273" type="line"/>
    </contour>
  </outline>
</glyph>
<glyph name="Eacute" format="2">
  <advance width="1194.590909090909"/>
  <unicode hex="00C9"/>
  <anchor x="637.3181818181818" y="1520.0" name="_top"/>
  <anchor x="637.4545454545455" y="0.0" name="bottom"/>
  <anchor x="1046.9772727272727" y="0.0" name="ogonek"/>
  <anchor x="637.3181818181818" y="1520.0" name="top"/>
  <anchor x="37.20454545454545" y="1480.0" name="topleft"/>
  <outline>
    <contour>
      <point x="109.20454545454545" y="0.0" type="line"/>
      <point x="1131.2954545454545" y="0.0" type="line"/>
      <point x="1131.2954545454545" y="300.90909090909093" type="line"/>
      <point x="469.97727272727275" y="300.90909090909093" type="line"/>
      <point x="469.97727272727275" y="1179.090909090909" type="line"/>
      <point x="1121.2954545454545" y="1179.090909090909" type="line"/>
      <point x="1121.2954545454545" y="1480.0" type="line"/>
      <point x="109.20454545454545" y="1480.0" type="line"/>
    </contour>
    <contour>
      <point x="346.0" y="605.3636363636364" type="line"/>
      <point x="1018.4318181818182" y="605.3636363636364" type="line"/>
      <point x="1018.4318181818182" y="906.2727272727273" type="line"/>
      <point x="346.0" y="906.2727272727273" type="line"/>
    </contour>
    <contour>
      <point x="475.6136363636364" y="1590.090909090909" type="line"/>
      <point x="797.2954545454545" y="1590.090909090909" type="line"/>
      <point x="1020.0" y="1900.090909090909" type="line"/>
      <point x="645.25" y="1900.090909090909" type="line"/>
    </contour>
  </outline>
</glyph>
<glyph name="Ecircumflex" format="2">
  <advance width="1194.590909090909"/>
  <unicode hex="00CA"/>
  <anchor x="637.3181818181818" y="1520.0" name="_top"/>
  <anchor x="637.4545454545455" y="0.0" name="bottom"/>
  <anchor x="1046.9772727272727" y="0.0" name="ogonek"/>
  <anchor x="637.3181818181818" y="1520.0" name="top"/>
  <anchor x="37.20454545454545" y="1480.0" name="topleft"/>
  <outline>
    <contour>
      <point x="109.20454545454545" y="0.0" type="line"/>
      <point x="1131.2954545454545" y="0.0" type="line"/>
      <point x="1131.2954545454545" y="300.90909090909093" type="line"/>
      <point x="469.97727272727275" y="300.90909090909093" type="line"/>
      <point x="469.97727272727275" y="1179.090909090909" type="line"/>
      <point x="1121.2954545454545" y="1179.090909090909" type="line"/>
      <point x="1121.2954545454545" y="1480.0" type="line"/>
      <point x="109.20454545454545" y="1480.0" type="line"/>
    </contour>
    <contour>
      <point x="346.0" y="605.3636363636364" type="line"/>
      <point x="1018.4318181818182" y="605.3636363636364" type="line"/>
      <point x="1018.4318181818182" y="906.2727272727273" type="line"/>
      <point x="346.0" y="906.2727272727273" type="line"/>
    </contour>
    <contour>
      <point x="259.97727272727275" y="1590.090909090909" type="line"/>
      <point x="514.6818181818182" y="1590.090909090909" type="line"/>
      <point x="661.2045454545455" y="1805.8181818181818" type="line"/>
      <point x="613.4318181818182" y="1805.8181818181818" type="line"/>
      <point x="759.9545454545455" y="1590.090909090909" type="line"/>
      <point x="1014.6590909090909" y="1590.090909090909" type="line"/>
      <point x="788.8863636363636" y="1900.090909090909" type="line"/>
      <point x="485.75" y="1900.090909090909" type="line"/>
    </contour>
  </outline>
</glyph>
<glyph name="Igrave" format="2">
  <advance width="584.3636363636364"/>
  <unicode hex="00CC"/>
  <anchor x="292.1818181818182" y="1520.0" name="_top"/>
  <anchor x="291.75" y="0.0" name="bottom"/>
  <anchor x="475.1590909090909" y="0.0" name="ogonek"/>
  <anchor x="292.1818181818182" y="1520.0" name="top"/>
  <outline>
    <contour>
      <point x="109.20454545454545" y="0.0" type="line"/>
      <point x="475.1590909090909" y="0.0" type="line"/>
      <point x="475.1590909090909" y="1480.0" type="line"/>
      <point x="109.20454545454545" y="1480.0" type="line"/>
    </contour>
    <contour>
      <point x="131.3409090909091" y="1590.090909090909" type="line"/>
      <point x="453.02272727272725" y="1590.090909090909" type="line"/>
      <point x="283.3863636363636" y="1900.090909090909" type="line"/>
      <point x="-91.36363636363636" y="1900.090909090909" type="line"/>
    </contour>
  </outline>
</glyph>
<glyph name="Iacute" format="2">
  <advance width="584.3636363636364"/>
  <unicode hex="00CD"/>
  <anchor x="292.1818181818182" y="1520.0" name="_top"/>
  <anchor x="291.75" y="0.0" name="bottom"/>
  <anchor x="475.1590909090909" y="0.0" name="ogonek"/>
  <anchor x="292.1818181818182" y="1520.0" name="top"/>
  <outline>
    <contour>
      <point x="109.20454545454545" y="0.0" type="line"/>
      <point x="475.1590909090909" y="0.0" type="line"/>
      <point x="475.1590909090909" y="1480.0" type="line"/>
      <point x="109.20454545454545" y="1480.0" type="line"/>
    </contour>
    <contour>
      <point x="130.47727272727272" y="1590.090909090909" type="line"/>
      <point x="452.1590909090909" y="1590.090909090909" type="line"/>
      <point x="674.8636363636364" y="1900.090909090909" type="line"/>
      <point x="300.1136363636364" y="1900.090909090909" type="line"/>
    </contour>
  </outline>
</glyph>
<glyph name="Icircumflex" format="2">
  <advance width="584.3636363636364"/>
  <unicode hex="00CE"/>
  <anchor x="292.1818181818182" y="1520.0" name="_top"/>
  <anchor x="291.75" y="0.0" name="bottom"/>
  <anchor x="475.1590909090909" y="0.0" name="ogonek"/>
  <anchor x="292.1818181818182" y="1520.0" name="top"/>
  <outline>
    <contour>
      <point x="109.20454545454545" y="0.0" type="line"/>
      <point x="475.1590909090909" y="0.0" type="line"/>
      <point x="475.1590909090909" y="1480.0" type="line"/>
      <point x="109.20454545454545" y="1480.0" type="line"/>
    </contour>
    <contour>
      <point x="-85.1590909090909" y="1590.090909090909" type="line"/>
      <point x="169.54545454545456" y="1590.090909090909" type="line"/>
      <point x="316.0681818181818" y="1805.8181818181818" type="line"/>
      <point x="268.29545454545456" y="1805.8181818181818" type="line"/>
      <point x="414.8181818181818" y="1590.090909090909" type="line"/>
      <point x="669.5227272727273" y="1590.090909090909" type="line"/>
      <point x="443.75" y="1900.090909090909" type="line"/>
      <point x="140.61363636363637" y="1900.090909090909" type="line"/>
    </contour>
  </outline>
</glyph>
<glyph name="Idieresis" format="2">
  <advance width="584.3636363636364"/>
  <unicode hex="00CF"/>
  <anchor x="292.1818181818182" y="1520.0" name="_top"/>
  <anchor x="291.75" y="0.0" name="bottom"/>
  <anchor x="475.1590909090909" y="0.0" name="ogonek"/>
  <anchor x="292.1818181818182" y="1520.0" name="top"/>
  <outline>
    <contour>
      <point x="109.20454545454545" y="0.0" type="line"/>
      <point x="475.1590909090909" y="0.0" type="line"/>
      <point x="475.1590909090909" y="1480.0" type="line"/>
      <point x="109.20454545454545" y="1480.0" type="line"/>
    </contour>
    <contour>
      <point x="545.2954545454545" y="1586.3636363636363" type="curve" smooth="yes"/>
      <point x="670.25" y="1586.3636363636363"/>
      <point x="737.7045454545455" y="1645.7727272727273"/>
      <point x="737.7045454545455" y="1750.2727272727273" type="curve" smooth="yes"/>
      <point x="737.7045454545455" y="1854.7727272727273"/>
      <point x="670.25" y="1914.4545454545455"/>
      <point x="545.2954545454545" y="1914.4545454545455" type="curve" smooth="yes"/>
      <point x="420.34090909090907" y="1914.4545454545455"/>
      <point x="352.8863636363636" y="1854.7727272727273"/>
      <point x="352.8863636363636" y="1750.2727272727273" type="curve" smooth="yes"/>
      <point x="352.8863636363636" y="1645.7727272727273"/>
      <point x="420.34090909090907" y="1586.3636363636363"/>
    </contour>
    <contour>
      <point x="39.06818181818182" y="1586.3636363636363" type="curve" smooth="yes"/>
      <point x="164.02272727272728" y="1586.3636363636363"/>
      <point x="231.47727272727272" y="1645.7727272727273"/>
      <point x="231.47727272727272" y="1750.2727272727273" type="curve" smooth="yes"/>
      <point x="231.47727272727272" y="1854.7727272727273"/>
      <point x="164.02272727272728" y="1914.4545454545455"/>
      <point x="39.06818181818182" y="1914.4545454545455" type="curve" smooth="yes"/>
      <point x="-85.88636363636364" y="1914.4545454545455"/>
      <point x="-153.3409090909091" y="1854.7727272727273"/>
      <point x="-153.3409090909091" y="1750.2727272727273" type="curve" smooth="yes"/>
      <point x="-153.3409090909091" y="1645.7727272727273"/>
      <point x="-85.88636363636364" y="1586.3636363636363"/>
    </contour>
  </outline>
</glyph>
<glyph name="Ntilde" format="2">
  <advance width="1465.75"/>
  <unicode hex="00D1"/>
  <anchor x="732.9090909090909" y="1520.0" name="_top"/>
  <anchor x="732.9090909090909" y="0.0" name="bottom"/>
  <anchor x="732.9090909090909" y="1520.0" name="top"/>
  <outline>
    <contour>
      <point x="109.20454545454545" y="0.0" type="line"/>
      <point x="452.0" y="0.0" type="line"/>
      <point x="452.0" y="997.6818181818182" type="line"/>
      <point x="394.1590909090909" y="997.6818181818182" type="line"/>
      <point x="990.8636363636364" y="0.0" type="line"/>
      <point x="1356.5454545454545" y="0.0" type="line"/>
      <point x="1356.5454545454545" y="1480.0" type="line"/>
      <point x="1013.75" y="1480.0" type="line"/>
      <point x="1013.75" y="482.3181818181818" type="line"/>
      <point x="1071.590909090909" y="482.3181818181818" type="line"/>
      <point x="474.8863636363636" y="1480.0" type="line"/>
      <point x="109.20454545454545" y="1480.0" type="line"/>
    </contour>
    <contour>
      <point x="904.3181818181818" y="1601.0681818181818" type="curve" smooth="yes"/>
      <point x="995.8863636363636" y="1601.0681818181818"/>
      <point x="1056.909090909091" y="1623.2045454545455"/>
      <point x="1110.5681818181818" y="1674.659090909091" type="curve"/>
      <point x="1110.5681818181818" y="1885.3863636363637" type="line"/>
      <point x="1048.4772727272727" y="1836.9545454545455"/>
      <point x="992.5227272727273" y="1812.590909090909"/>
      <point x="909.5" y="1812.590909090909" type="curve" smooth="yes"/>
      <point x="792.7045454545455" y="1812.590909090909"/>
      <point x="699.8863636363636" y="1892.1818181818182"/>
      <point x="561.5" y="1892.1818181818182" type="curve" smooth="yes"/>
      <point x="469.9318181818182" y="1892.1818181818182"/>
      <point x="408.90909090909093" y="1868.3181818181818"/>
      <point x="355.25" y="1816.8636363636363" type="curve"/>
      <point x="355.25" y="1606.1363636363635" type="line"/>
      <point x="417.3409090909091" y="1654.5681818181818"/>
      <point x="473.29545454545456" y="1678.9318181818182"/>
      <point x="556.3181818181819" y="1678.9318181818182" type="curve" smooth="yes"/>
      <point x="673.1136363636364" y="1678.9318181818182"/>
      <point x="765.9318181818182" y="1601.0681818181818"/>
    </contour>
  </outline>
</glyph>
<glyph name="Otilde" format="2">
  <advance width="1485.3636363636365"/>
  <unicode hex="00D5"/>
  <anchor x="742.6818181818182" y="1520.0" name="_top"/>
  <anchor x="742.6818181818182" y="0.0" name="bottom"/>
  <anchor x="742.6818181818182" y="740.0" name="center"/>
  <anchor x="921.6136363636364" y="0.0" name="ogonek"/>
  <anchor x="742.6818181818182" y="1520.0" name="top"/>
  <anchor x="45.75" y="1480.0" name="topleft"/>
  <anchor x="931.9090909090909" y="1480.0" name="topright"/>
  <outline>
    <contour>
      <point x="742.6818181818182" y="-19.727272727272727" type="curve" smooth="yes"/>
      <point x="1147.2045454545455" y="-19.727272727272727"/>
      <point x="1417.5227272727273" y="217.0"/>
      <point x="1417.5227272727273" y="740.0" type="curve" smooth="yes"/>
      <point x="1417.5227272727273" y="1263.0"/>
      <point x="1147.840909090909" y="1499.7272727272727"/>
      <point x="742.6818181818182" y="1499.7272727272727" type="curve" smooth="yes"/>
      <point x="337.72727272727275" y="1499.7272727272727"/>
      <point x="67.8409090909091" y="1263.8636363636363"/>
      <point x="67.8409090909091" y="740.0" type="curve" smooth="yes"/>
      <point x="67.8409090909091" y="216.13636363636363"/>
      <point x="337.95454545454544" y="-19.727272727272727"/>
    </contour>
    <contour>
      <point x="742.6818181818182" y="278.6590909090909" type="curve" smooth="yes"/>
      <point x="552.8636363636364" y="278.6590909090909"/>
      <point x="443.8409090909091" y="401.1136363636364"/>
      <point x="443.8409090909091" y="747.4545454545455" type="curve" smooth="yes"/>
      <point x="443.8409090909091" y="1078.8863636363637"/>
      <point x="554.1590909090909" y="1201.340909090909"/>
      <point x="742.6818181818182" y="1201.340909090909" type="curve" smooth="yes"/>
      <point x="931.2045454545455" y="1201.340909090909"/>
      <point x="1041.5227272727273" y="1077.590909090909"/>
      <point x="1041.5227272727273" y="732.5454545454545" type="curve" smooth="yes"/>
      <point x="1041.5227272727273" y="402.4090909090909"/>
      <point x="932.5" y="278.6590909090909"/>
    </contour>
    <contour>
      <point x="914.0909090909091" y="1601.0681818181818" type="curve" smooth="yes"/>
      <point x="1005.6590909090909" y="1601.0681818181818"/>
      <point x="1066.6818181818182" y="1623.2045454545455"/>
      <point x="1120.340909090909" y="1674.659090909091" type="curve"/>
      <point x="1120.340909090909" y="1885.3863636363637" type="line"/>
      <point x="1058.25" y="1836.9545454545455"/>
      <point x="1002.2954545454545" y="1812.590909090909"/>
      <point x="919.2727272727273" y="1812.590909090909" type="curve" smooth="yes"/>
      <point x="802.4772727272727" y="1812.590909090909"/>
      <point x="709.659090909091" y="1892.1818181818182"/>
      <point x="571.2727272727273" y="1892.1818181818182" type="curve" smooth="yes"/>
      <point x="479.70454545454544" y="1892.1818181818182"/>
      <point x="418.6818181818182" y="1868.3181818181818"/>
      <point x="365.02272727272725" y="1816.8636363636363" type="curve"/>
      <point x="365.02272727272725" y="1606.1363636363635" type="line"/>
      <point x="427.1136363636364" y="1654.5681818181818"/>
      <point x="483.0681818181818" y="1678.9318181818182"/>
      <point x="566.0909090909091" y="1678.9318181818182" type="curve" smooth="yes"/>
      <point x="682.8863636363636" y="1678.9318181818182"/>
      <point x="775.7045454545455" y="1601.0681818181818"/>
    </contour>
  </outline>
</glyph>
<glyph name="multiply" format="2">
  <advance width="1027.6363636363635"/>
  <unicode hex="00D7"/>
  <outline>
    <contour>
      <point x="266.27272727272725" y="317.3181818181818" type="line"/>
      <point x="513.8181818181818" y="564.8636363636364" type="line"/>
      <point x="761.3636363636364" y="317.3181818181818" type="line"/>
      <point x="956.5" y="512.4545454545455" type="line"/>
      <point x="708.9545454545455" y="760.0" type="line"/>
      <point x="956.5" y="1007.5454545454545" type="line"/>
      <point x="761.3636363636364" y="1202.6818181818182" type="line"/>
      <point x="513.8181818181818" y="955.1363636363636" type="line"/>
      <point x="266.27272727272725" y="1202.6818181818182" type="line"/>
      <point x="71.13636363636363" y="1007.5454545454545" type="line"/>
      <point x="318.6818181818182" y="760.0" type="line"/>
      <point x="71.13636363636363" y="512.4545454545455" type="line"/>
    </contour>
  </outline>
</glyph>
<glyph name="Udieresis" format="2">
  <advance width="1421.0227272727273"/>
  <unicode hex="00DC"/>
  <anchor x="714.75" y="1520.0" name="_top"/>
  <anchor x="714.75" y="0.0" name="bottom"/>
  <anchor x="950.9318181818181" y="0.13636363636363635" name="ogonek"/>
  <anchor x="714.75" y="1520.0" name="top"/>
  <anchor x="1003.3636363636364" y="1480.0" name="topright"/>
  <outline>
    <contour>
      <point x="714.75" y="-19.727272727272727" type="curve" smooth="yes"/>
      <point x="1127.159090909091" y="-19.727272727272727"/>
      <point x="1318.090909090909" y="175.63636363636363"/>
      <point x="1318.090909090909" y="610.6818181818182" type="curve" smooth="yes"/>
      <point x="1318.090909090909" y="1480.0" type="line"/>
      <point x="959.3181818181819" y="1480.0" type="line"/>
      <point x="959.3181818181819" y="572.6136363636364" type="line" smooth="yes"/>
      <point x="959.3181818181819" y="363.0"/>
      <point x="874.8636363636364" y="282.90909090909093"/>
      <point x="714.75" y="282.90909090909093" type="curve" smooth="yes"/>
      <point x="554.6363636363636" y="282.90909090909093"/>
      <point x="468.8863636363636" y="363.0"/>
      <point x="468.8863636363636" y="572.6136363636364" type="curve" smooth="yes"/>
      <point x="468.8863636363636" y="1480.0" type="line"/>
      <point x="102.93181818181819" y="1480.0" type="line"/>
      <point x="102.93181818181819" y="610.6818181818182" type="line" smooth="yes"/>
      <point x="102.93181818181819" y="175.63636363636363"/>
      <point x="297.59090909090907" y="-19.727272727272727"/>
    </contour>
    <contour>
      <point x="967.8636363636364" y="1586.3636363636363" type="curve" smooth="yes"/>
      <point x="1092.8181818181818" y="1586.3636363636363"/>
      <point x="1160.2727272727273" y="1645.7727272727273"/>
      <point x="1160.2727272727273" y="1750.2727272727273" type="curve" smooth="yes"/>
      <point x="1160.2727272727273" y="1854.7727272727273"/>
      <point x="1092.8181818181818" y="1914.4545454545455"/>
      <point x="967.8636363636364" y="1914.4545454545455" type="curve" smooth="yes"/>
      <point x="842.9090909090909" y="1914.4545454545455"/>
      <point x="775.4545454545455" y="1854.7727272727273"/>
      <point x="775.4545454545455" y="1750.2727272727273" type="curve" smooth="yes"/>
      <point x="775.4545454545455" y="1645.7727272727273"/>
      <point x="842.9090909090909" y="1586.3636363636363"/>
    </contour>
    <contour>
      <point x="461.6363636363636" y="1586.3636363636363" type="curve" smooth="yes"/>
      <point x="586.5909090909091" y="1586.3636363636363"/>
      <point x="654.0454545454545" y="1645.7727272727273"/>
      <point x="654.0454545454545" y="1750.2727272727273" type="curve" smooth="yes"/>
      <point x="654.0454545454545" y="1854.7727272727273"/>
      <point x="586.5909090909091" y="1914.4545454545455"/>
      <point x="461.6363636363636" y="1914.4545454545455" type="curve" smooth="yes"/>
      <point x="336.6818181818182" y="1914.4545454545455"/>
      <point x="269.22727272727275" y="1854.7727272727273"/>
      <point x="269.22727272727275" y="1750.2727272727273" type="curve" smooth="yes"/>
      <point x="269.22727272727275" y="1645.7727272727273"/>
      <point x="336.6818181818182" y="1586.3636363636363"/>
    </contour>
  </outline>
</glyph>
<glyph name="Thorn" format="2">
  <advance width="1281.4318181818182"/>
  <unicode hex="00DE"/>
  <outline>
    <contour>
      <point x="109.20454545454545" y="0.0" type="line"/>
      <point x="475.1590909090909" y="0.0" type="line"/>
      <point x="475.1590909090909" y="218.88636363636363" type="line"/>
      <point x="514.7272727272727" y="217.9318181818182"/>
      <point x="548.9545454545455" y="215.86363636363637"/>
      <point x="593.5454545454545" y="215.86363636363637" type="curve" smooth="yes"/>
      <point x="995.5454545454545" y="215.86363636363637"/>
      <point x="1211.7727272727273" y="399.75"/>
      <point x="1211.7727272727273" y="759.9318181818181" type="curve" smooth="yes"/>
      <point x="1211.7727272727273" y="1137.8181818181818"/>
      <point x="993.0" y="1305.4318181818182"/>
      <point x="560.8181818181818" y="1305.4318181818182" type="curve" smooth="yes"/>
      <point x="532.0454545454545" y="1305.4318181818182"/>
      <point x="499.02272727272725" y="1302.4772727272727"/>
      <point x="475.1590909090909" y="1301.1136363636363" type="curve"/>
      <point x="475.1590909090909" y="1480.0681818181818" type="line"/>
      <point x="109.20454545454545" y="1480.0681818181818" type="line"/>
    </contour>
    <contour>
      <point x="594.1590909090909" y="498.6363636363636" type="curve" smooth="yes"/>
      <point x="548.0" y="498.6363636363636"/>
      <point x="513.5909090909091" y="500.77272727272725"/>
      <point x="475.1590909090909" y="505.4545454545455" type="curve"/>
      <point x="475.1590909090909" y="1013.1590909090909" type="line"/>
      <point x="510.6363636363636" y="1019.9772727272727"/>
      <point x="543.0681818181818" y="1022.6590909090909"/>
      <point x="590.6136363636364" y="1022.6590909090909" type="curve" smooth="yes"/>
      <point x="772.2045454545455" y="1022.6590909090909"/>
      <point x="856.9318181818181" y="943.8863636363636"/>
      <point x="856.9318181818181" y="756.8636363636364" type="curve" smooth="yes"/>
      <point x="856.9318181818181" y="570.0"/>
      <point x="771.7954545454545" y="498.6363636363636"/>
    </contour>
  </outline>
</glyph>
<glyph name="germandbls" format="2">
  <advance width="1511.1363636363635"/>
  <unicode hex="00DF"/>
  <outline>
    <contour>
      <point x="981.6818181818182" y="-21.454545454545453" type="curve" smooth="yes"/>
      <point x="1297.590909090909" y="-21.454545454545453"/>
      <point x="1478.0" y="116.45454545454545"/>
      <point x="1478.0" y="341.6136363636364" type="curve" smooth="yes"/>
      <point x="1478.0" y="534.7045454545455"/>
      <point x="1379.8636363636365" y="623.1590909090909"/>
      <point x="1202.090909090909" y="660.7045454545455" type="curve" smooth="yes"/>
      <point x="1032.4318181818182" y="695.4772727272727" type="line" smooth="yes"/>
      <point x="982.7727272727273" y="706.5227272727273"/>
      <point x="962.3863636363637" y="724.4318181818181"/>
      <point x="962.3863636363637" y="759.2045454545455" type="curve" smooth="yes"/>
      <point x="962.3863636363637" y="802.9545454545455"/>
      <point x="999.7272727272727" y="844.75"/>
      <point x="1171.2045454545455" y="844.75" type="curve" smooth="yes"/>
      <point x="1222.5454545454545" y="844.75"/>
      <point x="1271.7272727272727" y="842.1363636363636"/>
      <point x="1314.3181818181818" y="836.1590909090909" type="curve"/>
      <point x="1336.409090909091" y="919.4772727272727"/>
      <point x="1352.8636363636365" y="1010.1818181818182"/>
      <point x="1352.8636363636365" y="1105.4318181818182" type="curve" smooth="yes"/>
      <point x="1352.8636363636365" y="1482.9772727272727"/>
      <point x="1126.4318181818182" y="1636.0"/>
      <point x="811.3181818181819" y="1636.0" type="curve" smooth="yes"/>
      <point x="411.45454545454544" y="1636.0"/>
      <point x="175.72727272727272" y="1408.0227272727273"/>
      <point x="175.72727272727272" y="1032.4545454545455" type="curve" smooth="yes"/>
      <point x="175.72727272727272" y="0.0" type="line"/>
      <point x="535.2045454545455" y="0.0" type="line"/>
      <point x="535.2045454545455" y="1033.7954545454545" type="line" smooth="yes"/>
      <point x="535.2045454545455" y="1273.2272727272727"/>
      <point x="630.7045454545455" y="1384.3181818181818"/>
      <point x="837.3636363636364" y="1384.3181818181818" type="curve" smooth="yes"/>
      <point x="990.3409090909091" y="1384.3181818181818"/>
      <point x="1098.0" y="1314.25"/>
      <point x="1097.9318181818182" y="1122.3636363636363" type="curve" smooth="yes"/>
      <point x="1097.9318181818182" y="1055.159090909091"/>
      <point x="1088.0454545454545" y="993.0"/>
      <point x="1072.1363636363637" y="931.5227272727273" type="curve"/>
      <point x="1281.25" y="1097.8181818181818" type="line"/>
      <point x="1242.5454545454545" y="1102.2954545454545"/>
      <point x="1163.9772727272727" y="1104.3636363636363"/>
      <point x="1126.7272727272727" y="1104.3636363636363" type="curve" smooth="yes"/>
      <point x="798.840909090909" y="1104.3636363636363"/>
      <point x="633.2272727272727" y="972.5227272727273"/>
      <point x="633.2272727272727" y="755.5681818181818" type="curve" smooth="yes"/>
      <point x="633.2272727272727" y="573.6818181818182"/>
      <point x="725.9318181818181" y="471.4090909090909"/>
      <point x="909.9090909090909" y="434.3409090909091" type="curve" smooth="yes"/>
      <point x="1079.5681818181818" y="399.5681818181818" type="line" smooth="yes"/>
      <point x="1129.2272727272727" y="388.52272727272725"/>
      <point x="1148.840909090909" y="370.54545454545456"/>
      <point x="1148.840909090909" y="331.4318181818182" type="curve" smooth="yes"/>
      <point x="1148.840909090909" y="281.0"/>
      <point x="1110.0681818181818" y="248.79545454545456"/>
      <point x="977.159090909091" y="248.79545454545456" type="curve" smooth="yes"/>
      <point x="874.7727272727273" y="248.79545454545456"/>
      <point x="758.4545454545455" y="264.4090909090909"/>
      <point x="666.6363636363636" y="289.22727272727275" type="curve"/>
      <point x="666.6363636363636" y="18.272727272727273" type="line"/>
      <point x="766.659090909091" y="-8.59090909090909"/>
      <point x="881.4090909090909" y="-21.454545454545453"/>
    </contour>
    <contour>
      <point x="17.545454545454547" y="813.6363636363636" type="line"/>
      <point x="313.6136363636364" y="813.6363636363636" type="line"/>
      <point x="313.6136363636364" y="1097.2727272727273" type="line"/>
      <point x="17.545454545454547" y="1097.2727272727273" type="line"/>
    </contour>
  </outline>
</glyph>
<glyph name="agrave" format="2">
  <advance width="1067.9318181818182"/>
  <unicode hex="00E0"/>
  <anchor x="531.0909090909091" y="1200.0" name="_top"/>
  <anchor x="532.3181818181818" y="0.0" name="bottom"/>
  <anchor x="976.909090909091" y="0.0" name="ogonek"/>
  <anchor x="531.0909090909091" y="1200.0" name="top"/>
  <outline>
    <contour>
      <point x="381.90909090909093" y="-21.18181818181818" type="curve" smooth="yes"/>
      <point x="491.52272727272725" y="-21.18181818181818"/>
      <point x="586.3409090909091" y="15.863636363636363"/>
      <point x="642.5227272727273" y="109.02272727272728" type="curve"/>
      <point x="658.2954545454545" y="109.02272727272728" type="line"/>
      <point x="683.7272727272727" y="0.0" type="line"/>
      <point x="976.909090909091" y="0.0" type="line"/>
      <point x="976.909090909091" y="644.6363636363636" type="line" smooth="yes"/>
      <point x="976.909090909091" y="995.5909090909091"/>
      <point x="826.7272727272727" y="1115.0"/>
      <point x="479.20454545454544" y="1115.0" type="curve" smooth="yes"/>
      <point x="370.54545454545456" y="1115.0"/>
      <point x="237.5681818181818" y="1100.2272727272727"/>
      <point x="132.86363636363637" y="1072.8181818181818" type="curve"/>
      <point x="132.86363636363637" y="797.1136363636364" type="line"/>
      <point x="223.8181818181818" y="823.840909090909"/>
      <point x="329.22727272727275" y="836.9772727272727"/>
      <point x="410.4090909090909" y="836.9772727272727" type="curve" smooth="yes"/>
      <point x="574.2954545454545" y="836.9772727272727"/>
      <point x="627.3636363636364" y="792.7954545454545"/>
      <point x="627.3636363636364" y="665.0681818181818" type="curve" smooth="yes"/>
      <point x="627.3636363636364" y="278.8636363636364" type="line"/>
      <point x="590.7954545454545" y="245.13636363636363"/>
      <point x="546.6136363636364" y="233.95454545454547"/>
      <point x="507.3181818181818" y="233.95454545454547" type="curve" smooth="yes"/>
      <point x="437.6363636363636" y="233.95454545454547"/>
      <point x="396.1363636363636" y="270.3181818181818"/>
      <point x="396.1363636363636" y="339.5681818181818" type="curve" smooth="yes"/>
      <point x="396.1363636363636" y="410.70454545454544"/>
      <point x="439.43181818181813" y="452.6590909090909"/>
      <point x="534.5227272727273" y="459.34090909090907" type="curve" smooth="yes"/>
      <point x="717.5681818181819" y="471.95454545454544" type="line"/>
      <point x="673.5" y="669.6590909090909" type="line"/>
      <point x="493.77272727272725" y="657.0454545454545" type="line" smooth="yes"/>
      <point x="174.86363636363637" y="636.5909090909091"/>
      <point x="44.909090909090914" y="514.1363636363636"/>
      <point x="44.909090909090914" y="301.90909090909093" type="curve" smooth="yes"/>
      <point x="44.909090909090914" y="108.18181818181819"/>
      <point x="174.63636363636363" y="-21.18181818181818"/>
    </contour>
    <contour>
      <point x="370.6818181818182" y="1226.0" type="line"/>
      <point x="691.5" y="1226.0" type="line"/>
      <point x="476.79545454545456" y="1616.0" type="line"/>
      <point x="105.56818181818181" y="1616.0" type="line"/>
    </contour>
  </outline>
</glyph>
<glyph name="atilde" format="2">
  <advance width="1067.9318181818182"/>
  <unicode hex="00E3"/>
  <anchor x="531.0909090909091" y="1200.0" name="_top"/>
  <anchor x="532.3181818181818" y="0.0" name="bottom"/>
  <anchor x="976.909090909091" y="0.0" name="ogonek"/>
  <anchor x="531.0909090909091" y="1200.0" name="top"/>
  <outline>
    <contour>
      <point x="381.90909090909093" y="-21.18181818181818" type="curve" smooth="yes"/>
      <point x="491.52272727272725" y="-21.18181818181818"/>
      <point x="586.3409090909091" y="15.863636363636363"/>
      <point x="642.5227272727273" y="109.02272727272728" type="curve"/>
      <point x="658.2954545454545" y="109.02272727272728" type="line"/>
      <point x="683.7272727272727" y="0.0" type="line"/>
      <point x="976.909090909091" y="0.0" type="line"/>
      <point x="976.909090909091" y="644.6363636363636" type="line" smooth="yes"/>
      <point x="976.909090909091" y="995.5909090909091"/>
      <point x="826.7272727272727" y="1115.0"/>
      <point x="479.20454545454544" y="1115.0" type="curve" smooth="yes"/>
      <point x="370.54545454545456" y="1115.0"/>
      <point x="237.5681818181818" y="1100.2272727272727"/>
      <point x="132.86363636363637" y="1072.8181818181818" type="curve"/>
      <point x="132.86363636363637" y="797.1136363636364" type="line"/>
      <point x="223.8181818181818" y="823.840909090909"/>
      <point x="329.22727272727275" y="836.9772727272727"/>
      <point x="410.4090909090909" y="836.9772727272727" type="curve" smooth="yes"/>
      <point x="574.2954545454545" y="836.9772727272727"/>
      <point x="627.3636363636364" y="792.7954545454545"/>
      <point x="627.3636363636364" y="665.0681818181818" type="curve" smooth="yes"/>
      <point x="627.3636363636364" y="278.8636363636364" type="line"/>
      <point x="590.7954545454545" y="245.13636363636363"/>
      <point x="546.6136363636364" y="233.95454545454547"/>
      <point x="507.3181818181818" y="233.95454545454547" type="curve" smooth="yes"/>
      <point x="437.6363636363636" y="233.95454545454547"/>
      <point x="396.1363636363636" y="270.3181818181818"/>
      <point x="396.1363636363636" y="339.5681818181818" type="curve" smooth="yes"/>
      <point x="396.1363636363636" y="410.70454545454544"/>
      <point x="439.43181818181813" y="452.6590909090909"/>
      <point x="534.5227272727273" y="459.34090909090907" type="curve" smooth="yes"/>
      <point x="717.5681818181819" y="471.95454545454544" type="line"/>
      <point x="673.5" y="669.6590909090909" type="line"/>
      <point x="493.77272727272725" y="657.0454545454545" type="line" smooth="yes"/>
      <point x="174.86363636363637" y="636.5909090909091"/>
      <point x="44.909090909090914" y="514.1363636363636"/>
      <point x="44.909090909090914" y="301.90909090909093" type="curve" smooth="yes"/>
      <point x="44.909090909090914" y="108.18181818181819"/>
      <point x="174.63636363636363" y="-21.18181818181818"/>
    </contour>
    <contour>
      <point x="689.0454545454545" y="1265.5681818181818" type="curve" smooth="yes"/>
      <point x="773.159090909091" y="1265.5681818181818"/>
      <point x="834.1818181818181" y="1289.8636363636363"/>
      <point x="887.8409090909091" y="1345.6363636363637" type="curve"/>
      <point x="887.8409090909091" y="1573.2045454545455" type="line"/>
      <point x="825.75" y="1512.25"/>
      <point x="769.7954545454545" y="1485.2954545454545"/>
      <point x="694.2272727272727" y="1485.2954545454545" type="curve" smooth="yes"/>
      <point x="590.8863636363636" y="1485.2954545454545"/>
      <point x="498.0681818181818" y="1580.0"/>
      <point x="373.1363636363636" y="1580.0" type="curve" smooth="yes"/>
      <point x="289.02272727272725" y="1580.0"/>
      <point x="228.0" y="1555.7045454545455"/>
      <point x="174.3409090909091" y="1499.9318181818182" type="curve"/>
      <point x="174.3409090909091" y="1272.3636363636363" type="line"/>
      <point x="236.4318181818182" y="1333.3181818181818"/>
      <point x="292.3863636363636" y="1360.2727272727273"/>
      <point x="367.95454545454544" y="1360.2727272727273" type="curve" smooth="yes"/>
      <point x="471.2954545454545" y="1360.2727272727273"/>
      <point x="564.1136363636364" y="1265.5681818181818"/>
    </contour>
  </outline>
</glyph>
<glyph name="ae" format="2">
  <advance width="1612.5681818181818"/>
  <unicode hex="00E6"/>
  <anchor x="808.1818181818181" y="0.0" name="bottom"/>
  <anchor x="808.1818181818181" y="1200.0" name="top"/>
  <outline>
    <contour>
      <point x="1203.4772727272727" y="-21.454545454545453" type="curve" smooth="yes"/>
      <point x="1303.159090909091" y="-21.454545454545453"/>
      <point x="1398.5681818181818" y="-10.75"/>
      <point x="1511.590909090909" y="14.272727272727273" type="curve"/>
      <point x="1511.590909090909" y="289.1136363636364" type="line"/>
      <point x="1422.2954545454545" y="268.8409090909091"/>
      <point x="1332.0454545454545" y="255.70454545454544"/>
      <point x="1249.7954545454545" y="255.70454545454544" type="curve" smooth="yes"/>
      <point x="1035.159090909091" y="255.70454545454544"/>
      <point x="976.909090909091" y="310.9090909090909"/>
      <point x="976.909090909091" y="481.3863636363636" type="curve" smooth="yes"/>
      <point x="976.909090909091" y="634.3409090909091" type="line" smooth="yes"/>
      <point x="976.909090909091" y="832.2954545454545"/>
      <point x="1021.0454545454545" y="886.8409090909091"/>
      <point x="1108.3181818181818" y="886.8409090909091" type="curve" smooth="yes"/>
      <point x="1194.2954545454545" y="886.8409090909091"/>
      <point x="1236.0454545454545" y="832.4090909090909"/>
      <point x="1236.0454545454545" y="632.6818181818182" type="curve"/>
      <point x="1288.6363636363637" y="651.5681818181819" type="line"/>
      <point x="932.5681818181818" y="651.5681818181819" type="line"/>
      <point x="932.5681818181818" y="443.0681818181818" type="line"/>
      <point x="1569.659090909091" y="443.0681818181818" type="line"/>
      <point x="1569.659090909091" y="540.5681818181819" type="line" smooth="yes"/>
      <point x="1569.659090909091" y="920.5"/>
      <point x="1402.159090909091" y="1115.2045454545455"/>
      <point x="1128.6136363636365" y="1115.2045454545455" type="curve" smooth="yes"/>
      <point x="848.3409090909091" y="1115.2045454545455"/>
      <point x="694.25" y="906.25"/>
      <point x="694.25" y="582.4545454545455" type="curve"/>
      <point x="632.5454545454545" y="551.7954545454545" type="line"/>
      <point x="632.5454545454545" y="149.04545454545456"/>
      <point x="799.2954545454545" y="-21.454545454545453"/>
    </contour>
    <contour>
      <point x="416.72727272727275" y="-21.18181818181818" type="curve" smooth="yes"/>
      <point x="552.3636363636364" y="-21.18181818181818"/>
      <point x="677.4318181818182" y="21.386363636363637"/>
      <point x="775.2727272727273" y="158.25" type="curve"/>
      <point x="682.3636363636364" y="323.5909090909091" type="line"/>
      <point x="627.5227272727273" y="255.4090909090909"/>
      <point x="573.4545454545455" y="235.25"/>
      <point x="511.9090909090909" y="235.25" type="curve" smooth="yes"/>
      <point x="438.1818181818182" y="235.25"/>
      <point x="396.1363636363636" y="270.75"/>
      <point x="396.1363636363636" y="336.20454545454544" type="curve" smooth="yes"/>
      <point x="396.1363636363636" y="406.04545454545456"/>
      <point x="437.29545454545456" y="453.0"/>
      <point x="539.6136363636364" y="453.0" type="curve" smooth="yes"/>
      <point x="695.3409090909091" y="453.0" type="line"/>
      <point x="695.3409090909091" y="651.5681818181819" type="line"/>
      <point x="499.5" y="651.5681818181819" type="line" smooth="yes"/>
      <point x="178.0681818181818" y="651.5681818181819"/>
      <point x="44.909090909090914" y="511.20454545454544"/>
      <point x="44.909090909090914" y="305.8863636363636" type="curve" smooth="yes"/>
      <point x="44.909090909090914" y="105.38636363636364"/>
      <point x="175.25" y="-21.18181818181818"/>
    </contour>
    <contour>
      <point x="632.5454545454545" y="551.7954545454545" type="line"/>
      <point x="916.5" y="549.75" type="line"/>
      <point x="916.5" y="660.7954545454545" type="line" smooth="yes"/>
      <point x="916.5" y="972.2727272727273"/>
      <point x="787.5227272727273" y="1115.0"/>
      <point x="463.22727272727275" y="1115.0" type="curve" smooth="yes"/>
      <point x="361.04545454545456" y="1115.0"/>
      <point x="250.52272727272728" y="1102.8181818181818"/>
      <point x="134.1590909090909" y="1072.8181818181818" type="curve"/>
      <point x="134.1590909090909" y="797.1136363636364" type="line"/>
      <point x="225.11363636363637" y="823.840909090909"/>
      <point x="330.52272727272725" y="836.9772727272727"/>
      <point x="407.8181818181818" y="836.9772727272727" type="curve" smooth="yes"/>
      <point x="567.8181818181819" y="836.9772727272727"/>
      <point x="632.5454545454545" y="794.0909090909091"/>
      <point x="632.5454545454545" y="661.7954545454545" type="curve" smooth="yes"/>
    </contour>
  </outline>
</glyph>
<glyph name="igrave" format="2">
  <advance width="554.7272727272727"/>
  <unicode hex="00EC"/>
  <anchor x="277.3636363636364" y="1200.0" name="_top"/>
  <anchor x="277.3636363636364" y="0.0" name="bottom"/>
  <anchor x="457.75" y="0.0" name="ogonek"/>
  <anchor x="277.3636363636364" y="1200.0" name="top"/>
  <outline>
    <contour>
      <point x="96.97727272727272" y="0.0" type="line"/>
      <point x="457.75" y="0.0" type="line"/>
      <point x="457.75" y="1097.2727272727273" type="line"/>
      <point x="96.97727272727272" y="1097.2727272727273" type="line"/>
    </contour>
    <contour>
      <point x="116.95454545454545" y="1226.0" type="line"/>
      <point x="437.77272727272725" y="1226.0" type="line"/>
      <point x="223.0681818181818" y="1616.0" type="line"/>
      <point x="-148.1590909090909" y="1616.0" type="line"/>
    </contour>
  </outline>
</glyph>
<glyph name="iacute" format="2">
  <advance width="554.7272727272727"/>
  <unicode hex="00ED"/>
  <anchor x="277.3636363636364" y="1200.0" name="_top"/>
  <anchor x="277.3636363636364" y="0.0" name="bottom"/>
  <anchor x="457.75" y="0.0" name="ogonek"/>
  <anchor x="277.3636363636364" y="1200.0" name="top"/>
  <outline>
    <contour>
      <point x="96.97727272727272" y="0.0" type="line"/>
      <point x="457.75" y="0.0" type="line"/>
      <point x="457.75" y="1097.2727272727273" type="line"/>
      <point x="96.97727272727272" y="1097.2727272727273" type="line"/>
    </contour>
    <contour>
      <point x="116.95454545454545" y="1226.0" type="line"/>
      <point x="437.77272727272725" y="1226.0" type="line"/>
      <point x="702.8863636363636" y="1616.0" type="line"/>
      <point x="331.6590909090909" y="1616.0" type="line"/>
    </contour>
  </outline>
</glyph>
<glyph name="icircumflex" format="2">
  <advance width="554.7272727272727"/>
  <unicode hex="00EE"/>
  <anchor x="277.3636363636364" y="1200.0" name="_top"/>
  <anchor x="277.3636363636364" y="0.0" name="bottom"/>
  <anchor x="457.75" y="0.0" name="ogonek"/>
  <anchor x="277.3636363636364" y="1200.0" name="top"/>
  <outline>
    <contour>
      <point x="96.97727272727272" y="0.0" type="line"/>
      <point x="457.75" y="0.0" type="line"/>
      <point x="457.75" y="1097.2727272727273" type="line"/>
      <point x="96.97727272727272" y="1097.2727272727273" type="line"/>
    </contour>
    <contour>
      <point x="-84.1590909090909" y="1226.0" type="line"/>
      <point x="162.97727272727272" y="1226.0" type="line"/>
      <point x="300.3863636363636" y="1497.659090909091" type="line"/>
      <point x="254.3409090909091" y="1497.659090909091" type="line"/>
      <point x="391.75" y="1226.0" type="line"/>
      <point x="638.8863636363636" y="1226.0" type="line"/>
      <point x="425.9090909090909" y="1616.0" type="line"/>
      <point x="128.8181818181818" y="1616.0" type="line"/>
    </contour>
  </outline>
</glyph>
<glyph name="idieresis" format="2">
  <advance width="554.7272727272727"/>
  <unicode hex="00EF"/>
  <anchor x="277.3636363636364" y="1200.0" name="_top"/>
  <anchor x="277.3636363636364" y="0.0" name="bottom"/>
  <anchor x="457.75" y="0.0" name="ogonek"/>
  <anchor x="277.3636363636364" y="1200.0" name="top"/>
  <outline>
    <contour>
      <point x="96.97727272727272" y="0.0" type="line"/>
      <point x="457.75" y="0.0" type="line"/>
      <point x="457.75" y="1097.2727272727273" type="line"/>
      <point x="96.97727272727272" y="1097.2727272727273" type="line"/>
    </contour>
    <contour>
      <point x="520.4090909090909" y="1236.9318181818182" type="curve" smooth="yes"/>
      <point x="640.6136363636364" y="1236.9318181818182"/>
      <point x="711.5227272727273" y="1304.9772727272727"/>
      <point x="711.5227272727273" y="1418.5454545454545" type="curve" smooth="yes"/>
      <point x="711.5227272727273" y="1532.1136363636363"/>
      <point x="640.6136363636364" y="1600.4318181818182"/>
      <point x="520.4090909090909" y="1600.4318181818182" type="curve" smooth="yes"/>
      <point x="400.20454545454544" y="1600.4318181818182"/>
      <point x="329.29545454545456" y="1532.1136363636363"/>
      <point x="329.29545454545456" y="1418.5454545454545" type="curve" smooth="yes"/>
      <point x="329.29545454545456" y="1304.9772727272727"/>
      <point x="400.20454545454544" y="1236.9318181818182"/>
    </contour>
    <contour>
      <point x="34.31818181818182" y="1236.9318181818182" type="curve" smooth="yes"/>
      <point x="154.52272727272725" y="1236.9318181818182"/>
      <point x="225.4318181818182" y="1304.9772727272727"/>
      <point x="225.4318181818182" y="1418.5454545454545" type="curve" smooth="yes"/>
      <point x="225.4318181818182" y="1532.1136363636363"/>
      <point x="154.52272727272725" y="1600.4318181818182"/>
      <point x="34.31818181818182" y="1600.4318181818182" type="curve" smooth="yes"/>
      <point x="-85.88636363636364" y="1600.4318181818182"/>
      <point x="-156.79545454545456" y="1532.1136363636363"/>
      <point x="-156.79545454545456" y="1418.5454545454545" type="curve" smooth="yes"/>
      <point x="-156.79545454545456" y="1304.9772727272727"/>
      <point x="-85.88636363636364" y="1236.9318181818182"/>
    </contour>
  </outline>
</glyph>
